<?xml version="1.0" encoding="utf-8"?>
<!-- Generator: Adobe Illustrator 17.0.0, SVG Export Plug-In . SVG Version: 6.00 Build 0)  -->
<!DOCTYPE svg PUBLIC "-//W3C//DTD SVG 1.1//EN" "http://www.w3.org/Graphics/SVG/1.1/DTD/svg11.dtd">
<svg version="1.1" id="Calque_1" xmlns="http://www.w3.org/2000/svg" xmlns:xlink="http://www.w3.org/1999/xlink" x="0px" y="0px"
	 width="85.68px" height="85.68px" viewBox="0 0 85.68 85.68" enable-background="new 0 0 85.68 85.68" xml:space="preserve">
<g>
	<circle fill="#FEDA2F" cx="42.839" cy="42.84" r="34.866"/>
	<path fill="#FEDA2F" d="M14.133,10.962l-3.17,3.17c-1.642,1.642-1.642,4.323,0,5.965l3.087,3.085
		c2.45-3.582,5.553-6.683,9.136-9.135l-3.089-3.085C18.456,9.321,15.772,9.321,14.133,10.962z M71.547,10.962
		c-1.641-1.64-4.327-1.64-5.966,0l-3.087,3.087c3.582,2.45,6.685,5.551,9.135,9.137l3.087-3.087c1.64-1.642,1.64-4.325,0-5.967
		L71.547,10.962z M45.079,0h-4.48c-2.321,0-4.22,1.898-4.22,4.218v4.377c2.096-0.392,4.249-0.621,6.461-0.621
		c2.208,0,4.362,0.229,6.457,0.621V4.218C49.297,1.898,47.399,0,45.079,0z M4.218,36.379C1.897,36.379,0,38.281,0,40.601v4.478
		c0,2.324,1.897,4.222,4.218,4.222h4.377c-0.394-2.098-0.622-4.253-0.622-6.461s0.228-4.366,0.622-6.461H4.218z M71.629,62.495
		c-2.449,3.583-5.551,6.684-9.135,9.134l3.087,3.085c1.64,1.641,4.325,1.641,5.966,0l3.168-3.167c1.64-1.642,1.64-4.327,0-5.968
		L71.629,62.495z M81.458,36.379h-4.373c0.392,2.095,0.621,4.253,0.621,6.461s-0.229,4.363-0.621,6.461h4.373
		c2.322,0,4.222-1.898,4.222-4.222v-4.478C85.68,38.281,83.78,36.379,81.458,36.379z M14.047,62.495l-3.085,3.087
		c-1.642,1.641-1.642,4.324,0,5.966l3.167,3.17c1.643,1.639,4.327,1.639,5.968,0l3.087-3.085
		C19.602,69.18,16.499,66.078,14.047,62.495z M36.379,77.084v4.378c0,2.321,1.899,4.218,4.22,4.218h4.48
		c2.32,0,4.218-1.897,4.218-4.218v-4.378c-2.095,0.395-4.249,0.621-6.457,0.621C40.628,77.705,38.475,77.479,36.379,77.084z"/>
	<path fill="#F8A331" d="M36.379,6.775v1.82c2.096-0.392,4.249-0.621,6.461-0.621c2.208,0,4.362,0.229,6.457,0.621v-1.82
		c-2.099-0.373-4.251-0.604-6.457-0.604C40.632,6.172,38.48,6.403,36.379,6.775z M71.629,23.186l1.286-1.287
		c-2.483-3.56-5.576-6.653-9.134-9.134l-1.287,1.284C66.076,16.499,69.179,19.6,71.629,23.186z M6.775,36.379
		c-0.377,2.103-0.604,4.253-0.604,6.461s0.227,4.359,0.604,6.461h1.82c-0.394-2.098-0.622-4.253-0.622-6.461
		s0.228-4.366,0.622-6.461H6.775z M62.494,71.629l1.289,1.285c3.558-2.481,6.651-5.574,9.134-9.133l-1.288-1.286
		C69.18,66.078,66.078,69.178,62.494,71.629z M78.905,36.379h-1.82c0.392,2.095,0.621,4.253,0.621,6.461s-0.229,4.363-0.621,6.461
		h1.82c0.373-2.101,0.602-4.253,0.602-6.461S79.277,38.482,78.905,36.379z M36.379,77.084v1.82c2.102,0.373,4.253,0.602,6.461,0.602
		c2.206,0,4.358-0.229,6.457-0.602v-1.82c-2.095,0.395-4.249,0.621-6.457,0.621C40.628,77.705,38.475,77.479,36.379,77.084z
		 M14.047,62.495l-1.285,1.286c2.483,3.561,5.576,6.655,9.135,9.137l1.286-1.285C19.602,69.18,16.499,66.078,14.047,62.495z
		 M12.763,21.897l1.287,1.285c2.45-3.582,5.553-6.683,9.136-9.135l-1.288-1.284C18.339,15.246,15.246,18.339,12.763,21.897z"/>
	<path opacity="0.15" fill="#FFFFFF" d="M65.581,10.962l-3.087,3.087c-3.899-2.668-8.376-4.55-13.197-5.454V4.218
		c0-2.32-1.897-4.218-4.218-4.218h-4.48c-2.321,0-4.22,1.898-4.22,4.218v4.377c-4.819,0.904-9.293,2.786-13.193,5.452l-3.089-3.085
		c-1.641-1.642-4.325-1.642-5.964,0l-3.17,3.17c-1.642,1.642-1.642,4.323,0,5.965l3.087,3.085c-2.668,3.903-4.55,8.375-5.454,13.197
		H4.218C1.897,36.379,0,38.281,0,40.601v4.478c0,2.324,1.897,4.222,4.218,4.222h4.377c0.904,4.819,2.786,9.293,5.452,13.193
		l-3.085,3.087c-1.642,1.641-1.642,4.324,0,5.966l1.832,1.834l60.585-60.587l-1.832-1.832C69.906,9.323,67.221,9.323,65.581,10.962z
		"/>
</g>
</svg>
