<?xml version="1.0" encoding="utf-8"?>
<!-- Generator: Adobe Illustrator 17.0.0, SVG Export Plug-In . SVG Version: 6.00 Build 0)  -->
<!DOCTYPE svg PUBLIC "-//W3C//DTD SVG 1.1//EN" "http://www.w3.org/Graphics/SVG/1.1/DTD/svg11.dtd">
<svg version="1.1" id="Calque_1" xmlns="http://www.w3.org/2000/svg" xmlns:xlink="http://www.w3.org/1999/xlink" x="0px" y="0px"
	 width="85.68px" height="85.68px" viewBox="0 0 85.68 85.68" enable-background="new 0 0 85.68 85.68" xml:space="preserve">
<g>
	<circle fill="#C6C5A3" cx="42.84" cy="42.84" r="42.633"/>
	<path fill="#D2D1B1" d="M42.839,0.207c-8.428,0-16.278,2.456-22.893,6.675c-4.22,6.614-6.674,14.464-6.674,22.892
		c0,23.546,19.086,42.632,42.634,42.632c8.426,0,16.276-2.455,22.893-6.672c4.218-6.616,6.674-14.464,6.674-22.894
		C85.473,19.294,66.383,0.207,42.839,0.207z"/>
	<g>
		<circle fill="#B6B284" cx="15.341" cy="37.582" r="7.993"/>
		<path fill="#C1BE99" d="M15.342,29.591c-1.58,0-3.052,0.459-4.293,1.25c-0.788,1.241-1.252,2.712-1.252,4.291
			c0,4.416,3.578,7.992,7.994,7.992c1.579,0,3.05-0.458,4.291-1.252c0.792-1.239,1.252-2.71,1.252-4.29
			C23.334,33.168,19.756,29.591,15.342,29.591z"/>
	</g>
	<g>
		<path fill="#B6B284" d="M55.982,41.021c0,6.184-5.015,11.198-11.201,11.198c-6.188,0-11.199-5.014-11.199-11.198
			c0-6.188,5.012-11.202,11.199-11.202C50.967,29.819,55.982,34.834,55.982,41.021z"/>
		<path fill="#C1BE99" d="M44.781,29.819c-2.214,0-4.276,0.646-6.015,1.754c-1.106,1.737-1.754,3.799-1.754,6.013
			c0,6.186,5.015,11.201,11.203,11.201c2.214,0,4.274-0.645,6.013-1.752c1.11-1.74,1.754-3.801,1.754-6.014
			C55.982,34.834,50.967,29.819,44.781,29.819z"/>
	</g>
	<g>
		<circle fill="#B6B284" cx="25.084" cy="64.957" r="4.68"/>
		<path fill="#C1BE99" d="M25.084,60.277c-0.925,0-1.787,0.27-2.515,0.733c-0.463,0.726-0.731,1.587-0.731,2.514
			c0,2.587,2.094,4.68,4.68,4.68c0.923,0,1.785-0.27,2.512-0.731c0.464-0.729,0.733-1.589,0.733-2.515
			C29.764,62.373,27.668,60.277,25.084,60.277z"/>
	</g>
	<g>
		<circle fill="#B6B284" cx="62.844" cy="18.243" r="5.74"/>
		<path fill="#C1BE99" d="M62.845,12.503c-1.137,0-2.192,0.33-3.081,0.898c-0.571,0.889-0.9,1.947-0.9,3.084
			c0,3.166,2.571,5.737,5.737,5.737c1.137,0,2.19-0.329,3.085-0.898c0.566-0.89,0.898-1.946,0.898-3.081
			C68.584,15.073,66.017,12.503,62.845,12.503z"/>
	</g>
	<g>
		<circle fill="#B6B284" cx="30.973" cy="11.645" r="3.268"/>
		<path fill="#C1BE99" d="M30.973,8.378c-0.646,0-1.248,0.188-1.752,0.511c-0.324,0.51-0.514,1.109-0.514,1.757
			c0,1.804,1.463,3.268,3.267,3.268c0.649,0,1.249-0.188,1.758-0.512c0.322-0.506,0.51-1.108,0.51-1.756
			C34.242,9.84,32.777,8.378,30.973,8.378z"/>
	</g>
	<g>
		<path fill="#B6B284" d="M79.853,47.22c0,3.292-2.668,5.967-5.96,5.967c-3.296,0-5.964-2.675-5.964-5.967
			c0-3.29,2.668-5.96,5.964-5.96C77.185,41.259,79.853,43.93,79.853,47.22z"/>
		<path fill="#C1BE99" d="M73.892,41.259c-1.182,0-2.28,0.34-3.201,0.937c-0.594,0.921-0.932,2.017-0.932,3.198
			c0,3.292,2.668,5.961,5.958,5.961c1.178,0,2.276-0.341,3.201-0.93c0.596-0.927,0.934-2.025,0.934-3.206
			C79.853,43.93,77.185,41.259,73.892,41.259z"/>
	</g>
	<g>
		<circle fill="#B6B284" cx="55.63" cy="71.681" r="5.139"/>
		<path fill="#C1BE99" d="M55.629,66.543c-1.015,0-1.96,0.298-2.757,0.805c-0.511,0.796-0.806,1.744-0.806,2.76
			c0,2.836,2.299,5.138,5.138,5.138c1.017,0,1.962-0.295,2.759-0.803c0.51-0.798,0.805-1.745,0.805-2.761
			C60.769,68.844,58.469,66.543,55.629,66.543z"/>
	</g>
</g>
</svg>
