<?xml version="1.0" encoding="utf-8"?>
<!-- Generator: Adobe Illustrator 17.0.0, SVG Export Plug-In . SVG Version: 6.00 Build 0)  -->
<!DOCTYPE svg PUBLIC "-//W3C//DTD SVG 1.1//EN" "http://www.w3.org/Graphics/SVG/1.1/DTD/svg11.dtd">
<svg version="1.1" id="Calque_1" xmlns="http://www.w3.org/2000/svg" xmlns:xlink="http://www.w3.org/1999/xlink" x="0px" y="0px"
	 width="85.68px" height="85.68px" viewBox="0 0 85.68 85.68" enable-background="new 0 0 85.68 85.68" xml:space="preserve">
<g>
	<g>
		<circle fill="#FEDA2F" cx="49.268" cy="42.373" r="28.622"/>
		<path fill="#FEDA2F" d="M25.703,16.205L23.1,18.807c-1.346,1.347-1.346,3.548,0,4.896l2.537,2.533
			c2.009-2.942,4.558-5.486,7.496-7.498L30.6,16.205C29.252,14.856,27.051,14.856,25.703,16.205z M72.837,16.205
			c-1.352-1.345-3.553-1.345-4.901,0l-2.534,2.535c2.943,2.01,5.491,4.556,7.501,7.498l2.533-2.533c1.348-1.348,1.348-3.549,0-4.896
			L72.837,16.205z M51.109,7.204h-3.676c-1.908,0-3.467,1.558-3.467,3.463v3.595c1.721-0.324,3.488-0.512,5.302-0.512
			c1.815,0,3.582,0.188,5.303,0.512v-3.595C54.572,8.762,53.014,7.204,51.109,7.204z M17.564,37.071
			c-1.905,0-3.466,1.558-3.466,3.465v3.678c0,1.905,1.561,3.463,3.466,3.463h3.591c-0.322-1.721-0.509-3.49-0.509-5.303
			c0-1.812,0.187-3.582,0.509-5.302H17.564z M72.903,58.508c-2.01,2.943-4.558,5.487-7.501,7.5l2.534,2.532
			c1.348,1.346,3.553,1.346,4.901,0l2.599-2.601c1.348-1.348,1.348-3.551,0-4.899L72.903,58.508z M80.973,37.071h-3.592
			c0.321,1.721,0.509,3.49,0.509,5.302c0,1.813-0.188,3.582-0.509,5.303h3.592c1.905,0,3.463-1.558,3.463-3.463v-3.678
			C84.436,38.628,82.878,37.071,80.973,37.071z M25.634,58.508L23.1,61.042c-1.346,1.348-1.346,3.551,0,4.897l2.602,2.603
			c1.348,1.346,3.549,1.346,4.897,0l2.533-2.534C30.196,63.998,27.647,61.451,25.634,58.508z M43.967,70.486v3.593
			c0,1.905,1.558,3.463,3.467,3.463h3.676c1.905,0,3.463-1.558,3.463-3.463v-3.593c-1.721,0.322-3.488,0.51-5.303,0.51
			C47.455,70.996,45.687,70.808,43.967,70.486z"/>
		<path fill="#F8A331" d="M43.967,12.767v1.494c1.721-0.324,3.488-0.512,5.302-0.512c1.815,0,3.582,0.188,5.303,0.512v-1.494
			c-1.725-0.307-3.488-0.495-5.303-0.495C47.459,12.272,45.69,12.46,43.967,12.767z M72.903,26.238l1.055-1.055
			c-2.039-2.923-4.576-5.461-7.496-7.5l-1.06,1.057C68.345,20.75,70.893,23.296,72.903,26.238z M19.661,37.071
			c-0.307,1.724-0.493,3.492-0.493,5.302c0,1.811,0.186,3.578,0.493,5.303h1.495c-0.322-1.721-0.509-3.49-0.509-5.303
			c0-1.812,0.187-3.582,0.509-5.302H19.661z M65.402,66.008l1.06,1.054c2.92-2.037,5.458-4.576,7.496-7.498l-1.055-1.056
			C70.893,61.451,68.345,63.995,65.402,66.008z M78.874,37.071h-1.493c0.321,1.721,0.509,3.49,0.509,5.302
			c0,1.813-0.188,3.582-0.509,5.303h1.493c0.307-1.724,0.495-3.492,0.495-5.303C79.368,40.562,79.181,38.795,78.874,37.071z
			 M43.967,70.486v1.493c1.724,0.307,3.492,0.495,5.302,0.495c1.815,0,3.578-0.188,5.303-0.495v-1.493
			c-1.721,0.322-3.488,0.51-5.303,0.51C47.455,70.996,45.687,70.808,43.967,70.486z M25.634,58.508l-1.055,1.056
			c2.039,2.922,4.58,5.465,7.5,7.5l1.055-1.056C30.196,63.998,27.647,61.451,25.634,58.508z M24.579,25.181l1.059,1.055
			c2.009-2.942,4.558-5.486,7.496-7.498l-1.055-1.057C29.159,19.721,26.617,22.26,24.579,25.181z"/>
		<path opacity="0.15" fill="#FFFFFF" d="M67.936,16.205l-2.534,2.535c-3.202-2.194-6.872-3.735-10.83-4.478v-3.595
			c0-1.905-1.558-3.463-3.463-3.463h-3.676c-1.908,0-3.467,1.558-3.467,3.463v3.595c-3.958,0.743-7.63,2.284-10.833,4.476
			L30.6,16.205c-1.348-1.349-3.549-1.349-4.897,0L23.1,18.807c-1.346,1.347-1.346,3.548,0,4.896l2.537,2.533
			c-2.194,3.205-3.739,6.877-4.482,10.835h-3.591c-1.905,0-3.466,1.558-3.466,3.465v3.678c0,1.905,1.561,3.463,3.466,3.463h3.591
			c0.743,3.958,2.288,7.63,4.478,10.832L23.1,61.042c-1.346,1.348-1.346,3.551,0,4.897l1.504,1.505l49.737-49.737l-1.504-1.504
			C71.486,14.86,69.284,14.86,67.936,16.205z"/>
	</g>
	<g>
		<path fill="#FFFFFF" d="M45.788,26.583c-9.448,0-17.45,6.166-20.23,14.688c-5.315,1.183-9.646,4.934-11.633,9.893
			c-7.185,0.244-12.94,6.129-12.94,13.371c0,7.235,5.736,13.109,12.901,13.375v0.024h32.151V26.594
			C45.955,26.593,45.871,26.583,45.788,26.583z"/>
		<path fill="#F2F4FA" d="M66.896,45.252c-1.28-10.435-10.102-18.535-20.858-18.657v51.339h20.265v-0.039
			c8.707-0.378,15.654-7.535,15.654-16.334C81.956,52.96,75.321,45.922,66.896,45.252z"/>
	</g>
</g>
</svg>
