<?xml version="1.0" encoding="utf-8"?>
<!-- Generator: Adobe Illustrator 17.0.0, SVG Export Plug-In . SVG Version: 6.00 Build 0)  -->
<!DOCTYPE svg PUBLIC "-//W3C//DTD SVG 1.1//EN" "http://www.w3.org/Graphics/SVG/1.1/DTD/svg11.dtd">
<svg version="1.1" id="Calque_1" xmlns="http://www.w3.org/2000/svg" xmlns:xlink="http://www.w3.org/1999/xlink" x="0px" y="0px"
	 width="85.68px" height="85.68px" viewBox="0 0 85.68 85.68" enable-background="new 0 0 85.68 85.68" xml:space="preserve">
<g>
	<g>
		<circle fill="#C6C5A3" cx="50.1" cy="41.974" r="35.159"/>
		<path fill="#D1D1B0" d="M50.101,6.815c-6.952,0-13.425,2.026-18.88,5.505c-3.48,5.455-5.504,11.929-5.504,18.879
			c0,19.417,15.74,35.158,35.16,35.158c6.95,0,13.423-2.024,18.88-5.502c3.478-5.456,5.502-11.929,5.502-18.881
			C85.259,22.555,69.519,6.815,50.101,6.815z"/>
		<g>
			<circle fill="#B7B284" cx="27.423" cy="37.638" r="6.591"/>
			<path fill="#C1BE99" d="M27.424,31.047c-1.304,0-2.517,0.379-3.542,1.031c-0.649,1.023-1.031,2.237-1.031,3.539
				c0,3.642,2.948,6.591,6.592,6.591c1.302,0,2.516-0.378,3.538-1.031c0.654-1.022,1.033-2.236,1.033-3.538
				C34.014,33.998,31.064,31.047,27.424,31.047z"/>
		</g>
		<g>
			<circle fill="#B7B284" cx="51.702" cy="40.474" r="9.237"/>
			<path fill="#C1BE99" d="M51.702,31.236c-1.827,0-3.527,0.533-4.958,1.447c-0.914,1.432-1.447,3.133-1.447,4.958
				c0,5.101,4.136,9.237,9.237,9.237c1.827,0,3.525-0.531,4.959-1.445c0.915-1.434,1.447-3.134,1.447-4.959
				C60.94,35.371,56.802,31.236,51.702,31.236z"/>
		</g>
		<g>
			<circle fill="#B7B284" cx="35.458" cy="60.213" r="3.86"/>
			<path fill="#C1BE99" d="M35.458,56.354c-0.765,0-1.475,0.222-2.075,0.604c-0.381,0.599-0.602,1.309-0.602,2.073
				c0,2.134,1.725,3.86,3.859,3.86c0.761,0,1.472-0.222,2.073-0.603c0.381-0.601,0.604-1.311,0.604-2.074
				C39.317,58.082,37.588,56.354,35.458,56.354z"/>
		</g>
		<g>
			<circle fill="#B7B284" cx="66.597" cy="21.689" r="4.733"/>
			<path fill="#C1BE99" d="M66.598,16.955c-0.937,0-1.808,0.272-2.541,0.741c-0.47,0.733-0.741,1.605-0.741,2.542
				c0,2.612,2.121,4.731,4.732,4.731c0.938,0,1.806-0.271,2.543-0.741c0.469-0.734,0.741-1.605,0.741-2.541
				C71.33,19.076,69.213,16.955,66.598,16.955z"/>
		</g>
		<g>
			<circle fill="#B7B284" cx="40.314" cy="16.249" r="2.695"/>
			<path fill="#C1BE99" d="M40.314,13.553c-0.534,0-1.029,0.156-1.445,0.421c-0.269,0.42-0.423,0.915-0.423,1.449
				c0,1.488,1.206,2.695,2.694,2.695c0.535,0,1.031-0.155,1.449-0.422c0.266-0.418,0.42-0.915,0.42-1.448
				C43.01,14.759,41.803,13.553,40.314,13.553z"/>
		</g>
		<g>
			<path fill="#B7B284" d="M80.625,45.586c0,2.715-2.201,4.921-4.916,4.921c-2.718,0-4.918-2.206-4.918-4.921
				c0-2.713,2.2-4.915,4.918-4.915C78.424,40.671,80.625,42.874,80.625,45.586z"/>
			<path fill="#C1BE99" d="M75.709,40.671c-0.975,0-1.879,0.28-2.642,0.772c-0.487,0.76-0.766,1.663-0.766,2.637
				c0,2.715,2.2,4.916,4.914,4.916c0.971,0,1.877-0.282,2.639-0.767c0.492-0.764,0.771-1.669,0.771-2.643
				C80.625,42.874,78.424,40.671,75.709,40.671z"/>
		</g>
		<g>
			<circle fill="#B7B284" cx="60.649" cy="65.759" r="4.238"/>
			<path fill="#C1BE99" d="M60.65,61.521c-0.839,0-1.619,0.246-2.277,0.664c-0.42,0.657-0.662,1.439-0.662,2.276
				c0,2.34,1.897,4.237,4.237,4.237c0.837,0,1.618-0.243,2.274-0.662c0.42-0.659,0.665-1.44,0.665-2.277
				C64.887,63.419,62.989,61.521,60.65,61.521z"/>
		</g>
	</g>
	<g>
		<path fill="#FFFFFF" d="M46.378,25.812c-9.725,0-17.959,6.347-20.82,15.118c-5.471,1.217-9.927,5.078-11.974,10.182
			C6.189,51.364,0.266,57.421,0.266,64.875c0,7.447,5.904,13.492,13.28,13.767v0.024h33.089V25.825
			C46.55,25.823,46.468,25.812,46.378,25.812z"/>
		<path fill="#F2F4F9" d="M68.109,45.028c-1.321-10.74-10.402-19.077-21.474-19.204v52.841h20.86v-0.04
			c8.962-0.389,16.113-7.755,16.113-16.813C83.607,52.962,76.776,45.718,68.109,45.028z"/>
	</g>
</g>
</svg>
