<?xml version="1.0" encoding="utf-8"?>
<!-- Generator: Adobe Illustrator 17.0.0, SVG Export Plug-In . SVG Version: 6.00 Build 0)  -->
<!DOCTYPE svg PUBLIC "-//W3C//DTD SVG 1.1//EN" "http://www.w3.org/Graphics/SVG/1.1/DTD/svg11.dtd">
<svg version="1.1" id="Calque_1" xmlns="http://www.w3.org/2000/svg" xmlns:xlink="http://www.w3.org/1999/xlink" x="0px" y="0px"
	 width="85.68px" height="85.68px" viewBox="0 0 85.68 85.68" enable-background="new 0 0 85.68 85.68" xml:space="preserve">
<g>
	<g>
		<circle fill="#C6C5A3" cx="49.18" cy="33.756" r="33.5"/>
		<path fill="#D2D1B1" d="M49.181,0.256c-6.624,0-12.791,1.93-17.989,5.245c-3.316,5.197-5.244,11.366-5.244,17.988
			c0,18.501,14.997,33.499,33.501,33.499c6.622,0,12.789-1.929,17.989-5.243c3.314-5.199,5.243-11.366,5.243-17.99
			C82.68,15.253,67.681,0.256,49.181,0.256z"/>
		<g>
			<circle fill="#B6B284" cx="27.574" cy="29.624" r="6.28"/>
			<path fill="#C1BE99" d="M27.574,23.344c-1.243,0-2.398,0.361-3.375,0.983c-0.618,0.975-0.981,2.131-0.981,3.372
				c0,3.471,2.808,6.28,6.28,6.28c1.242,0,2.397-0.36,3.372-0.983c0.622-0.974,0.983-2.131,0.983-3.371
				C33.854,26.156,31.043,23.344,27.574,23.344z"/>
		</g>
		<g>
			<circle fill="#B6B284" cx="50.706" cy="32.326" r="8.801"/>
			<path fill="#C1BE99" d="M50.706,23.524c-1.74,0-3.359,0.508-4.726,1.379c-0.869,1.365-1.377,2.985-1.377,4.724
				c0,4.86,3.939,8.801,8.801,8.801c1.739,0,3.359-0.506,4.725-1.377c0.872-1.366,1.377-2.986,1.377-4.725
				C59.507,27.465,55.566,23.524,50.706,23.524z"/>
		</g>
		<g>
			<circle fill="#B6B284" cx="35.229" cy="51.134" r="3.678"/>
			<path fill="#C1BE99" d="M35.229,47.457c-0.729,0-1.406,0.212-1.977,0.576c-0.363,0.571-0.574,1.248-0.574,1.975
				c0,2.033,1.644,3.677,3.678,3.677c0.724,0,1.401-0.212,1.974-0.575c0.363-0.573,0.575-1.249,0.575-1.976
				C38.906,49.104,37.259,47.457,35.229,47.457z"/>
		</g>
		<g>
			<circle fill="#B6B284" cx="64.899" cy="14.428" r="4.51"/>
			<path fill="#C1BE99" d="M64.899,9.918c-0.893,0-1.722,0.259-2.421,0.706c-0.448,0.698-0.706,1.529-0.706,2.422
				c0,2.488,2.021,4.508,4.509,4.508c0.894,0,1.722-0.258,2.423-0.706c0.447-0.699,0.706-1.529,0.706-2.421
				C69.409,11.938,67.392,9.918,64.899,9.918z"/>
		</g>
		<g>
			<circle fill="#B6B284" cx="39.856" cy="9.244" r="2.568"/>
			<path fill="#C1BE99" d="M39.857,6.676c-0.509,0-0.981,0.148-1.377,0.401c-0.255,0.401-0.405,0.872-0.405,1.381
				c0,1.418,1.149,2.568,2.569,2.568c0.508,0,0.98-0.148,1.38-0.402c0.253-0.399,0.401-0.872,0.401-1.38
				C42.425,7.826,41.273,6.676,39.857,6.676z"/>
		</g>
		<g>
			<path fill="#B6B284" d="M78.265,37.198c0,2.587-2.097,4.689-4.684,4.689c-2.59,0-4.686-2.102-4.686-4.689
				c0-2.585,2.096-4.683,4.686-4.683C76.168,32.514,78.265,34.613,78.265,37.198z"/>
			<path fill="#C1BE99" d="M73.581,32.514c-0.929,0-1.792,0.267-2.517,0.736c-0.464,0.724-0.73,1.584-0.73,2.513
				c0,2.587,2.096,4.684,4.682,4.684c0.925,0,1.789-0.269,2.515-0.731c0.468-0.728,0.734-1.591,0.734-2.518
				C78.265,34.613,76.168,32.514,73.581,32.514z"/>
		</g>
		<g>
			<circle fill="#B6B284" cx="59.231" cy="56.418" r="4.038"/>
			<path fill="#C1BE99" d="M59.23,52.38c-0.798,0-1.541,0.234-2.168,0.633c-0.4,0.626-0.632,1.371-0.632,2.168
				c0,2.23,1.807,4.037,4.039,4.037c0.798,0,1.54-0.232,2.168-0.631c0.4-0.628,0.632-1.372,0.632-2.169
				C63.269,54.189,61.461,52.38,59.23,52.38z"/>
		</g>
	</g>
	<g>
		<g>
			<path fill="#FFFFFF" d="M45.634,18.357c-9.265,0-17.111,6.047-19.838,14.405c-5.212,1.159-9.459,4.839-11.408,9.702
				c-7.047,0.24-12.69,6.011-12.69,13.113c0,7.095,5.625,12.855,12.653,13.117v0.023h31.527V18.368
				C45.797,18.367,45.718,18.357,45.634,18.357z"/>
			<path fill="#F2F4FA" d="M66.337,36.666c-1.257-10.233-9.909-18.177-20.459-18.297v50.347h19.875v-0.038
				c8.539-0.37,15.352-7.389,15.352-16.019C81.106,44.225,74.598,37.323,66.337,36.666z"/>
		</g>
		<g>
			<path fill="#59C9E7" d="M28.69,58.646l-12.688,3.406l-1.076,0.289c-1.258,0.413-2.442,1.113-3.445,2.112
				c-3.417,3.421-3.417,8.961,0,12.379l18.049-18.048C29.354,58.608,29.063,58.546,28.69,58.646z"/>
			<path fill="#20C3F1" d="M25.972,73.394l0.291-1.087l3.407-12.687c0.096-0.363,0.038-0.658-0.139-0.834L11.482,76.833
				c3.419,3.414,8.961,3.414,12.377,0C24.859,75.833,25.556,74.651,25.972,73.394z"/>
		</g>
		<g>
			<path fill="#59C9E7" d="M69.078,61.271l-12.689,3.408l-1.076,0.289c-1.26,0.414-2.444,1.112-3.447,2.113
				c-3.419,3.418-3.419,8.959,0,12.377L69.915,61.41C69.738,61.234,69.447,61.172,69.078,61.271z"/>
			<path fill="#20C3F1" d="M66.359,76.021l0.289-1.088l3.408-12.683c0.098-0.369,0.036-0.664-0.14-0.84L51.866,79.458
				c3.42,3.418,8.961,3.418,12.378,0C65.243,78.46,65.942,77.278,66.359,76.021z"/>
		</g>
		<g>
			<path fill="#59C9E7" d="M41.823,72.854l-7.698,2.067l-0.657,0.175c-0.763,0.252-1.484,0.675-2.09,1.285
				c-2.075,2.074-2.075,5.436,0,7.513l10.957-10.955C42.225,72.83,42.049,72.797,41.823,72.854z"/>
			<path fill="#20C3F1" d="M40.172,81.804l0.177-0.658l2.066-7.701c0.061-0.22,0.025-0.401-0.081-0.506L31.377,83.894
				c2.074,2.072,5.438,2.072,7.511,0C39.497,83.284,39.921,82.567,40.172,81.804z"/>
		</g>
		<path opacity="0.2" fill="#122C3D" d="M29.67,59.619l-2.442,9.097h12.235l-9.932-9.93C29.708,58.962,29.766,59.256,29.67,59.619z"
			/>
		<path opacity="0.2" fill="#122C3D" d="M70.055,62.25l-1.636,6.079c2.144-0.46,4.13-1.336,5.859-2.551l-4.363-4.367
			C70.091,61.587,70.153,61.881,70.055,62.25z"/>
	</g>
</g>
</svg>
