<?xml version="1.0" encoding="utf-8"?>
<!-- Generator: Adobe Illustrator 17.0.0, SVG Export Plug-In . SVG Version: 6.00 Build 0)  -->
<!DOCTYPE svg PUBLIC "-//W3C//DTD SVG 1.1//EN" "http://www.w3.org/Graphics/SVG/1.1/DTD/svg11.dtd">
<svg version="1.1" id="Calque_1" xmlns="http://www.w3.org/2000/svg" xmlns:xlink="http://www.w3.org/1999/xlink" x="0px" y="0px"
	 width="85.68px" height="85.68px" viewBox="0 0 85.68 85.68" enable-background="new 0 0 85.68 85.68" xml:space="preserve">
<g>
	<g>
		<path fill="#FFFFFF" d="M47.34,0.464c-9.484,0-17.512,6.187-20.298,14.739c-5.333,1.185-9.68,4.951-11.674,9.927
			c-7.21,0.245-12.983,6.15-12.983,13.418c0,7.259,5.753,13.154,12.945,13.42v0.024H47.59V0.477
			C47.507,0.473,47.425,0.464,47.34,0.464z"/>
		<path fill="#F2F4FA" d="M68.521,19.2C67.236,8.726,58.382,0.6,47.59,0.477v51.516h20.335v-0.038
			c8.738-0.379,15.709-7.562,15.709-16.392C83.634,26.934,76.976,19.872,68.521,19.2z"/>
	</g>
	<g>
		<path fill="#59C9E7" d="M30.004,41.688l-12.983,3.487l-1.1,0.296c-1.288,0.422-2.501,1.138-3.526,2.162
			c-3.498,3.497-3.499,9.167,0,12.665L30.862,41.83C30.68,41.65,30.381,41.587,30.004,41.688z"/>
		<path fill="#20C3F1" d="M27.221,56.778l0.297-1.111l3.487-12.981c0.101-0.372,0.038-0.675-0.143-0.855L12.395,60.298
			c3.496,3.494,9.166,3.494,12.664,0C26.081,59.276,26.795,58.066,27.221,56.778z"/>
	</g>
	<path opacity="0.2" fill="#122C3D" d="M31.005,42.686l-2.5,9.307h12.518L30.862,41.83C31.044,42.011,31.106,42.314,31.005,42.686z"
		/>
	<path opacity="0.2" fill="#122C3D" d="M72.326,45.377l-1.672,6.219c2.192-0.469,4.224-1.366,5.995-2.611l-4.466-4.467
		C72.364,44.699,72.427,44.999,72.326,45.377z"/>
	<g>
		<path fill="#59C9E7" d="M71.327,44.375l-12.983,3.487l-1.102,0.296c-1.29,0.424-2.501,1.141-3.525,2.162
			c-3.498,3.498-3.498,9.167,0,12.665l18.468-18.468C72.002,44.337,71.704,44.275,71.327,44.375z"/>
		<path fill="#20C3F1" d="M68.543,59.467l0.296-1.112l3.487-12.978c0.101-0.377,0.038-0.678-0.143-0.859L53.716,62.985
			c3.498,3.498,9.167,3.498,12.665,0C67.403,61.963,68.118,60.753,68.543,59.467z"/>
	</g>
	<polygon fill="#FEDA2F" points="50.116,51.992 35.408,51.992 28.933,68.229 39.325,68.229 32.971,85.468 53.558,62.316 
		43.23,62.316 	"/>
	<polygon fill="#F8A331" points="50.116,51.992 35.408,51.992 35.393,52.03 44.211,60.847 	"/>
</g>
</svg>
