<?xml version="1.0" encoding="utf-8"?>
<!-- Generator: Adobe Illustrator 17.0.0, SVG Export Plug-In . SVG Version: 6.00 Build 0)  -->
<!DOCTYPE svg PUBLIC "-//W3C//DTD SVG 1.1//EN" "http://www.w3.org/Graphics/SVG/1.1/DTD/svg11.dtd">
<svg version="1.1" id="Calque_1" xmlns="http://www.w3.org/2000/svg" xmlns:xlink="http://www.w3.org/1999/xlink" x="0px" y="0px"
	 width="85.68px" height="85.68px" viewBox="0 0 85.68 85.68" enable-background="new 0 0 85.68 85.68" xml:space="preserve">
<g>
	<g>
		<circle fill="#C6C5A3" cx="48.011" cy="29.295" r="28.664"/>
		<path fill="#D1D1B0" d="M48.012,0.631c-5.668,0-10.945,1.651-15.393,4.488c-2.837,4.447-4.487,9.725-4.487,15.392
			c0,15.831,12.833,28.664,28.665,28.664c5.666,0,10.943-1.65,15.393-4.486c2.836-4.449,4.486-9.726,4.486-15.393
			C76.676,13.464,63.842,0.631,48.012,0.631z"/>
		<g>
			<circle fill="#B7B284" cx="29.523" cy="25.76" r="5.374"/>
			<path fill="#C1BE99" d="M29.524,20.386c-1.063,0-2.052,0.31-2.888,0.841c-0.529,0.834-0.84,1.824-0.84,2.885
				c0,2.969,2.404,5.373,5.375,5.373c1.061,0,2.05-0.308,2.884-0.841c0.532-0.833,0.842-1.823,0.842-2.884
				C34.897,22.792,32.492,20.386,29.524,20.386z"/>
		</g>
		<g>
			<circle fill="#B7B284" cx="49.317" cy="28.072" r="7.53"/>
			<path fill="#C1BE99" d="M49.318,20.54c-1.489,0-2.875,0.435-4.044,1.18c-0.743,1.168-1.179,2.554-1.179,4.042
				c0,4.159,3.371,7.531,7.531,7.531c1.488,0,2.874-0.433,4.043-1.178c0.746-1.169,1.179-2.556,1.179-4.043
				C56.847,23.912,53.476,20.54,49.318,20.54z"/>
		</g>
		<g>
			<circle fill="#B7B284" cx="36.074" cy="44.165" r="3.147"/>
			<path fill="#C1BE99" d="M36.074,41.019c-0.623,0-1.203,0.181-1.691,0.493c-0.311,0.488-0.492,1.067-0.492,1.69
				c0,1.739,1.408,3.146,3.147,3.146c0.62,0,1.2-0.181,1.69-0.492c0.311-0.49,0.493-1.068,0.493-1.691
				C39.221,42.428,37.811,41.019,36.074,41.019z"/>
		</g>
		<g>
			<circle fill="#B7B284" cx="61.461" cy="12.758" r="3.859"/>
			<path fill="#C1BE99" d="M61.462,8.898c-0.764,0-1.474,0.221-2.071,0.604c-0.384,0.597-0.605,1.309-0.605,2.073
				c0,2.129,1.729,3.857,3.858,3.857c0.764,0,1.472-0.221,2.073-0.604c0.382-0.598,0.604-1.309,0.604-2.072
				C65.32,10.627,63.594,8.898,61.462,8.898z"/>
		</g>
		<g>
			<circle fill="#B7B284" cx="40.034" cy="8.322" r="2.197"/>
			<path fill="#C1BE99" d="M40.034,6.124c-0.435,0-0.838,0.127-1.178,0.344c-0.219,0.343-0.346,0.746-0.346,1.181
				c0,1.213,0.982,2.198,2.197,2.198c0.435,0,0.838-0.127,1.181-0.344c0.217-0.341,0.343-0.745,0.343-1.18
				C42.231,7.108,41.245,6.124,40.034,6.124z"/>
		</g>
		<g>
			<path fill="#B7B284" d="M72.898,32.24c0,2.214-1.794,4.012-4.008,4.012c-2.216,0-4.01-1.798-4.01-4.012
				c0-2.212,1.794-4.007,4.01-4.007C71.104,28.233,72.898,30.028,72.898,32.24z"/>
			<path fill="#C1BE99" d="M68.89,28.233c-0.795,0-1.533,0.228-2.154,0.63c-0.397,0.619-0.625,1.356-0.625,2.15
				c0,2.213,1.794,4.008,4.007,4.008c0.792,0,1.53-0.23,2.152-0.626c0.4-0.623,0.628-1.361,0.628-2.155
				C72.898,30.028,71.104,28.233,68.89,28.233z"/>
		</g>
		<g>
			<circle fill="#B7B284" cx="56.611" cy="48.687" r="3.455"/>
			<path fill="#C1BE99" d="M56.611,45.231c-0.682,0-1.318,0.2-1.855,0.541c-0.343,0.535-0.541,1.173-0.541,1.856
				c0,1.908,1.547,3.455,3.456,3.455c0.682,0,1.317-0.198,1.854-0.54c0.343-0.537,0.542-1.174,0.542-1.856
				C60.067,46.779,58.52,45.231,56.611,45.231z"/>
		</g>
	</g>
	<g>
		<g>
			<path fill="#FFFFFF" d="M45.681,15.758c-7.801,0-14.403,5.089-16.696,12.124c-4.387,0.975-7.964,4.072-9.603,8.167
				C13.451,36.25,8.703,41.107,8.703,47.085c0,5.971,4.732,10.819,10.648,11.039v0.019h26.537V15.768
				C45.818,15.766,45.751,15.758,45.681,15.758z"/>
			<path fill="#F2F4F9" d="M63.105,31.169c-1.057-8.615-8.339-15.3-17.217-15.402v42.375h16.727v-0.031
				c7.187-0.313,12.921-6.22,12.921-13.484C75.535,37.53,70.059,31.722,63.105,31.169z"/>
		</g>
		<g>
			<path fill="#00E1FF" d="M31.421,49.667l-10.679,2.869l-0.905,0.242c-1.06,0.347-2.058,0.937-2.899,1.779
				c-2.877,2.877-2.878,7.541,0,10.418l15.191-15.191C31.978,49.636,31.731,49.585,31.421,49.667z"/>
			<path fill="#00C6F4" d="M29.133,62.08l0.244-0.914l2.868-10.678c0.082-0.306,0.032-0.555-0.117-0.704L16.937,64.975
				c2.875,2.875,7.54,2.875,10.417,0C28.193,64.134,28.783,63.139,29.133,62.08z"/>
		</g>
		<path opacity="0.2" fill="#122C3D" d="M32.245,50.488l-2.057,7.655h10.297l-8.357-8.359
			C32.277,49.933,32.327,50.182,32.245,50.488z"/>
		<path opacity="0.2" fill="#122C3D" d="M66.234,52.701l-1.375,5.116c1.803-0.387,3.475-1.124,4.932-2.148l-3.674-3.674
			C66.265,52.144,66.318,52.391,66.234,52.701z"/>
		<g>
			<path fill="#00E1FF" d="M65.412,51.877l-10.679,2.868l-0.907,0.243c-1.061,0.349-2.058,0.938-2.901,1.779
				c-2.877,2.877-2.877,7.541,0,10.418l15.191-15.191C65.969,51.847,65.722,51.794,65.412,51.877z"/>
			<path fill="#00C6F4" d="M63.122,64.292l0.243-0.915l2.869-10.676c0.083-0.31,0.031-0.557-0.118-0.706L50.925,67.186
				c2.878,2.877,7.543,2.877,10.418,0C62.184,66.345,62.772,65.35,63.122,64.292z"/>
		</g>
		<polygon fill="#FFDA24" points="47.965,58.143 35.866,58.143 30.54,71.499 39.089,71.499 33.861,85.68 50.795,66.635 
			42.301,66.635 		"/>
		<polygon fill="#FFA300" points="47.965,58.143 35.866,58.143 35.854,58.174 43.108,65.428 		"/>
	</g>
</g>
</svg>
