<?xml version="1.0" encoding="utf-8"?>
<!-- Generator: Adobe Illustrator 17.0.0, SVG Export Plug-In . SVG Version: 6.00 Build 0)  -->
<!DOCTYPE svg PUBLIC "-//W3C//DTD SVG 1.1//EN" "http://www.w3.org/Graphics/SVG/1.1/DTD/svg11.dtd">
<svg version="1.1" id="Calque_1" xmlns="http://www.w3.org/2000/svg" xmlns:xlink="http://www.w3.org/1999/xlink" x="0px" y="0px"
	 width="85.68px" height="85.68px" viewBox="0 0 85.68 85.68" enable-background="new 0 0 85.68 85.68" xml:space="preserve">
<g>
	<g>
		<circle fill="#C6C5A3" cx="50.513" cy="33.833" r="33.423"/>
		<path fill="#D1D1B0" d="M50.513,0.409c-6.608,0-12.762,1.925-17.948,5.233c-3.309,5.185-5.231,11.34-5.231,17.947
			c0,18.46,14.962,33.423,33.423,33.423c6.606,0,12.76-1.923,17.949-5.23c3.307-5.188,5.23-11.341,5.23-17.949
			C83.936,15.372,68.973,0.409,50.513,0.409z"/>
		<g>
			<circle fill="#B7B284" cx="28.955" cy="29.711" r="6.266"/>
			<path fill="#C1BE99" d="M28.956,23.444c-1.238,0-2.393,0.361-3.365,0.981c-0.619,0.973-0.981,2.126-0.981,3.364
				c0,3.462,2.804,6.265,6.267,6.265c1.238,0,2.391-0.359,3.364-0.981c0.62-0.971,0.981-2.125,0.981-3.363
				C35.221,26.249,32.417,23.444,28.956,23.444z"/>
		</g>
		<g>
			<circle fill="#B7B284" cx="52.036" cy="32.406" r="8.781"/>
			<path fill="#C1BE99" d="M52.036,23.624c-1.736,0-3.353,0.506-4.715,1.376c-0.868,1.361-1.376,2.977-1.376,4.713
				c0,4.85,3.933,8.782,8.781,8.782c1.737,0,3.351-0.505,4.715-1.374c0.87-1.364,1.376-2.98,1.376-4.715
				C60.817,27.556,56.885,23.624,52.036,23.624z"/>
		</g>
		<g>
			<circle fill="#B7B284" cx="36.594" cy="51.172" r="3.669"/>
			<path fill="#C1BE99" d="M36.593,47.503c-0.725,0-1.4,0.211-1.971,0.574c-0.362,0.57-0.573,1.245-0.573,1.971
				c0,2.028,1.641,3.67,3.67,3.67c0.725,0,1.399-0.212,1.97-0.574c0.363-0.571,0.575-1.245,0.575-1.971
				C40.263,49.146,38.618,47.503,36.593,47.503z"/>
		</g>
		<g>
			<circle fill="#B7B284" cx="66.196" cy="14.549" r="4.499"/>
			<path fill="#C1BE99" d="M66.197,10.048c-0.891,0-1.719,0.258-2.416,0.705c-0.447,0.697-0.706,1.526-0.706,2.417
				c0,2.483,2.016,4.498,4.499,4.498c0.891,0,1.717-0.258,2.417-0.704c0.445-0.698,0.704-1.526,0.704-2.416
				C70.695,12.065,68.683,10.048,66.197,10.048z"/>
		</g>
		<g>
			<circle fill="#B7B284" cx="41.21" cy="9.377" r="2.562"/>
			<path fill="#C1BE99" d="M41.211,6.813c-0.508,0-0.978,0.148-1.374,0.4c-0.255,0.401-0.401,0.87-0.401,1.378
				c0,1.415,1.146,2.563,2.561,2.563c0.507,0,0.979-0.148,1.377-0.401c0.253-0.398,0.4-0.869,0.4-1.376
				C43.773,7.961,42.625,6.813,41.211,6.813z"/>
		</g>
		<g>
			<path fill="#B7B284" d="M79.532,37.266c0,2.581-2.092,4.678-4.674,4.678c-2.583,0-4.675-2.097-4.675-4.678
				c0-2.579,2.092-4.673,4.675-4.673C77.44,32.594,79.532,34.687,79.532,37.266z"/>
			<path fill="#C1BE99" d="M74.858,32.594c-0.927,0-1.786,0.266-2.511,0.733c-0.463,0.723-0.728,1.582-0.728,2.508
				c0,2.58,2.092,4.674,4.672,4.674c0.923,0,1.784-0.268,2.51-0.73c0.466-0.726,0.732-1.587,0.732-2.513
				C79.532,34.687,77.44,32.594,74.858,32.594z"/>
		</g>
		<g>
			<circle fill="#B7B284" cx="60.541" cy="56.444" r="4.029"/>
			<path fill="#C1BE99" d="M60.542,52.415c-0.797,0-1.538,0.233-2.164,0.631c-0.4,0.624-0.63,1.368-0.63,2.164
				c0,2.224,1.804,4.028,4.028,4.028c0.796,0,1.538-0.232,2.163-0.63c0.4-0.626,0.631-1.368,0.631-2.164
				C64.57,54.219,62.766,52.415,60.542,52.415z"/>
		</g>
	</g>
	<g>
		<g>
			<path fill="#FFFFFF" d="M46.33,17.285c-9.648,0-17.814,6.294-20.65,14.994c-5.425,1.206-9.848,5.037-11.876,10.099
				c-7.335,0.249-13.206,6.256-13.206,13.65c0,7.384,5.851,13.38,13.167,13.651v0.024h32.818V17.297
				C46.498,17.294,46.415,17.285,46.33,17.285z"/>
			<path fill="#F2F4F9" d="M67.875,36.344C66.57,25.69,57.562,17.423,46.583,17.297v52.405H67.27v-0.038
				c8.887-0.385,15.978-7.692,15.978-16.675C83.249,44.211,76.476,37.029,67.875,36.344z"/>
		</g>
		<g>
			<path fill="#00E1FF" d="M70.729,61.954l-13.206,3.547l-1.121,0.301c-1.312,0.431-2.546,1.16-3.586,2.199
				c-3.558,3.558-3.558,9.327,0,12.884l18.787-18.786C71.419,61.916,71.114,61.852,70.729,61.954z"/>
			<path fill="#00C6F4" d="M67.9,77.307l0.301-1.132l3.547-13.201c0.102-0.384,0.039-0.69-0.145-0.874L52.816,80.886
				c3.558,3.558,9.326,3.558,12.884,0C66.74,79.846,67.465,78.615,67.9,77.307z"/>
		</g>
		<path opacity="0.2" fill="#122C3D" d="M71.748,62.973L70.046,69.3c2.228-0.478,4.297-1.39,6.097-2.657l-4.541-4.544
			C71.786,62.284,71.85,62.59,71.748,62.973z"/>
		<g>
			<path fill="#00E1FF" d="M31.184,76.73l-3.178-1.835l2.766-0.741c0.148-0.038,0.237-0.192,0.198-0.341l-0.447-1.666
				c-0.039-0.149-0.193-0.237-0.341-0.198l-4.972,1.333l-4.056-2.343l4.056-2.343l4.972,1.333c0.149,0.038,0.303-0.05,0.341-0.199
				l0.447-1.665c0.039-0.149-0.049-0.301-0.198-0.344l-2.766-0.739l3.178-1.836c0.133-0.077,0.178-0.247,0.101-0.382l-0.861-1.493
				c-0.076-0.133-0.25-0.18-0.38-0.102l-3.179,1.834l0.743-2.764c0.039-0.15-0.049-0.303-0.198-0.343l-1.666-0.446
				c-0.149-0.042-0.304,0.048-0.343,0.197l-1.333,4.972l-4.055,2.341v-4.471l3.638-3.638c0.11-0.109,0.11-0.287,0-0.394l-1.217-1.22
				c-0.109-0.109-0.288-0.109-0.396,0l-2.025,2.026V57.38c0-0.154-0.125-0.279-0.281-0.279h-1.723c-0.154,0-0.28,0.125-0.28,0.279
				v3.884l-2.026-2.026c-0.106-0.109-0.287-0.109-0.393,0l-1.22,1.22c-0.109,0.108-0.109,0.286,0,0.394l3.639,3.638v4.471
				l-3.871-2.235l-1.332-4.97c-0.039-0.149-0.194-0.239-0.343-0.199l-1.666,0.448c-0.148,0.039-0.237,0.193-0.198,0.341l0.742,2.765
				L7.699,63.17c-0.134-0.077-0.306-0.031-0.382,0.102l-0.863,1.493C6.378,64.9,6.422,65.07,6.557,65.147l3.363,1.942L7.154,67.83
				c-0.149,0.041-0.237,0.195-0.198,0.344l0.445,1.664c0.042,0.148,0.194,0.239,0.343,0.198l4.973-1.332l3.869,2.235l-3.869,2.235
				L7.745,71.84c-0.149-0.04-0.301,0.05-0.341,0.199l-0.447,1.665c-0.039,0.149,0.049,0.303,0.198,0.342l2.765,0.742L6.557,76.73
				c-0.134,0.076-0.179,0.247-0.103,0.382l0.863,1.493c0.076,0.134,0.247,0.181,0.382,0.102l3.363-1.941l-0.742,2.765
				c-0.039,0.149,0.049,0.303,0.198,0.341l1.666,0.448c0.148,0.039,0.304-0.049,0.343-0.198l1.332-4.971l3.871-2.236V77.6
				l-3.639,3.639c-0.109,0.108-0.109,0.287,0,0.394l1.22,1.219c0.106,0.109,0.286,0.109,0.393,0l2.026-2.023v3.67
				c0,0.154,0.126,0.279,0.28,0.279h1.723c0.155,0,0.281-0.126,0.281-0.279v-3.67l2.025,2.023c0.108,0.109,0.287,0.109,0.396,0
				l1.217-1.219c0.11-0.108,0.11-0.287,0-0.394L20.012,77.6v-4.684l4.055,2.343l1.333,4.969c0.039,0.149,0.194,0.239,0.343,0.198
				l1.666-0.445c0.149-0.039,0.237-0.195,0.198-0.344l-0.743-2.765l3.179,1.835c0.131,0.078,0.304,0.032,0.38-0.102l0.861-1.493
				C31.363,76.977,31.317,76.806,31.184,76.73z"/>
			<path opacity="0.2" fill="#122C3D" d="M25.273,62.121l-1.563-1.565l-0.025-0.016c0.049,0.104,0.053,0.226-0.036,0.313
				l-3.638,3.638v4.471l4.055-2.341L25.273,62.121z M10.641,69.261c0.92,0.233,1.874,0.382,2.861,0.417v0.024h0.944l-1.729-0.999
				L10.641,69.261z M13.858,66.727l3.871,2.235v-1.966l-5.188-5.186L13.858,66.727z M20.012,61.265l1.961-1.963l-1.989-1.991
				c0.007,0.025,0.028,0.043,0.028,0.069V61.265z M36.855,69.702l-6.431-6.43l0.861,1.493c0.078,0.134,0.032,0.304-0.101,0.382
				l-3.178,1.836l2.766,0.739c0.148,0.043,0.237,0.195,0.198,0.344l-0.438,1.637H36.855z M29.209,63.652l-1.651-1.653l-0.014,0.004
				c0.053,0.065,0.086,0.149,0.064,0.239l-0.743,2.764L29.209,63.652z M23.292,69.702h6.047l-4.131-1.106L23.292,69.702z"/>
		</g>
	</g>
</g>
</svg>
