<?xml version="1.0" encoding="utf-8"?>
<!-- Generator: Adobe Illustrator 17.0.0, SVG Export Plug-In . SVG Version: 6.00 Build 0)  -->
<!DOCTYPE svg PUBLIC "-//W3C//DTD SVG 1.1//EN" "http://www.w3.org/Graphics/SVG/1.1/DTD/svg11.dtd">
<svg version="1.1" id="Calque_1" xmlns="http://www.w3.org/2000/svg" xmlns:xlink="http://www.w3.org/1999/xlink" x="0px" y="0px"
	 width="85.68px" height="85.68px" viewBox="0 0 85.68 85.68" enable-background="new 0 0 85.68 85.68" xml:space="preserve">
<g>
	<path fill="#FFFFFF" d="M47.486,5.282c-9.954,0-18.379,6.493-21.304,15.469c-5.597,1.244-10.16,5.196-12.253,10.42
		C6.362,31.428,0.303,37.626,0.303,45.254c0,7.618,6.039,13.805,13.586,14.085v0.025h33.86V5.295
		C47.661,5.291,47.575,5.282,47.486,5.282z"/>
	<path fill="#F2F4F9" d="M69.717,24.946C68.368,13.954,59.075,5.424,47.749,5.295v54.068H69.09v-0.039
		c9.172-0.398,16.488-7.937,16.488-17.205C85.578,33.063,78.59,25.652,69.717,24.946z"/>
	<g>
		<g>
			<path fill="#00E1FF" d="M43.828,48.813c0,0.534-0.438,0.97-0.969,0.97H11.585c-0.533,0-0.969-0.436-0.969-0.97v-2.101
				c0-0.534,0.436-0.971,0.969-0.971h31.274c0.531,0,0.969,0.437,0.969,0.971V48.813z"/>
		</g>
		<g>
			<path fill="#00E1FF" d="M43.828,72.002c0,0.533-0.438,0.971-0.969,0.971H11.585c-0.533,0-0.969-0.438-0.969-0.971v-2.098
				c0-0.533,0.436-0.974,0.969-0.974h31.274c0.531,0,0.969,0.442,0.969,0.974V72.002z"/>
		</g>
		<g>
			<path fill="#00E1FF" d="M49.646,60.287c0,0.533-0.436,0.966-0.971,0.966H28.151c-0.533,0-0.969-0.433-0.969-0.966v-2.102
				c0-0.532,0.436-0.969,0.969-0.969h20.525c0.535,0,0.971,0.437,0.971,0.969V60.287z"/>
		</g>
		<g>
			<path fill="#98D24D" d="M66.954,34.299c-2.02,0.214-3.306,1.227-3.306,1.227s0,0-0.142-0.326
				c-0.544,0.143-1.736,0.603-1.736,0.603s0,0,0.013-0.477c-0.792,0.235-2.023,1.834-2.375,1.834
				c-0.888-1.559-1.544-1.67-1.544-1.67s0,0-0.217,1.274c-1.695-3.252-3.661-4.163-3.667-4.194
				c-0.394,1.059-0.338,4.167-0.338,4.167s0,0-0.647-0.395c-0.382,1.04,0.028,2.901,0.028,2.901s-0.745-0.283-1.569-0.435
				c-0.14,0.986,0.177,1.469,0.466,2.2c-0.179-0.029-0.183-0.069-1.449-0.109c-1.687-0.071-2.665,1.015-2.665,1.015s0,0,0.31,0.825
				c0.904,2.618,2.752,2.845,2.752,2.845s0,0-1.182,0.061c0.763,1.657,2.647,1.558,2.647,1.558s0,0-0.922,0.291
				c1.16,1.468,2.888,1.43,2.888,1.43s0,0-0.522,0.362c0.396,0.379,1.429,0.342,2.065,0.331l12.246-15.416
				C68.087,34.199,68.087,34.199,66.954,34.299z"/>
			<path fill="#83BA36" d="M65.781,52.9c-0.339-1.219-0.377-1.215-0.45-1.381c0.779,0.103,1.326,0.298,2.249-0.072
				c-0.342-0.764-0.793-1.421-0.793-1.421s1.901-0.048,2.82-0.666c-0.536-0.535-0.536-0.535-0.536-0.535s3.032-0.682,3.966-1.32
				c-0.031,0.004-1.384-1.689-4.948-2.561c1.188-0.514,1.188-0.514,1.188-0.514s-0.264-0.61-1.99-1.101
				c-0.088-0.342,1.177-1.918,1.215-2.745c-0.46,0.127-0.46,0.127-0.46,0.127s0.164-1.269,0.173-1.831
				c-0.35-0.058-0.35-0.058-0.35-0.058s0.677-1.49,0.405-3.504c-0.173-1.122-0.173-1.122-0.173-1.122l-0.27,0.336l0.261-0.333
				L55.841,49.615c-0.151,0.142-1.041,0.664-3.47,1.768c-2.427,1.102-3.452,0.911-3.808,0.972c-0.356,0.067-0.239,0.417-0.239,0.417
				s0.002,0.396,0.496,0.371c0.491-0.027,2.314-0.23,4.795-1.651c0.928-0.531,1.866-0.911,2.508-1.363
				c0.146,0.6,0.361,1.325,0.728,1.556c0.226-0.592,0.226-0.592,0.226-0.592s0.372,1.688,2.076,2.464
				c0.066-0.964,0.066-0.964,0.066-0.964s0.352,1.854,2.141,2.202C61.14,53.63,61.14,53.63,61.14,53.63s0.658,1.74,3.419,1.995
				c0.874,0.103,0.874,0.103,0.874,0.103S66.256,54.522,65.781,52.9z"/>
		</g>
		<g>
			<path fill="#83BA36" d="M51.461,71.44c-0.128,5.805,6.253,6.874,6.933,7.017c2.143,0.332,11.226,1.467,12.057,1.69
				c0,0-7.248-7.893-18.073-12.231C51.514,69.718,51.485,70.842,51.461,71.44z"/>
			<path fill="#98D24D" d="M45.242,66.482c3.461-0.351,6.866,1.335,7.137,1.433c10.824,4.339,18.073,12.231,18.073,12.231
				c-0.502-0.985-0.679-2.215-0.987-4.496c-0.604-4.331-2.381-6.695-2.998-7.433c-6.712-6.78-13.139-1.23-13.924-0.686
				c-4.522-1.919-7.511-1.431-7.511-1.431s-0.199,0.007-0.16,0.19C44.917,66.5,45.069,66.493,45.242,66.482z"/>
		</g>
	</g>
	<path opacity="0.2" fill="#122C3D" d="M68.1,34.211c0.005,0.041,0.034,0.227,0.169,1.107c0.272,2.014-0.405,3.504-0.405,3.504
		s0,0,0.35,0.058c-0.009,0.562-0.173,1.831-0.173,1.831s0,0,0.46-0.127c-0.038,0.826-1.303,2.403-1.215,2.745
		c1.726,0.491,1.99,1.101,1.99,1.101s0,0-1.188,0.514c3.563,0.872,4.917,2.565,4.948,2.561c-0.934,0.638-3.966,1.32-3.966,1.32
		s0,0,0.536,0.535c-0.92,0.618-2.82,0.666-2.82,0.666s0.451,0.657,0.793,1.421c-0.923,0.369-1.47,0.175-2.249,0.072
		c0.073,0.166,0.112,0.162,0.45,1.381c0.475,1.622-0.348,2.828-0.348,2.828s0,0-0.874-0.103c-2.76-0.255-3.419-1.995-3.419-1.995
		s0,0,0.222,1.163c-1.79-0.348-2.141-2.202-2.141-2.202s0,0-0.066,0.964c-1.704-0.776-2.076-2.464-2.076-2.464s0,0-0.226,0.592
		c-0.367-0.231-0.582-0.956-0.728-1.556c-0.642,0.452-1.58,0.832-2.508,1.363c-2.481,1.421-4.304,1.624-4.795,1.651
		c-0.494,0.025-0.496-0.371-0.496-0.371s-0.117-0.35,0.239-0.417c0.177-0.031,0.522,0.001,1.124-0.095l-5.964-5.963
		c0.062,0.127,0.104,0.265,0.104,0.416v2.101c0,0.534-0.438,0.97-0.969,0.97H11.585c-0.223,0-0.418-0.089-0.582-0.216l9.797,9.796
		h6.382v-1.178c0-0.532,0.436-0.969,0.969-0.969h20.525c0.535,0,0.971,0.437,0.971,0.969v1.178H69.09v-0.039
		c6.419-0.278,11.917-4.06,14.647-9.477L68.1,34.211z M68.087,34.199l-0.261,0.333l0.264-0.329L68.087,34.199z"/>
</g>
</svg>
