<?xml version="1.0" encoding="utf-8"?>
<!-- Generator: Adobe Illustrator 17.0.0, SVG Export Plug-In . SVG Version: 6.00 Build 0)  -->
<!DOCTYPE svg PUBLIC "-//W3C//DTD SVG 1.1//EN" "http://www.w3.org/Graphics/SVG/1.1/DTD/svg11.dtd">
<svg version="1.1" id="Calque_1" xmlns="http://www.w3.org/2000/svg" xmlns:xlink="http://www.w3.org/1999/xlink" x="0px" y="0px"
	 width="85.68px" height="85.68px" viewBox="0 0 85.68 85.68" enable-background="new 0 0 85.68 85.68" xml:space="preserve">
<g>
	<g>
		<circle fill="#C6C5A3" cx="50.688" cy="31.429" r="31.175"/>
		<path fill="#D1D1B0" d="M50.689,0.253c-6.164,0-11.904,1.796-16.741,4.881c-3.086,4.837-4.881,10.577-4.881,16.74
			c0,17.218,13.958,31.174,31.176,31.174c6.162,0,11.902-1.795,16.741-4.879c3.084-4.838,4.879-10.577,4.879-16.742
			C81.863,14.21,67.907,0.253,50.689,0.253z"/>
		<g>
			<circle fill="#B7B284" cx="30.581" cy="27.584" r="5.844"/>
			<path fill="#C1BE99" d="M30.582,21.74c-1.156,0-2.231,0.336-3.14,0.915c-0.575,0.907-0.913,1.982-0.913,3.137
				c0,3.229,2.613,5.844,5.845,5.844c1.155,0,2.23-0.335,3.137-0.914c0.579-0.907,0.915-1.982,0.915-3.137
				C36.425,24.356,33.809,21.74,30.582,21.74z"/>
		</g>
		<g>
			<circle fill="#B7B284" cx="52.109" cy="30.099" r="8.191"/>
			<path fill="#C1BE99" d="M52.109,21.907c-1.619,0-3.126,0.473-4.396,1.283c-0.81,1.27-1.283,2.778-1.283,4.396
				c0,4.524,3.668,8.19,8.19,8.19c1.62,0,3.126-0.471,4.397-1.281c0.811-1.272,1.283-2.779,1.283-4.397
				C60.3,25.574,56.631,21.907,52.109,21.907z"/>
		</g>
		<g>
			<circle fill="#B7B284" cx="37.705" cy="47.601" r="3.422"/>
			<path fill="#C1BE99" d="M37.705,44.179c-0.677,0-1.308,0.197-1.839,0.536c-0.338,0.53-0.535,1.161-0.535,1.838
				c0,1.892,1.531,3.422,3.423,3.422c0.674,0,1.304-0.197,1.837-0.535c0.338-0.533,0.535-1.162,0.535-1.84
				C41.127,45.712,39.594,44.179,37.705,44.179z"/>
		</g>
		<g>
			<circle fill="#B7B284" cx="65.316" cy="13.442" r="4.197"/>
			<path fill="#C1BE99" d="M65.316,9.245c-0.831,0-1.602,0.241-2.253,0.657c-0.417,0.651-0.657,1.424-0.657,2.255
				c0,2.316,1.88,4.196,4.196,4.196c0.832,0,1.602-0.24,2.255-0.657c0.416-0.651,0.657-1.423,0.657-2.253
				C69.513,11.125,67.636,9.245,65.316,9.245z"/>
		</g>
		<g>
			<circle fill="#B7B284" cx="42.011" cy="8.618" r="2.39"/>
			<path fill="#C1BE99" d="M42.012,6.228c-0.474,0-0.912,0.138-1.282,0.374c-0.237,0.373-0.374,0.811-0.374,1.285
				c0,1.319,1.068,2.39,2.388,2.39c0.473,0,0.913-0.138,1.284-0.375c0.237-0.37,0.373-0.81,0.373-1.283
				C44.401,7.298,43.331,6.228,42.012,6.228z"/>
		</g>
		<g>
			<path fill="#B7B284" d="M77.755,34.631c0,2.408-1.952,4.364-4.359,4.364c-2.41,0-4.361-1.957-4.361-4.364
				c0-2.405,1.951-4.358,4.361-4.358C75.803,30.273,77.755,32.226,77.755,34.631z"/>
			<path fill="#C1BE99" d="M73.396,30.273c-0.864,0-1.666,0.248-2.343,0.685c-0.432,0.674-0.679,1.474-0.679,2.339
				c0,2.408,1.951,4.359,4.357,4.359c0.861,0,1.664-0.25,2.34-0.68c0.436-0.678,0.683-1.48,0.683-2.344
				C77.755,32.226,75.803,30.273,73.396,30.273z"/>
		</g>
		<g>
			<circle fill="#B7B284" cx="60.042" cy="52.519" r="3.758"/>
			<path fill="#C1BE99" d="M60.042,48.761c-0.744,0-1.435,0.218-2.019,0.589c-0.373,0.583-0.587,1.276-0.587,2.018
				c0,2.075,1.682,3.757,3.757,3.757c0.742,0,1.435-0.216,2.017-0.587c0.372-0.584,0.589-1.277,0.589-2.019
				C63.8,50.444,62.117,48.761,60.042,48.761z"/>
		</g>
	</g>
	<g>
		<path fill="#FFFFFF" d="M46.6,17.552c-8.998,0-16.615,5.87-19.261,13.985c-5.06,1.125-9.186,4.698-11.077,9.42
			c-6.842,0.232-12.32,5.835-12.32,12.731c0,6.885,5.46,12.481,12.283,12.731v0.023h30.611V17.563
			C46.757,17.56,46.679,17.552,46.6,17.552z"/>
		<path fill="#F2F4F9" d="M66.696,35.329c-1.217-9.938-9.62-17.648-19.86-17.766v48.879h19.295v-0.036
			c8.29-0.359,14.904-7.173,14.904-15.552C81.036,42.667,74.718,35.967,66.696,35.329z"/>
		<g>
			<g>
				<path fill="#00E1FF" d="M43.291,56.906c0,0.482-0.396,0.877-0.876,0.877H14.143c-0.482,0-0.876-0.394-0.876-0.877v-1.899
					c0-0.482,0.394-0.877,0.876-0.877h28.273c0.48,0,0.876,0.395,0.876,0.877V56.906z"/>
			</g>
			<g>
				<path fill="#00E1FF" d="M43.291,77.869c0,0.481-0.396,0.877-0.876,0.877H14.143c-0.482,0-0.876-0.396-0.876-0.877v-1.897
					c0-0.481,0.394-0.881,0.876-0.881h28.273c0.48,0,0.876,0.399,0.876,0.881V77.869z"/>
			</g>
			<g>
				<path fill="#00E1FF" d="M48.553,67.277c0,0.481-0.396,0.874-0.877,0.874H29.119c-0.482,0-0.876-0.393-0.876-0.874v-1.9
					c0-0.48,0.394-0.874,0.876-0.874h18.557c0.481,0,0.877,0.394,0.877,0.874V67.277z"/>
			</g>
			<g>
				<path fill="#98D24D" d="M64.199,43.784c-1.825,0.193-2.989,1.109-2.989,1.109s0,0-0.13-0.295
					c-0.491,0.129-1.567,0.546-1.567,0.546s0,0,0.01-0.431c-0.716,0.213-1.829,1.658-2.148,1.658c-0.801-1.41-1.395-1.51-1.395-1.51
					s0,0-0.195,1.151c-1.534-2.94-3.312-3.764-3.317-3.79c-0.355,0.956-0.306,3.766-0.306,3.766s0,0-0.584-0.357
					c-0.346,0.941,0.022,2.623,0.022,2.623s-0.672-0.256-1.418-0.394c-0.125,0.892,0.161,1.328,0.422,1.989
					c-0.163-0.027-0.166-0.062-1.309-0.099c-1.528-0.064-2.412,0.917-2.412,0.917s0,0,0.281,0.746
					c0.817,2.367,2.487,2.572,2.487,2.572s0,0-1.068,0.055c0.689,1.498,2.395,1.409,2.395,1.409s0,0-0.835,0.263
					c1.049,1.327,2.611,1.293,2.611,1.293s0,0-0.472,0.328c0.358,0.342,1.292,0.308,1.869,0.298l11.069-13.937
					C65.224,43.693,65.224,43.693,64.199,43.784z"/>
				<path fill="#83BA36" d="M63.14,60.6c-0.307-1.102-0.343-1.098-0.408-1.249c0.706,0.095,1.2,0.269,2.033-0.064
					c-0.308-0.691-0.717-1.284-0.717-1.284s1.718-0.043,2.549-0.602c-0.485-0.484-0.485-0.484-0.485-0.484s2.741-0.617,3.586-1.194
					c-0.027,0.003-1.25-1.526-4.473-2.315c1.075-0.465,1.075-0.465,1.075-0.465s-0.242-0.551-1.802-0.995
					c-0.079-0.309,1.063-1.733,1.098-2.482c-0.415,0.115-0.415,0.115-0.415,0.115s0.148-1.147,0.158-1.655
					c-0.316-0.052-0.316-0.052-0.316-0.052s0.61-1.347,0.364-3.168c-0.157-1.014-0.157-1.014-0.157-1.014l-0.244,0.304l0.237-0.301
					L54.154,57.63c-0.139,0.129-0.943,0.6-3.137,1.597c-2.193,0.996-3.122,0.824-3.443,0.879c-0.32,0.061-0.215,0.378-0.215,0.378
					s0,0.356,0.447,0.335c0.444-0.024,2.093-0.208,4.334-1.493c0.84-0.479,1.688-0.823,2.268-1.231
					c0.132,0.542,0.327,1.197,0.66,1.406c0.204-0.535,0.204-0.535,0.204-0.535s0.336,1.525,1.877,2.227
					c0.058-0.873,0.058-0.873,0.058-0.873s0.318,1.678,1.936,1.992c-0.201-1.052-0.201-1.052-0.201-1.052s0.595,1.573,3.092,1.804
					c0.788,0.093,0.788,0.093,0.788,0.093S63.566,62.066,63.14,60.6z"/>
			</g>
			<g>
				<path fill="#83BA36" d="M50.193,77.361c-0.115,5.248,5.652,6.215,6.268,6.343c1.939,0.3,10.15,1.326,10.902,1.528
					c0,0-6.554-7.135-16.338-11.057C50.242,75.803,50.216,76.819,50.193,77.361z"/>
				<path fill="#98D24D" d="M44.57,72.878c3.129-0.317,6.206,1.207,6.454,1.297c9.784,3.922,16.338,11.057,16.338,11.057
					c-0.455-0.891-0.613-2.002-0.893-4.065c-0.546-3.915-2.153-6.053-2.711-6.719c-6.068-6.129-11.877-1.112-12.586-0.62
					c-4.09-1.735-6.792-1.293-6.792-1.293s-0.178,0.006-0.144,0.171C44.278,72.894,44.413,72.888,44.57,72.878z"/>
			</g>
		</g>
		<path opacity="0.2" fill="#122C3D" d="M65.234,43.704c0.005,0.037,0.032,0.205,0.154,1.001c0.246,1.821-0.364,3.168-0.364,3.168
			s0,0,0.316,0.052c-0.01,0.508-0.158,1.655-0.158,1.655s0,0,0.415-0.115c-0.035,0.749-1.177,2.173-1.098,2.482
			c1.56,0.444,1.802,0.995,1.802,0.995s0,0-1.075,0.465c3.223,0.789,4.446,2.319,4.473,2.315c-0.845,0.577-3.586,1.194-3.586,1.194
			s0,0,0.485,0.484c-0.831,0.559-2.549,0.602-2.549,0.602s0.409,0.594,0.717,1.284c-0.833,0.333-1.327,0.159-2.033,0.064
			c0.066,0.15,0.101,0.147,0.408,1.249c0.427,1.466-0.317,2.557-0.317,2.557s0,0-0.788-0.093c-2.497-0.231-3.092-1.804-3.092-1.804
			s0,0,0.201,1.052c-1.618-0.315-1.936-1.992-1.936-1.992s0,0-0.058,0.873c-1.541-0.701-1.877-2.227-1.877-2.227s0,0-0.204,0.535
			c-0.333-0.209-0.528-0.864-0.66-1.406c-0.58,0.408-1.428,0.752-2.268,1.231c-2.241,1.285-3.89,1.469-4.334,1.493
			c-0.447,0.022-0.447-0.335-0.447-0.335s-0.105-0.316,0.215-0.378c0.162-0.028,0.472,0.002,1.016-0.086l-5.39-5.391
			c0.055,0.115,0.092,0.24,0.092,0.376v1.899c0,0.482-0.396,0.877-0.876,0.877H14.143c-0.202,0-0.378-0.08-0.526-0.195l8.857,8.855
			h5.77v-1.066c0-0.48,0.394-0.874,0.876-0.874h18.557c0.481,0,0.877,0.394,0.877,0.874v1.066h17.579v-0.036
			c5.801-0.251,10.772-3.669,13.239-8.566L65.234,43.704z M65.224,43.693l-0.237,0.301l0.242-0.297L65.224,43.693z"/>
	</g>
</g>
</svg>
