<?xml version="1.0" encoding="utf-8"?>
<!-- Generator: Adobe Illustrator 17.0.0, SVG Export Plug-In . SVG Version: 6.00 Build 0)  -->
<!DOCTYPE svg PUBLIC "-//W3C//DTD SVG 1.1//EN" "http://www.w3.org/Graphics/SVG/1.1/DTD/svg11.dtd">
<svg version="1.1" id="Calque_1" xmlns="http://www.w3.org/2000/svg" xmlns:xlink="http://www.w3.org/1999/xlink" x="0px" y="0px"
	 width="85.68px" height="85.68px" viewBox="0 0 85.68 85.68" enable-background="new 0 0 85.68 85.68" xml:space="preserve">
<g>
	<g>
		<path fill="#FFFFFF" d="M47.43,4.405c-9.917,0-18.31,6.468-21.222,15.409c-5.576,1.239-10.121,5.175-12.206,10.378
			c-7.538,0.256-13.574,6.43-13.574,14.028c0,7.589,6.015,13.752,13.534,14.03v0.026H47.69V4.418
			C47.603,4.414,47.518,4.405,47.43,4.405z"/>
		<path fill="#F2F4F9" d="M69.573,23.992C68.232,13.043,58.974,4.547,47.69,4.418v53.859h21.262v-0.04
			c9.133-0.396,16.421-7.905,16.421-17.137C85.373,32.077,78.412,24.695,69.573,23.992z"/>
	</g>
	<g>
		<path fill="#00E1FF" d="M29.304,47.503L15.73,51.149l-1.151,0.309c-1.346,0.441-2.615,1.19-3.685,2.26
			c-3.656,3.656-3.658,9.583,0,13.241l19.308-19.307C30.011,47.463,29.698,47.398,29.304,47.503z"/>
		<path fill="#00C6F4" d="M26.394,63.278l0.311-1.161l3.645-13.571c0.106-0.389,0.04-0.705-0.148-0.895L10.894,66.959
			c3.654,3.652,9.583,3.652,13.24,0C25.202,65.891,25.949,64.626,26.394,63.278z"/>
	</g>
	<g>
		<path fill="#00E1FF" d="M72.506,50.313l-13.573,3.645l-1.152,0.309c-1.348,0.444-2.617,1.192-3.685,2.261
			c-3.657,3.655-3.657,9.583,0,13.24l19.307-19.306C73.215,50.273,72.902,50.208,72.506,50.313z"/>
		<path fill="#00C6F4" d="M69.598,66.09l0.309-1.164l3.645-13.567c0.105-0.394,0.04-0.709-0.149-0.897L54.096,69.768
			c3.656,3.657,9.584,3.657,13.241,0C68.406,68.7,69.151,67.435,69.598,66.09z"/>
	</g>
	<path opacity="0.2" fill="#122C3D" d="M30.35,48.547l-2.612,9.73h13.088L30.202,47.652C30.391,47.841,30.456,48.158,30.35,48.547z"
		/>
	<path opacity="0.2" fill="#122C3D" d="M73.553,51.359l-1.748,6.503c2.29-0.491,4.416-1.429,6.266-2.73l-4.667-4.671
		C73.593,50.65,73.658,50.965,73.553,51.359z"/>
	<g>
		<path fill="#83BA36" d="M43.036,73.405c0.127,5.783-6.229,6.848-6.906,6.989c-2.137,0.331-11.183,1.461-12.012,1.683
			c0,0,7.222-7.862,18.003-12.184C42.982,71.689,43.01,72.809,43.036,73.405z"/>
		<path fill="#98D24D" d="M49.229,68.466c-3.446-0.349-6.837,1.33-7.109,1.428c-10.781,4.322-18.003,12.184-18.003,12.184
			c0.501-0.981,0.676-2.206,0.985-4.478c0.599-4.314,2.369-6.669,2.984-7.404c6.688-6.753,13.089-1.225,13.87-0.683
			c4.507-1.912,7.484-1.424,7.484-1.424s0.196,0.007,0.159,0.188C49.553,68.484,49.404,68.476,49.229,68.466z"/>
	</g>
</g>
</svg>
