<?xml version="1.0" encoding="utf-8"?>
<!-- Generator: Adobe Illustrator 17.0.0, SVG Export Plug-In . SVG Version: 6.00 Build 0)  -->
<!DOCTYPE svg PUBLIC "-//W3C//DTD SVG 1.1//EN" "http://www.w3.org/Graphics/SVG/1.1/DTD/svg11.dtd">
<svg version="1.1" id="Calque_1" xmlns="http://www.w3.org/2000/svg" xmlns:xlink="http://www.w3.org/1999/xlink" x="0px" y="0px"
	 width="85.68px" height="85.68px" viewBox="0 0 85.68 85.68" enable-background="new 0 0 85.68 85.68" xml:space="preserve">
<g>
	<g>
		<circle fill="#C6C5A3" cx="48.913" cy="32.262" r="31.955"/>
		<path fill="#D1D1B0" d="M48.913,0.307c-6.317,0-12.201,1.841-17.16,5.004c-3.163,4.957-5.002,10.84-5.002,17.158
			c0,17.648,14.306,31.954,31.956,31.954c6.316,0,12.199-1.84,17.159-5.001c3.161-4.96,5.001-10.842,5.001-17.16
			C80.868,14.612,66.56,0.307,48.913,0.307z"/>
		<g>
			<circle fill="#B7B284" cx="28.302" cy="28.32" r="5.991"/>
			<path fill="#C1BE99" d="M28.303,22.33c-1.185,0-2.287,0.345-3.219,0.938c-0.59,0.93-0.936,2.032-0.936,3.216
				c0,3.31,2.68,5.99,5.991,5.99c1.184,0,2.286-0.343,3.216-0.938c0.593-0.928,0.938-2.032,0.938-3.216
				C34.293,25.013,31.612,22.33,28.303,22.33z"/>
		</g>
		<g>
			<circle fill="#B7B284" cx="50.368" cy="30.898" r="8.395"/>
			<path fill="#C1BE99" d="M50.369,22.501c-1.659,0-3.205,0.485-4.508,1.316c-0.829,1.302-1.314,2.847-1.314,4.507
				c0,4.635,3.759,8.395,8.395,8.395c1.659,0,3.205-0.483,4.507-1.314c0.832-1.303,1.314-2.848,1.314-4.507
				C58.763,26.261,55.004,22.501,50.369,22.501z"/>
		</g>
		<g>
			<circle fill="#B7B284" cx="35.605" cy="48.839" r="3.508"/>
			<path fill="#C1BE99" d="M35.605,45.331c-0.694,0-1.341,0.203-1.885,0.55c-0.346,0.544-0.548,1.19-0.548,1.885
				c0,1.938,1.569,3.506,3.508,3.506c0.691,0,1.337-0.201,1.883-0.547c0.346-0.546,0.549-1.19,0.549-1.886
				C39.112,46.904,37.541,45.331,35.605,45.331z"/>
		</g>
		<g>
			<path fill="#B7B284" d="M68.208,13.825c0,2.377-1.924,4.302-4.301,4.302c-2.377,0-4.303-1.925-4.303-4.302
				c0-2.373,1.927-4.301,4.303-4.301C66.284,9.524,68.208,11.451,68.208,13.825z"/>
			<path fill="#C1BE99" d="M63.908,9.524c-0.852,0-1.643,0.247-2.309,0.672c-0.428,0.666-0.675,1.459-0.675,2.311
				c0,2.374,1.927,4.3,4.301,4.3c0.853,0,1.642-0.245,2.311-0.673c0.426-0.666,0.673-1.457,0.673-2.309
				C68.208,11.451,66.284,9.524,63.908,9.524z"/>
		</g>
		<g>
			<circle fill="#B7B284" cx="40.019" cy="8.881" r="2.449"/>
			<path fill="#C1BE99" d="M40.02,6.43c-0.485,0-0.935,0.142-1.314,0.384c-0.243,0.382-0.385,0.831-0.385,1.317
				c0,1.352,1.095,2.45,2.45,2.45c0.485,0,0.934-0.14,1.317-0.385c0.242-0.379,0.381-0.831,0.381-1.315
				C42.468,7.527,41.37,6.43,40.02,6.43z"/>
		</g>
		<g>
			<path fill="#B7B284" d="M76.656,35.545c0,2.467-2,4.472-4.468,4.472c-2.469,0-4.47-2.005-4.47-4.472
				c0-2.466,2.001-4.468,4.47-4.468C74.657,31.077,76.656,33.079,76.656,35.545z"/>
			<path fill="#C1BE99" d="M72.188,31.077c-0.886,0-1.709,0.255-2.4,0.702c-0.443,0.689-0.697,1.511-0.697,2.397
				c0,2.469,2,4.468,4.467,4.468c0.882,0,1.705-0.255,2.398-0.698c0.447-0.694,0.7-1.517,0.7-2.401
				C76.656,33.079,74.657,31.077,72.188,31.077z"/>
		</g>
		<g>
			<circle fill="#B7B284" cx="58.5" cy="53.879" r="3.852"/>
			<path fill="#C1BE99" d="M58.499,50.027c-0.761,0-1.47,0.223-2.068,0.603c-0.382,0.597-0.603,1.307-0.603,2.068
				c0,2.127,1.724,3.851,3.853,3.851c0.761,0,1.469-0.22,2.068-0.602c0.381-0.598,0.603-1.309,0.603-2.069
				C62.352,51.752,60.627,50.027,58.499,50.027z"/>
		</g>
	</g>
	<g>
		<path fill="#FFFFFF" d="M45.996,17.309c-9.224,0-17.031,6.017-19.743,14.335c-5.186,1.153-9.415,4.815-11.354,9.655
			C7.888,41.538,2.273,47.28,2.273,54.348c0,7.06,5.594,12.793,12.59,13.052v0.024h31.375V17.321
			C46.156,17.318,46.077,17.309,45.996,17.309z"/>
		<path fill="#F2F4F9" d="M66.596,35.53c-1.249-10.186-9.861-18.089-20.359-18.209v50.103h19.778v-0.037
			c8.499-0.369,15.278-7.354,15.278-15.942C81.294,43.052,74.819,36.184,66.596,35.53z"/>
		<g>
			<path fill="#00E1FF" d="M31.767,74.142l-3.04-1.755l2.644-0.708c0.142-0.037,0.229-0.185,0.19-0.327l-0.426-1.592
				c-0.037-0.142-0.186-0.227-0.328-0.19l-4.752,1.275l-3.879-2.24l3.879-2.241l4.752,1.275c0.141,0.037,0.291-0.047,0.328-0.189
				l0.426-1.593c0.039-0.142-0.048-0.287-0.19-0.328l-2.644-0.707l3.04-1.755c0.127-0.074,0.171-0.237,0.097-0.365l-0.824-1.427
				c-0.075-0.129-0.238-0.173-0.366-0.098l-3.038,1.753l0.709-2.642c0.038-0.144-0.048-0.291-0.19-0.329l-1.59-0.425
				c-0.142-0.041-0.291,0.045-0.328,0.187l-1.275,4.754l-3.877,2.239v-4.274l3.477-3.479c0.106-0.103,0.106-0.274,0-0.377
				l-1.164-1.167c-0.104-0.103-0.274-0.103-0.378,0l-1.935,1.938v-3.714c0-0.147-0.123-0.267-0.269-0.267h-1.649
				c-0.145,0-0.266,0.12-0.266,0.267v3.714l-1.936-1.938c-0.104-0.103-0.274-0.103-0.377,0l-1.165,1.167
				c-0.105,0.103-0.105,0.274,0,0.377l3.478,3.479v4.274l-3.699-2.138l-1.273-4.752c-0.039-0.141-0.186-0.228-0.328-0.189
				l-1.593,0.428c-0.141,0.037-0.226,0.184-0.189,0.326l0.71,2.644l-3.217-1.856c-0.127-0.075-0.291-0.031-0.364,0.098l-0.825,1.427
				c-0.072,0.128-0.031,0.291,0.098,0.365l3.216,1.857l-2.644,0.708c-0.142,0.039-0.226,0.186-0.19,0.328l0.426,1.591
				c0.039,0.142,0.186,0.228,0.328,0.189l4.752-1.273l3.701,2.138l-3.701,2.137l-4.752-1.275c-0.143-0.039-0.289,0.048-0.327,0.19
				L8.604,71.25c-0.037,0.142,0.048,0.289,0.19,0.327l2.644,0.71l-3.216,1.856c-0.129,0.073-0.17,0.237-0.098,0.366l0.825,1.426
				c0.073,0.129,0.237,0.173,0.364,0.099l3.217-1.857l-0.71,2.645c-0.037,0.141,0.048,0.289,0.189,0.326l1.593,0.428
				c0.142,0.037,0.289-0.048,0.328-0.19l1.273-4.752l3.699-2.137v4.478l-3.478,3.479c-0.105,0.103-0.105,0.274,0,0.377l1.165,1.165
				c0.103,0.105,0.273,0.105,0.377,0l1.936-1.934v3.508c0,0.147,0.122,0.267,0.266,0.267h1.649c0.146,0,0.269-0.12,0.269-0.267
				v-3.508l1.935,1.934c0.104,0.105,0.274,0.105,0.378,0l1.164-1.165c0.106-0.103,0.106-0.274,0-0.377l-3.477-3.479v-4.478
				l3.877,2.24l1.275,4.75c0.037,0.142,0.186,0.228,0.328,0.19l1.59-0.426c0.142-0.037,0.228-0.186,0.19-0.328l-0.709-2.644
				l3.038,1.755c0.128,0.074,0.291,0.031,0.366-0.099l0.824-1.426C31.938,74.379,31.894,74.215,31.767,74.142z"/>
			<path opacity="0.2" fill="#122C3D" d="M26.115,60.175l-1.496-1.497l-0.024-0.014c0.049,0.1,0.051,0.216-0.032,0.299l-3.477,3.479
				v4.274l3.877-2.239L26.115,60.175z M12.126,67.001c0.881,0.224,1.794,0.366,2.737,0.399v0.024h0.901l-1.653-0.956L12.126,67.001z
				 M15.203,64.578l3.699,2.138v-1.881l-4.958-4.958L15.203,64.578z M21.086,59.356l1.875-1.876l-1.902-1.904
				c0.007,0.024,0.027,0.04,0.027,0.066V59.356z M37.188,67.424l-6.147-6.147l0.824,1.427c0.074,0.128,0.03,0.291-0.097,0.365
				l-3.04,1.755l2.644,0.707c0.142,0.041,0.229,0.186,0.19,0.328l-0.42,1.566H37.188z M29.879,61.638l-1.581-1.58l-0.011,0.003
				c0.05,0.062,0.083,0.142,0.059,0.228l-0.709,2.642L29.879,61.638z M24.222,67.424h5.782l-3.949-1.059L24.222,67.424z"/>
		</g>
		<path fill="#00E1FF" d="M72.306,74.142l-3.04-1.755l2.644-0.708c0.142-0.037,0.228-0.185,0.19-0.327l-0.426-1.592
			c-0.037-0.142-0.186-0.227-0.328-0.19l-4.752,1.275l-3.878-2.24l3.878-2.241l4.752,1.275c0.143,0.037,0.291-0.047,0.328-0.189
			l0.426-1.593c0.038-0.142-0.048-0.287-0.19-0.328l-2.644-0.707l3.04-1.755c0.127-0.074,0.171-0.237,0.096-0.365l-0.823-1.427
			c-0.074-0.129-0.239-0.173-0.365-0.098l-3.038,1.753l0.708-2.642c0.039-0.144-0.048-0.291-0.189-0.329l-1.591-0.425
			c-0.142-0.041-0.291,0.045-0.328,0.187l-1.275,4.754l-3.877,2.239v-4.274l3.479-3.479c0.104-0.103,0.104-0.274,0-0.377
			l-1.166-1.167c-0.102-0.103-0.273-0.103-0.376,0l-1.937,1.938v-3.714c0-0.147-0.121-0.267-0.268-0.267h-1.648
			c-0.146,0-0.267,0.12-0.267,0.267v3.714l-1.936-1.938c-0.103-0.103-0.274-0.103-0.377,0l-1.165,1.167
			c-0.105,0.103-0.105,0.274,0,0.377l3.478,3.479v4.274l-3.7-2.138l-1.273-4.752c-0.038-0.141-0.186-0.228-0.328-0.189l-1.592,0.428
			c-0.142,0.037-0.226,0.184-0.19,0.326l0.711,2.644l-3.217-1.856c-0.127-0.075-0.291-0.031-0.363,0.098l-0.825,1.427
			c-0.073,0.128-0.031,0.291,0.098,0.365l3.216,1.857l-2.644,0.708c-0.142,0.039-0.227,0.186-0.19,0.328l0.426,1.591
			c0.038,0.142,0.186,0.228,0.328,0.189l4.752-1.273l3.701,2.138l-3.701,2.137l-4.752-1.275c-0.141-0.039-0.289,0.048-0.326,0.19
			l-0.428,1.592c-0.037,0.142,0.048,0.289,0.19,0.327l2.644,0.71l-3.216,1.856c-0.129,0.073-0.171,0.237-0.098,0.366l0.825,1.426
			c0.072,0.129,0.237,0.173,0.363,0.099l3.217-1.857l-0.711,2.645c-0.037,0.141,0.048,0.289,0.19,0.326l1.592,0.428
			c0.142,0.037,0.289-0.048,0.328-0.19l1.273-4.752l3.7-2.137v4.478l-3.478,3.479c-0.105,0.103-0.105,0.274,0,0.377l1.165,1.165
			c0.103,0.105,0.274,0.105,0.377,0l1.936-1.934v3.508c0,0.147,0.122,0.267,0.267,0.267h1.648c0.147,0,0.268-0.12,0.268-0.267
			v-3.508l1.937,1.934c0.103,0.105,0.274,0.105,0.376,0l1.166-1.165c0.104-0.103,0.104-0.274,0-0.377l-3.479-3.479v-4.478
			l3.877,2.24l1.275,4.75c0.037,0.142,0.186,0.228,0.328,0.19l1.591-0.426c0.141-0.037,0.228-0.186,0.189-0.328l-0.708-2.644
			l3.038,1.755c0.126,0.074,0.291,0.031,0.365-0.099l0.823-1.426C72.477,74.379,72.433,74.215,72.306,74.142z"/>
		<path opacity="0.2" fill="#122C3D" d="M64.761,67.424h1.254v-0.037c0.497-0.021,0.989-0.071,1.475-0.137
			c0.47-0.066,0.935-0.153,1.391-0.257c0.01-0.002,0.02-0.003,0.029-0.005l-2.316-0.622L64.761,67.424z M70.418,61.638l-1.581-1.58
			l-0.012,0.003c0.053,0.064,0.083,0.142,0.06,0.228l-0.708,2.642L70.418,61.638z M66.655,60.175l-1.496-1.497l-0.024-0.014
			c0.026,0.048,0.039,0.094,0.032,0.146c-0.002,0.056-0.02,0.109-0.064,0.152l-3.479,3.479v4.274l3.877-2.239L66.655,60.175z
			 M51.086,67.424h5.217l-1.653-0.956L51.086,67.424z M71.58,61.277l0.823,1.427c0.075,0.128,0.031,0.291-0.096,0.365l-3.04,1.755
			l2.644,0.707c0.142,0.041,0.228,0.186,0.19,0.328l-0.01,0.037c0.456-0.214,0.901-0.448,1.332-0.704
			c0.002,0,0.003-0.003,0.007-0.003c0.428-0.254,0.844-0.525,1.246-0.816L71.58,61.277z M61.625,59.356L63.5,57.48l-1.902-1.904
			c0.007,0.024,0.026,0.04,0.026,0.066V59.356z M55.741,64.578l3.7,2.138v-1.881l-4.959-4.958L55.741,64.578z"/>
		<g>
			<path fill="#00E1FF" d="M50.807,84.438c0,0.494-0.404,0.896-0.899,0.896H30.888c-0.494,0-0.898-0.403-0.898-0.896V82.49
				c0-0.494,0.404-0.898,0.898-0.898h19.019c0.495,0,0.899,0.404,0.899,0.898V84.438z"/>
		</g>
	</g>
</g>
</svg>
