<?xml version="1.0" encoding="utf-8"?>
<!-- Generator: Adobe Illustrator 17.0.0, SVG Export Plug-In . SVG Version: 6.00 Build 0)  -->
<!DOCTYPE svg PUBLIC "-//W3C//DTD SVG 1.1//EN" "http://www.w3.org/Graphics/SVG/1.1/DTD/svg11.dtd">
<svg version="1.1" id="Calque_1" xmlns="http://www.w3.org/2000/svg" xmlns:xlink="http://www.w3.org/1999/xlink" x="0px" y="0px"
	 width="85.68px" height="85.68px" viewBox="0 0 85.68 85.68" enable-background="new 0 0 85.68 85.68" xml:space="preserve">
<g>
	<path fill="#FFFFFF" d="M47.319,8.837c-9.906,0-18.29,6.461-21.199,15.394c-5.57,1.238-10.111,5.17-12.194,10.368
		c-7.531,0.256-13.56,6.424-13.56,14.014c0,7.582,6.009,13.738,13.52,14.016v0.026H47.58V8.85
		C47.493,8.846,47.407,8.837,47.319,8.837z"/>
	<path fill="#F2F4F9" d="M69.442,28.405C68.099,17.466,58.851,8.979,47.58,8.85v53.804h21.237v-0.04
		c9.129-0.396,16.409-7.897,16.409-17.12C85.226,36.482,78.273,29.107,69.442,28.405z"/>
	<g>
		<g>
			<path fill="#00E1FF" d="M41.006,52.302c0,0.531-0.434,0.962-0.964,0.962H8.921c-0.531,0-0.964-0.431-0.964-0.962v-2.091
				c0-0.531,0.433-0.966,0.964-0.966h31.121c0.53,0,0.964,0.435,0.964,0.966V52.302z"/>
		</g>
		<g>
			<path fill="#00E1FF" d="M12.163,73.779c0-0.53,0.436-0.966,0.966-0.966H44.25c0.529,0,0.962,0.436,0.962,0.966v2.088
				c0,0.53-0.433,0.97-0.962,0.97H13.129c-0.53,0-0.966-0.44-0.966-0.97V73.779z"/>
		</g>
		<g>
			<path fill="#00E1FF" d="M64.806,63.845c0,0.531-0.432,0.962-0.966,0.962H43.416c-0.531,0-0.965-0.431-0.965-0.962v-2.091
				c0-0.531,0.434-0.964,0.965-0.964H63.84c0.534,0,0.966,0.433,0.966,0.964V63.845z"/>
		</g>
		<g>
			<path fill="#00E1FF" d="M52.93,73.779c0-0.53,0.432-0.962,0.966-0.962H74.32c0.531,0,0.964,0.432,0.964,0.962v2.092
				c0,0.53-0.433,0.964-0.964,0.964H53.896c-0.534,0-0.966-0.434-0.966-0.964V73.779z"/>
		</g>
		<g>
			<path fill="#00E1FF" d="M18.42,63.878c0,0.512,0.417,0.929,0.929,0.929h12.316c0.51,0,0.929-0.418,0.929-0.929v-2.157
				c0-0.512-0.419-0.929-0.929-0.929H19.349c-0.513,0-0.929,0.418-0.929,0.929V63.878z"/>
		</g>
		<g>
			<path fill="#00E1FF" d="M64.896,52.336c0,0.513,0.418,0.929,0.929,0.929h12.317c0.512,0,0.929-0.417,0.929-0.929v-2.158
				c0-0.512-0.418-0.929-0.929-0.929H65.826c-0.512,0-0.929,0.418-0.929,0.929V52.336z"/>
		</g>
		<g>
			<path fill="#00E1FF" d="M49.326,52.336c0,0.513,0.418,0.929,0.93,0.929h3.485c0.512,0,0.93-0.417,0.93-0.929v-2.158
				c0-0.512-0.419-0.929-0.93-0.929h-3.485c-0.513,0-0.93,0.418-0.93,0.929V52.336z"/>
		</g>
	</g>
	<path opacity="0.2" fill="#122C3D" d="M54.672,50.178v2.158c0,0.513-0.419,0.929-0.93,0.929h-3.485
		c-0.254,0-0.487-0.103-0.654-0.271l7.795,7.795h6.443c0.534,0,0.966,0.433,0.966,0.964v0.9h2.676l-12.979-12.98
		C54.601,49.822,54.672,49.989,54.672,50.178z M41.006,50.211v2.091c0,0.531-0.434,0.962-0.964,0.962H8.921
		c-0.255,0-0.485-0.103-0.657-0.267L8.253,53.01l9.643,9.644h0.524v-0.933c0-0.512,0.417-0.929,0.929-0.929h12.316
		c0.51,0,0.929,0.418,0.929,0.929v0.933h9.856v-0.9c0-0.531,0.434-0.964,0.965-0.964h8.52L40.822,49.676
		C40.93,49.832,41.006,50.009,41.006,50.211z M49.566,52.943l-0.007,0.009l0.037,0.038C49.585,52.977,49.579,52.958,49.566,52.943z
		 M78.927,49.67l-0.026,0.004c0.098,0.147,0.171,0.313,0.171,0.504v2.158c0,0.513-0.418,0.929-0.929,0.929H65.826
		c-0.217,0-0.41-0.087-0.57-0.214l-0.011,0.016l8.571,8.57c3.956-1.403,7.233-4.217,9.247-7.834L78.927,49.67z"/>
</g>
</svg>
