<?xml version="1.0" encoding="utf-8"?>
<!-- Generator: Adobe Illustrator 17.0.0, SVG Export Plug-In . SVG Version: 6.00 Build 0)  -->
<!DOCTYPE svg PUBLIC "-//W3C//DTD SVG 1.1//EN" "http://www.w3.org/Graphics/SVG/1.1/DTD/svg11.dtd">
<svg version="1.1" id="Calque_1" xmlns="http://www.w3.org/2000/svg" xmlns:xlink="http://www.w3.org/1999/xlink" x="0px" y="0px"
	 width="85.68px" height="85.68px" viewBox="0 0 85.68 85.68" enable-background="new 0 0 85.68 85.68" xml:space="preserve">
<g>
	<path fill="#FFFFFF" d="M47.447,16.504c-9.904,0-18.286,6.459-21.196,15.39c-5.569,1.238-10.108,5.17-12.19,10.367
		C6.531,42.517,0.503,48.683,0.503,56.272c0,7.58,6.008,13.735,13.517,14.013v0.026h33.688V16.516
		C47.621,16.512,47.535,16.504,47.447,16.504z"/>
	<path fill="#F2F4F9" d="M69.564,36.067c-1.342-10.936-10.588-19.422-21.856-19.551v53.794h21.233v-0.04
		c9.125-0.396,16.404-7.896,16.404-17.118C85.345,44.143,78.393,36.77,69.564,36.067z"/>
</g>
</svg>
