<?xml version="1.0" encoding="utf-8"?>
<!-- Generator: Adobe Illustrator 17.0.0, SVG Export Plug-In . SVG Version: 6.00 Build 0)  -->
<!DOCTYPE svg PUBLIC "-//W3C//DTD SVG 1.1//EN" "http://www.w3.org/Graphics/SVG/1.1/DTD/svg11.dtd">
<svg version="1.1" id="Calque_1" xmlns="http://www.w3.org/2000/svg" xmlns:xlink="http://www.w3.org/1999/xlink" x="0px" y="0px"
	 width="85.68px" height="85.68px" viewBox="0 0 85.68 85.68" enable-background="new 0 0 85.68 85.68" xml:space="preserve">
<g>
	<g>
		<circle fill="#FEDA2F" cx="49.063" cy="34.13" r="27.872"/>
		<path fill="#FEDA2F" d="M26.113,8.648l-2.532,2.534c-1.311,1.311-1.311,3.455,0,4.767l2.47,2.467
			c1.957-2.865,4.438-5.343,7.3-7.302l-2.467-2.467C29.571,7.336,27.427,7.336,26.113,8.648z M72.013,8.648
			c-1.314-1.309-3.46-1.309-4.771,0l-2.467,2.469c2.863,1.957,5.344,4.437,7.301,7.302l2.47-2.467c1.311-1.313,1.311-3.456,0-4.767
			L72.013,8.648z M50.854-0.115h-3.58c-1.857,0-3.373,1.516-3.373,3.371v3.501c1.673-0.315,3.394-0.498,5.161-0.498
			s3.487,0.183,5.163,0.498V3.256C54.225,1.401,52.709-0.115,50.854-0.115z M18.191,28.967c-1.856,0-3.376,1.517-3.376,3.374v3.581
			c0,1.855,1.52,3.372,3.376,3.372h3.496c-0.313-1.675-0.496-3.398-0.496-5.164c0-1.764,0.183-3.488,0.496-5.163H18.191z
			 M72.077,49.842c-1.958,2.865-4.437,5.343-7.301,7.304l2.467,2.466c1.311,1.311,3.458,1.311,4.771,0l2.533-2.532
			c1.311-1.313,1.311-3.458,0-4.771L72.077,49.842z M79.937,28.967h-3.499c0.315,1.675,0.498,3.399,0.498,5.163
			c0,1.765-0.182,3.488-0.498,5.164h3.499c1.855,0,3.372-1.517,3.372-3.372v-3.581C83.309,30.485,81.791,28.967,79.937,28.967z
			 M26.047,49.842l-2.466,2.468c-1.311,1.313-1.311,3.458,0,4.769l2.532,2.534c1.314,1.311,3.458,1.311,4.77,0l2.467-2.467
			C30.488,55.189,28.007,52.708,26.047,49.842z M43.901,61.507v3.498c0,1.855,1.516,3.372,3.373,3.372h3.58
			c1.855,0,3.371-1.517,3.371-3.372v-3.498c-1.676,0.313-3.396,0.496-5.163,0.496S45.574,61.82,43.901,61.507z"/>
		<path fill="#F8A331" d="M43.901,5.301v1.455c1.673-0.315,3.394-0.498,5.161-0.498s3.487,0.183,5.163,0.498V5.301
			c-1.678-0.299-3.396-0.482-5.163-0.482C47.298,4.819,45.579,5.002,43.901,5.301z M72.077,18.419l1.029-1.028
			c-1.985-2.846-4.457-5.318-7.301-7.303l-1.029,1.029C67.638,13.074,70.119,15.554,72.077,18.419z M20.233,28.967
			c-0.299,1.679-0.481,3.4-0.481,5.163c0,1.764,0.182,3.485,0.481,5.164h1.454c-0.313-1.675-0.496-3.398-0.496-5.164
			c0-1.764,0.183-3.488,0.496-5.163H20.233z M64.776,57.146l1.029,1.026c2.844-1.983,5.316-4.456,7.301-7.302l-1.029-1.028
			C70.119,52.708,67.64,55.185,64.776,57.146z M77.891,28.967h-1.454c0.315,1.675,0.498,3.399,0.498,5.163
			c0,1.765-0.182,3.488-0.498,5.164h1.454c0.299-1.679,0.483-3.4,0.483-5.164C78.374,32.367,78.191,30.646,77.891,28.967z
			 M43.901,61.507v1.454c1.679,0.299,3.398,0.482,5.161,0.482c1.767,0,3.486-0.183,5.163-0.482v-1.454
			c-1.676,0.313-3.396,0.496-5.163,0.496S45.574,61.82,43.901,61.507z M26.047,49.842l-1.026,1.028
			c1.984,2.846,4.457,5.322,7.301,7.304l1.028-1.028C30.488,55.189,28.007,52.708,26.047,49.842z M25.021,17.389l1.029,1.028
			c1.957-2.865,4.438-5.343,7.3-7.302l-1.028-1.029C29.478,12.073,27.005,14.546,25.021,17.389z"/>
		<path opacity="0.15" fill="#FFFFFF" d="M67.242,8.648l-2.467,2.469c-3.119-2.137-6.696-3.637-10.55-4.361V3.256
			c0-1.855-1.516-3.371-3.371-3.371h-3.58c-1.857,0-3.373,1.516-3.373,3.371v3.501c-3.857,0.723-7.43,2.224-10.551,4.359
			l-2.467-2.467c-1.312-1.313-3.456-1.313-4.77,0l-2.532,2.534c-1.311,1.311-1.311,3.455,0,4.767l2.47,2.467
			c-2.137,3.12-3.64,6.696-4.363,10.55h-3.496c-1.856,0-3.376,1.517-3.376,3.374v3.581c0,1.855,1.52,3.372,3.376,3.372h3.496
			c0.724,3.854,2.227,7.43,4.36,10.548l-2.466,2.468c-1.311,1.313-1.311,3.458,0,4.769l1.464,1.466l48.433-48.432l-1.465-1.464
			C70.699,7.339,68.554,7.339,67.242,8.648z"/>
	</g>
	<g>
		<g>
			<path fill="#FFFFFF" d="M45.672,18.754c-9.2,0-16.991,6.005-19.698,14.303c-5.176,1.151-9.392,4.804-11.327,9.633
				c-6.998,0.237-12.601,5.968-12.601,13.02c0,7.045,5.586,12.765,12.564,13.025v0.023h31.305V18.766
				C45.834,18.764,45.755,18.754,45.672,18.754z"/>
			<path fill="#F2F4FA" d="M66.229,36.934c-1.248-10.161-9.839-18.048-20.314-18.168v49.992H65.65V68.72
				c8.479-0.368,15.244-7.337,15.244-15.906C80.894,44.44,74.431,37.587,66.229,36.934z"/>
		</g>
		<g>
			<path fill="#59C9E7" d="M28.848,58.759l-12.598,3.383l-1.068,0.287c-1.249,0.41-2.424,1.105-3.421,2.098
				c-3.393,3.396-3.393,8.898,0,12.292l17.922-17.921C29.507,58.722,29.218,58.66,28.848,58.759z"/>
			<path fill="#20C3F1" d="M26.149,73.403l0.289-1.079l3.383-12.598c0.096-0.36,0.038-0.653-0.138-0.828L11.76,76.818
				c3.395,3.39,8.898,3.39,12.29,0C25.043,75.826,25.735,74.652,26.149,73.403z"/>
		</g>
		<g>
			<path fill="#59C9E7" d="M68.95,61.366L56.351,64.75l-1.068,0.288c-1.251,0.411-2.427,1.104-3.423,2.098
				c-3.395,3.394-3.395,8.896,0,12.29l17.922-17.921C69.606,61.329,69.317,61.267,68.95,61.366z"/>
			<path fill="#20C3F1" d="M66.25,76.012l0.287-1.081l3.384-12.594c0.097-0.366,0.035-0.659-0.139-0.834L51.86,79.425
				c3.396,3.394,8.898,3.394,12.291,0C65.143,78.434,65.837,77.26,66.25,76.012z"/>
		</g>
		<g>
			<path fill="#59C9E7" d="M41.888,72.867l-7.644,2.053l-0.653,0.174c-0.757,0.25-1.473,0.67-2.075,1.275
				c-2.06,2.06-2.06,5.397,0,7.46l10.88-10.877C42.287,72.844,42.112,72.811,41.888,72.867z"/>
			<path fill="#20C3F1" d="M40.249,81.754l0.176-0.653l2.052-7.646c0.06-0.218,0.025-0.398-0.081-0.502l-10.88,10.877
				c2.059,2.057,5.4,2.057,7.458,0C39.578,83.224,39.999,82.512,40.249,81.754z"/>
		</g>
		<path opacity="0.2" fill="#122C3D" d="M29.82,59.726l-2.425,9.032h12.149l-9.862-9.86C29.858,59.073,29.916,59.365,29.82,59.726z"
			/>
		<path opacity="0.2" fill="#122C3D" d="M69.921,62.338l-1.624,6.036c2.129-0.457,4.101-1.327,5.818-2.533l-4.332-4.337
			C69.957,61.679,70.019,61.972,69.921,62.338z"/>
	</g>
</g>
</svg>
