<?xml version="1.0" encoding="utf-8"?>
<!-- Generator: Adobe Illustrator 17.0.0, SVG Export Plug-In . SVG Version: 6.00 Build 0)  -->
<!DOCTYPE svg PUBLIC "-//W3C//DTD SVG 1.1//EN" "http://www.w3.org/Graphics/SVG/1.1/DTD/svg11.dtd">
<svg version="1.1" id="Calque_1" xmlns="http://www.w3.org/2000/svg" xmlns:xlink="http://www.w3.org/1999/xlink" x="0px" y="0px"
	 width="85.68px" height="85.68px" viewBox="0 0 85.68 85.68" enable-background="new 0 0 85.68 85.68" xml:space="preserve">
<g>
	<g>
		<path fill="#FFFFFF" d="M47.788,7.383c-9.819,0-18.13,6.405-21.015,15.259c-5.521,1.227-10.022,5.126-12.086,10.278
			C7.221,33.173,1.245,39.287,1.245,46.812c0,7.516,5.957,13.618,13.402,13.894v0.025h33.4V7.395
			C47.96,7.391,47.876,7.383,47.788,7.383z"/>
		<path fill="#F2F4FA" d="M69.717,26.779c-1.33-10.843-10.498-19.257-21.67-19.384V60.73h21.052v-0.04
			c9.047-0.392,16.264-7.829,16.264-16.971C85.363,34.786,78.47,27.476,69.717,26.779z"/>
	</g>
	<g>
		<path fill="#59C9E7" d="M29.84,50.062l-13.442,3.61l-1.139,0.306c-1.334,0.437-2.59,1.179-3.65,2.239
			c-3.621,3.621-3.623,9.491,0,13.112l19.12-19.12C30.54,50.022,30.23,49.958,29.84,50.062z"/>
		<path fill="#20C3F1" d="M26.958,65.684l0.307-1.15l3.61-13.44c0.105-0.386,0.04-0.698-0.148-0.885l-19.12,19.12
			c3.619,3.617,9.49,3.617,13.11,0C25.778,68.271,26.517,67.018,26.958,65.684z"/>
	</g>
	<g>
		<path fill="#59C9E7" d="M72.622,52.844l-13.442,3.61l-1.141,0.306c-1.335,0.439-2.59,1.18-3.65,2.239
			c-3.621,3.621-3.621,9.492,0,13.112l19.12-19.12C73.321,52.805,73.012,52.74,72.622,52.844z"/>
		<path fill="#20C3F1" d="M69.74,68.469l0.306-1.152l3.61-13.436c0.104-0.39,0.039-0.702-0.148-0.889l-19.12,19.12
			c3.621,3.621,9.491,3.621,13.112,0C68.559,71.053,69.299,69.801,69.74,68.469z"/>
	</g>
	<g>
		<path fill="#59C9E7" d="M43.751,65.114l-8.158,2.19l-0.695,0.185c-0.808,0.266-1.571,0.717-2.215,1.361
			c-2.196,2.198-2.196,5.759,0,7.959l11.606-11.604C44.176,65.089,43.987,65.053,43.751,65.114z"/>
		<path fill="#20C3F1" d="M42.002,74.595l0.185-0.697l2.19-8.158c0.063-0.234,0.025-0.425-0.088-0.536L32.683,76.809
			c2.197,2.195,5.761,2.195,7.958,0C41.285,76.164,41.734,75.405,42.002,74.595z"/>
	</g>
	<path opacity="0.2" fill="#122C3D" d="M30.876,51.095l-2.588,9.636h12.96L30.728,50.209C30.916,50.397,30.981,50.709,30.876,51.095
		z"/>
	<path opacity="0.2" fill="#122C3D" d="M73.656,53.881l-1.731,6.44c2.27-0.487,4.373-1.415,6.207-2.703l-4.623-4.626
		C73.696,53.179,73.761,53.49,73.656,53.881z"/>
</g>
</svg>
