<?xml version="1.0" encoding="utf-8"?>
<!-- Generator: Adobe Illustrator 17.0.0, SVG Export Plug-In . SVG Version: 6.00 Build 0)  -->
<!DOCTYPE svg PUBLIC "-//W3C//DTD SVG 1.1//EN" "http://www.w3.org/Graphics/SVG/1.1/DTD/svg11.dtd">
<svg version="1.1" id="Calque_1" xmlns="http://www.w3.org/2000/svg" xmlns:xlink="http://www.w3.org/1999/xlink" x="0px" y="0px"
	 width="85.68px" height="85.68px" viewBox="0 0 85.68 85.68" enable-background="new 0 0 85.68 85.68" xml:space="preserve">
<g>
	<g>
		<path fill="#FFFFFF" d="M47.363,7.957c-9.965,0-18.399,6.5-21.328,15.486c-5.604,1.246-10.172,5.202-12.267,10.431
			C6.193,34.131,0.129,40.335,0.129,47.971c0,7.627,6.043,13.82,13.6,14.1v0.026h33.895V7.969
			C47.537,7.966,47.451,7.957,47.363,7.957z"/>
		<path fill="#F2F4F9" d="M69.616,27.642C68.268,16.638,58.964,8.099,47.624,7.969v54.127h21.367v-0.04
			c9.18-0.398,16.504-7.945,16.504-17.223C85.495,35.767,78.5,28.348,69.616,27.642z"/>
	</g>
	<g>
		<path fill="#00E1FF" d="M72.564,54.093l-13.64,3.664l-1.157,0.31c-1.355,0.445-2.63,1.198-3.704,2.272
			c-3.675,3.675-3.675,9.632,0,13.307l19.403-19.404C73.277,54.053,72.962,53.987,72.564,54.093z"/>
		<path fill="#00C6F4" d="M69.642,69.95l0.311-1.169l3.663-13.636c0.106-0.396,0.04-0.712-0.15-0.902L54.063,73.647
			c3.674,3.674,9.632,3.674,13.306,0C68.443,72.573,69.192,71.301,69.642,69.95z"/>
	</g>
	<path opacity="0.2" fill="#122C3D" d="M73.616,55.145l-1.757,6.535c2.301-0.493,4.438-1.435,6.297-2.744l-4.69-4.694
		C73.656,54.433,73.722,54.749,73.616,55.145z"/>
	<g>
		<path fill="#00E1FF" d="M31.72,69.355l-3.282-1.895l2.856-0.766c0.154-0.04,0.245-0.199,0.205-0.353l-0.462-1.719
			c-0.04-0.154-0.199-0.245-0.352-0.205l-5.136,1.376l-4.19-2.419l4.19-2.42l5.136,1.376c0.154,0.042,0.313-0.05,0.352-0.204
			l0.462-1.72c0.04-0.154-0.051-0.311-0.205-0.354l-2.856-0.764l3.282-1.895c0.137-0.08,0.185-0.257,0.105-0.395l-0.89-1.542
			c-0.078-0.138-0.257-0.184-0.393-0.105l-3.284,1.894l0.767-2.856c0.04-0.154-0.051-0.313-0.204-0.353l-1.721-0.46
			c-0.154-0.043-0.314,0.049-0.354,0.203l-1.377,5.136l-4.188,2.418v-4.618l3.757-3.758c0.113-0.112,0.113-0.296,0-0.407
			l-1.257-1.259c-0.113-0.112-0.298-0.112-0.409,0l-2.091,2.091v-4.012c0-0.159-0.13-0.289-0.29-0.289h-1.779
			c-0.159,0-0.289,0.13-0.289,0.289v4.012l-2.093-2.091c-0.109-0.112-0.296-0.112-0.405,0l-1.26,1.259
			c-0.113,0.111-0.113,0.296,0,0.407l3.759,3.758v4.618l-3.998-2.309l-1.375-5.134c-0.04-0.154-0.201-0.247-0.355-0.204l-1.72,0.461
			c-0.154,0.04-0.245,0.199-0.205,0.353l0.768,2.856L7.464,55.35c-0.139-0.079-0.316-0.033-0.394,0.105l-0.892,1.542
			c-0.078,0.138-0.032,0.315,0.106,0.395l3.474,2.005l-2.856,0.765c-0.154,0.042-0.245,0.201-0.204,0.354l0.46,1.719
			c0.044,0.153,0.201,0.246,0.355,0.205l5.135-1.376l3.997,2.308l-3.997,2.309l-5.135-1.377c-0.154-0.041-0.311,0.051-0.353,0.205
			l-0.461,1.72c-0.04,0.153,0.051,0.312,0.204,0.353l2.856,0.766l-3.474,2.007C6.146,69.433,6.1,69.61,6.178,69.748l0.892,1.543
			c0.078,0.138,0.256,0.185,0.394,0.106l3.474-2.005l-0.768,2.856c-0.04,0.154,0.051,0.313,0.205,0.353l1.72,0.462
			c0.153,0.04,0.314-0.052,0.355-0.205l1.375-5.134l3.998-2.309v4.838l-3.759,3.759c-0.113,0.111-0.113,0.295,0,0.407l1.26,1.259
			c0.109,0.113,0.296,0.113,0.405,0l2.093-2.091v3.791c0,0.158,0.13,0.288,0.289,0.288h1.779c0.161,0,0.29-0.13,0.29-0.288v-3.791
			l2.091,2.091c0.111,0.113,0.296,0.113,0.409,0l1.257-1.259c0.113-0.112,0.113-0.296,0-0.407l-3.757-3.759v-4.838l4.188,2.42
			l1.377,5.132c0.04,0.154,0.2,0.247,0.354,0.205l1.721-0.461c0.154-0.04,0.245-0.2,0.204-0.353l-0.767-2.856l3.284,1.895
			c0.135,0.08,0.314,0.032,0.393-0.106l0.89-1.543C31.905,69.61,31.857,69.433,31.72,69.355z"/>
		<path opacity="0.2" fill="#122C3D" d="M25.614,54.265L24,52.649l-0.026-0.017c0.051,0.108,0.055,0.234-0.036,0.323l-3.757,3.758
			v4.618l4.188-2.418L25.614,54.265z M10.503,61.639c0.95,0.242,1.936,0.395,2.954,0.432v0.026h0.976l-1.787-1.032L10.503,61.639z
			 M13.825,59.023l3.998,2.309V59.3l-5.358-5.358L13.825,59.023z M20.181,53.38l2.025-2.026l-2.055-2.056
			c0.007,0.025,0.029,0.043,0.029,0.07V53.38z M37.578,62.097l-6.643-6.642l0.89,1.542c0.08,0.138,0.032,0.315-0.105,0.395
			l-3.282,1.895l2.856,0.764c0.154,0.043,0.245,0.201,0.205,0.354l-0.453,1.691H37.578z M29.68,55.847l-1.705-1.708l-0.015,0.004
			c0.054,0.068,0.089,0.154,0.065,0.245l-0.767,2.856L29.68,55.847z M23.569,62.097h6.247l-4.266-1.144L23.569,62.097z"/>
	</g>
</g>
</svg>
