<?xml version="1.0" encoding="utf-8"?>
<!-- Generator: Adobe Illustrator 17.0.0, SVG Export Plug-In . SVG Version: 6.00 Build 0)  -->
<!DOCTYPE svg PUBLIC "-//W3C//DTD SVG 1.1//EN" "http://www.w3.org/Graphics/SVG/1.1/DTD/svg11.dtd">
<svg version="1.1" id="Calque_1" xmlns="http://www.w3.org/2000/svg" xmlns:xlink="http://www.w3.org/1999/xlink" x="0px" y="0px"
	 width="85.68px" height="85.68px" viewBox="0 0 85.68 85.68" enable-background="new 0 0 85.68 85.68" xml:space="preserve">
<g>
	<path fill="#FFFFFF" d="M47.36,4.569c-9.898,0-18.275,6.456-21.183,15.382c-5.565,1.237-10.102,5.167-12.183,10.36
		C6.469,30.566,0.444,36.728,0.444,44.313c0,7.575,6.004,13.727,13.509,14.005v0.025h33.668V4.581
		C47.534,4.578,47.448,4.569,47.36,4.569z"/>
	<path fill="#F2F4F9" d="M69.464,24.121C68.123,13.191,58.883,4.71,47.621,4.581v53.761h21.221v-0.04
		c9.12-0.395,16.394-7.891,16.394-17.107C85.236,32.191,78.288,24.823,69.464,24.121z"/>
	<path fill="#00E1FF" d="M46.904,77.034l-1.66-0.959l1.444-0.388c0.078-0.021,0.125-0.101,0.105-0.179l-0.234-0.869
		c-0.02-0.078-0.101-0.124-0.179-0.104l-2.596,0.696l-2.119-1.224l2.119-1.224l2.596,0.696c0.078,0.021,0.16-0.025,0.179-0.103
		l0.234-0.87c0.02-0.078-0.027-0.158-0.105-0.18l-1.444-0.386l1.66-0.959c0.071-0.04,0.095-0.13,0.055-0.2l-0.452-0.78
		c-0.04-0.069-0.129-0.093-0.198-0.052l-1.662,0.958l0.389-1.444c0.02-0.078-0.026-0.158-0.104-0.179l-0.871-0.232
		c-0.076-0.021-0.158,0.025-0.178,0.103l-0.697,2.598l-2.118,1.223v-2.336l1.901-1.901c0.056-0.057,0.056-0.149,0-0.206
		l-0.637-0.637c-0.056-0.057-0.151-0.057-0.207,0l-1.057,1.057v-2.029c0-0.08-0.066-0.146-0.147-0.146h-0.9
		c-0.08,0-0.147,0.066-0.147,0.146v2.029l-1.058-1.057c-0.056-0.057-0.149-0.057-0.205,0l-0.639,0.637
		c-0.056,0.057-0.056,0.149,0,0.206l1.901,1.901v2.336l-2.021-1.167l-0.697-2.597c-0.02-0.078-0.099-0.125-0.179-0.104l-0.869,0.233
		c-0.078,0.021-0.123,0.102-0.104,0.179l0.388,1.445l-1.758-1.014c-0.069-0.04-0.159-0.016-0.2,0.052l-0.452,0.78
		c-0.038,0.07-0.015,0.16,0.054,0.2l1.758,1.015l-1.446,0.387c-0.078,0.021-0.123,0.102-0.103,0.179l0.234,0.87
		c0.02,0.077,0.101,0.125,0.178,0.104l2.598-0.697l2.023,1.168l-2.023,1.168l-2.598-0.697c-0.076-0.022-0.158,0.026-0.178,0.103
		l-0.234,0.87c-0.02,0.077,0.025,0.158,0.103,0.179l1.446,0.388l-1.758,1.015c-0.069,0.04-0.093,0.129-0.054,0.199l0.452,0.78
		c0.04,0.07,0.131,0.094,0.2,0.054l1.758-1.014l-0.388,1.444c-0.02,0.078,0.026,0.158,0.104,0.179l0.869,0.233
		c0.08,0.021,0.16-0.026,0.179-0.104l0.697-2.597l2.021-1.167v2.447l-1.901,1.901c-0.056,0.057-0.056,0.149,0,0.206l0.639,0.636
		c0.056,0.057,0.149,0.057,0.205,0l1.058-1.057v1.917c0,0.079,0.067,0.146,0.147,0.146h0.9c0.081,0,0.147-0.067,0.147-0.146v-1.917
		l1.057,1.057c0.056,0.057,0.151,0.057,0.207,0l0.637-0.636c0.056-0.058,0.056-0.15,0-0.206l-1.901-1.901v-2.447l2.118,1.224
		l0.697,2.596c0.02,0.078,0.102,0.125,0.178,0.105l0.871-0.233c0.078-0.021,0.123-0.101,0.104-0.179l-0.389-1.444l1.662,0.958
		c0.069,0.04,0.158,0.016,0.198-0.054l0.452-0.78C46.999,77.162,46.975,77.073,46.904,77.034z"/>
	<g>
		<path fill="#00E1FF" d="M32.092,65.552l-3.26-1.882l2.837-0.761c0.152-0.04,0.243-0.198,0.204-0.351l-0.459-1.708
			c-0.04-0.152-0.198-0.244-0.35-0.203l-5.099,1.367l-4.162-2.403l4.162-2.404l5.099,1.367c0.153,0.042,0.31-0.05,0.35-0.202
			l0.459-1.709c0.04-0.153-0.051-0.309-0.204-0.352l-2.837-0.759l3.26-1.882c0.138-0.079,0.184-0.255,0.105-0.392l-0.885-1.532
			c-0.078-0.137-0.254-0.183-0.39-0.104l-3.261,1.881l0.762-2.836c0.04-0.153-0.051-0.311-0.203-0.351l-1.709-0.457
			c-0.152-0.042-0.31,0.049-0.352,0.202l-1.366,5.101l-4.162,2.402v-4.586l3.734-3.733c0.112-0.111,0.112-0.294,0-0.404l-1.25-1.251
			c-0.112-0.112-0.295-0.112-0.406,0l-2.077,2.077v-3.985c0-0.158-0.129-0.287-0.286-0.287h-1.769c-0.158,0-0.286,0.129-0.286,0.287
			v3.985l-2.077-2.077c-0.111-0.112-0.294-0.112-0.404,0l-1.252,1.251c-0.11,0.11-0.11,0.293,0,0.404l3.734,3.733v4.586
			l-3.971-2.293l-1.366-5.099c-0.04-0.152-0.198-0.245-0.352-0.202l-1.707,0.458c-0.152,0.04-0.245,0.198-0.203,0.35l0.76,2.837
			L8,51.642c-0.136-0.079-0.314-0.033-0.392,0.104l-0.885,1.532c-0.078,0.137-0.031,0.313,0.105,0.392l3.451,1.992l-2.837,0.76
			c-0.152,0.042-0.243,0.2-0.202,0.352l0.457,1.708c0.042,0.152,0.2,0.244,0.35,0.203l5.101-1.367l3.969,2.293l-3.969,2.293
			l-5.101-1.368c-0.151-0.041-0.309,0.051-0.35,0.203l-0.457,1.709c-0.042,0.152,0.049,0.311,0.202,0.35l2.839,0.761l-3.452,1.993
			c-0.136,0.078-0.183,0.254-0.105,0.391l0.885,1.532C7.686,67.612,7.864,67.66,8,67.58l3.45-1.991l-0.76,2.836
			c-0.042,0.153,0.051,0.311,0.203,0.351l1.707,0.459c0.154,0.04,0.312-0.051,0.352-0.203l1.366-5.099l3.971-2.293v4.806
			l-3.734,3.733c-0.11,0.111-0.11,0.293,0,0.404l1.252,1.25c0.111,0.113,0.294,0.113,0.404,0l2.077-2.077v3.765
			c0,0.157,0.129,0.287,0.286,0.287h1.769c0.157,0,0.286-0.13,0.286-0.287v-3.765l2.077,2.077c0.111,0.113,0.294,0.113,0.406,0
			l1.25-1.25c0.112-0.112,0.112-0.294,0-0.404l-3.734-3.733v-4.806l4.162,2.404l1.366,5.098c0.042,0.153,0.2,0.245,0.352,0.204
			l1.709-0.458c0.152-0.04,0.243-0.199,0.203-0.351l-0.762-2.837l3.261,1.882c0.136,0.079,0.312,0.032,0.39-0.105l0.885-1.532
			C32.276,65.806,32.23,65.63,32.092,65.552z"/>
		<path opacity="0.2" fill="#122C3D" d="M26.029,50.564l-1.605-1.605l-0.026-0.016c0.053,0.107,0.055,0.233-0.034,0.321
			l-3.734,3.733v4.586l4.162-2.402L26.029,50.564z M11.019,57.889c0.945,0.24,1.924,0.392,2.935,0.429v0.025h0.969l-1.774-1.025
			L11.019,57.889z M14.318,55.29l3.971,2.293v-2.017l-5.323-5.322L14.318,55.29z M20.631,49.686l2.014-2.013l-2.043-2.042
			c0.007,0.025,0.029,0.043,0.029,0.07V49.686z M37.91,58.343l-6.598-6.597l0.885,1.532c0.078,0.137,0.032,0.313-0.105,0.392
			l-3.26,1.882l2.837,0.759c0.152,0.042,0.243,0.199,0.204,0.352l-0.45,1.68H37.91z M30.068,52.136l-1.697-1.697l-0.012,0.004
			c0.054,0.068,0.087,0.152,0.063,0.244l-0.762,2.836L30.068,52.136z M23.998,58.343H30.2l-4.236-1.135L23.998,58.343z"/>
	</g>
	<path fill="#00E1FF" d="M75.592,65.552l-3.26-1.882l2.837-0.761c0.152-0.04,0.243-0.198,0.204-0.351l-0.459-1.708
		c-0.04-0.152-0.198-0.244-0.35-0.203l-5.099,1.367l-4.162-2.403l4.162-2.404l5.099,1.367c0.152,0.042,0.311-0.05,0.35-0.202
		l0.459-1.709c0.04-0.153-0.051-0.309-0.204-0.352l-2.837-0.759l3.26-1.882c0.138-0.079,0.184-0.255,0.105-0.392l-0.885-1.532
		c-0.078-0.137-0.254-0.183-0.39-0.104l-3.262,1.881l0.762-2.836c0.04-0.153-0.051-0.311-0.203-0.351l-1.709-0.457
		c-0.152-0.042-0.31,0.049-0.352,0.202l-1.366,5.101l-4.161,2.402v-4.586l3.734-3.733c0.112-0.111,0.112-0.294,0-0.404l-1.25-1.251
		c-0.112-0.112-0.296-0.112-0.406,0l-2.077,2.077v-3.985c0-0.158-0.129-0.287-0.286-0.287h-1.769c-0.158,0-0.286,0.129-0.286,0.287
		v3.985l-2.077-2.077c-0.111-0.112-0.294-0.112-0.404,0l-1.252,1.251c-0.111,0.11-0.111,0.293,0,0.404l3.733,3.733v4.586
		l-3.971-2.293l-1.366-5.099c-0.04-0.152-0.198-0.245-0.352-0.202l-1.707,0.458c-0.152,0.04-0.245,0.198-0.203,0.35l0.76,2.837
		l-3.45-1.992c-0.136-0.079-0.314-0.033-0.392,0.104l-0.885,1.532c-0.078,0.137-0.031,0.313,0.105,0.392l3.451,1.992l-2.837,0.76
		c-0.152,0.042-0.243,0.2-0.202,0.352l0.457,1.708c0.042,0.152,0.2,0.244,0.35,0.203l5.101-1.367l3.969,2.293l-3.969,2.293
		l-5.101-1.368c-0.151-0.041-0.309,0.051-0.35,0.203l-0.457,1.709c-0.042,0.152,0.049,0.311,0.202,0.35l2.839,0.761l-3.452,1.993
		c-0.136,0.078-0.183,0.254-0.105,0.391l0.885,1.532c0.078,0.137,0.256,0.184,0.392,0.105l3.45-1.991l-0.76,2.836
		c-0.042,0.153,0.051,0.311,0.203,0.351l1.707,0.459c0.154,0.04,0.312-0.051,0.352-0.203l1.366-5.099l3.971-2.293v4.806
		l-3.733,3.733c-0.111,0.111-0.111,0.293,0,0.404l1.252,1.25c0.111,0.113,0.294,0.113,0.404,0l2.077-2.077v3.765
		c0,0.157,0.129,0.287,0.286,0.287h1.769c0.157,0,0.286-0.13,0.286-0.287v-3.765l2.077,2.077c0.111,0.113,0.294,0.113,0.406,0
		l1.25-1.25c0.112-0.112,0.112-0.294,0-0.404l-3.734-3.733v-4.806l4.161,2.404l1.366,5.098c0.042,0.153,0.2,0.245,0.352,0.204
		l1.709-0.458c0.152-0.04,0.243-0.199,0.203-0.351l-0.762-2.837l3.262,1.882c0.136,0.079,0.312,0.032,0.39-0.105l0.885-1.532
		C75.775,65.806,75.73,65.63,75.592,65.552z"/>
	<path opacity="0.2" fill="#122C3D" d="M67.497,58.343h1.344v-0.04c0.535-0.024,1.063-0.075,1.584-0.147
		c0.504-0.071,1.003-0.164,1.493-0.276c0.011-0.003,0.022-0.004,0.031-0.006l-2.485-0.667L67.497,58.343z M73.568,52.136
		l-1.697-1.697l-0.013,0.004c0.055,0.069,0.087,0.152,0.064,0.244l-0.762,2.836L73.568,52.136z M69.529,50.564l-1.605-1.605
		l-0.026-0.016c0.026,0.053,0.042,0.102,0.033,0.158c-0.002,0.06-0.02,0.116-0.067,0.163l-3.734,3.733v4.586l4.161-2.402
		L69.529,50.564z M52.824,58.343h5.598l-1.774-1.025L52.824,58.343z M74.812,51.746l0.885,1.532
		c0.078,0.137,0.032,0.313-0.105,0.392l-3.26,1.882l2.837,0.759c0.152,0.042,0.243,0.199,0.204,0.352l-0.011,0.039
		c0.489-0.23,0.965-0.48,1.428-0.753c0.004-0.002,0.005-0.004,0.009-0.005c0.459-0.272,0.906-0.564,1.337-0.876L74.812,51.746z
		 M64.13,49.686l2.014-2.013l-2.042-2.042c0.007,0.025,0.029,0.043,0.029,0.07V49.686z M57.818,55.29l3.971,2.293v-2.017
		l-5.323-5.322L57.818,55.29z"/>
</g>
</svg>
