<?xml version="1.0" encoding="utf-8"?>
<!-- Generator: Adobe Illustrator 17.0.0, SVG Export Plug-In . SVG Version: 6.00 Build 0)  -->
<!DOCTYPE svg PUBLIC "-//W3C//DTD SVG 1.1//EN" "http://www.w3.org/Graphics/SVG/1.1/DTD/svg11.dtd">
<svg version="1.1" id="Calque_1" xmlns="http://www.w3.org/2000/svg" xmlns:xlink="http://www.w3.org/1999/xlink" x="0px" y="0px"
	 width="85.68px" height="85.68px" viewBox="0 0 85.68 85.68" enable-background="new 0 0 85.68 85.68" xml:space="preserve">
<g>
	<g>
		<circle fill="#C6C5A3" cx="47.214" cy="31.177" r="30.92"/>
		<path fill="#D1D1B0" d="M47.215,0.257c-6.113,0-11.806,1.782-16.604,4.841c-3.06,4.797-4.841,10.49-4.841,16.603
			c0,17.077,13.842,30.919,30.921,30.919c6.112,0,11.804-1.78,16.604-4.839c3.06-4.799,4.839-10.49,4.839-16.605
			C78.134,14.1,64.29,0.257,47.215,0.257z"/>
		<g>
			<circle fill="#B7B284" cx="27.271" cy="27.364" r="5.796"/>
			<path fill="#C1BE99" d="M27.272,21.567c-1.146,0-2.213,0.333-3.115,0.907c-0.571,0.9-0.907,1.967-0.907,3.112
				c0,3.203,2.594,5.796,5.798,5.796c1.144,0,2.212-0.332,3.111-0.907c0.575-0.899,0.908-1.966,0.908-3.111
				C33.068,24.163,30.473,21.567,27.272,21.567z"/>
		</g>
		<g>
			<circle fill="#B7B284" cx="48.622" cy="29.858" r="8.123"/>
			<path fill="#C1BE99" d="M48.624,21.733c-1.607,0-3.102,0.469-4.363,1.273c-0.802,1.259-1.271,2.755-1.271,4.36
				c0,4.487,3.637,8.124,8.124,8.124c1.604,0,3.099-0.467,4.361-1.271c0.805-1.261,1.271-2.757,1.271-4.361
				C56.745,25.37,53.108,21.733,48.624,21.733z"/>
		</g>
		<g>
			<circle fill="#B7B284" cx="34.337" cy="47.217" r="3.395"/>
			<path fill="#C1BE99" d="M34.338,43.823c-0.673,0-1.297,0.196-1.824,0.532c-0.336,0.527-0.53,1.152-0.53,1.823
				c0,1.876,1.518,3.394,3.394,3.394c0.669,0,1.294-0.196,1.823-0.531c0.335-0.529,0.532-1.153,0.532-1.824
				C37.732,45.344,36.211,43.823,34.338,43.823z"/>
		</g>
		<g>
			<circle fill="#B7B284" cx="61.723" cy="13.338" r="4.162"/>
			<path fill="#C1BE99" d="M61.723,9.175c-0.825,0-1.591,0.239-2.235,0.652c-0.414,0.644-0.653,1.412-0.653,2.236
				c0,2.296,1.865,4.16,4.162,4.16c0.824,0,1.588-0.238,2.236-0.651c0.412-0.645,0.65-1.412,0.65-2.235
				C65.885,11.04,64.023,9.175,61.723,9.175z"/>
		</g>
		<g>
			<circle fill="#B7B284" cx="38.609" cy="8.553" r="2.37"/>
			<path fill="#C1BE99" d="M38.608,6.183c-0.469,0-0.904,0.137-1.27,0.371c-0.236,0.37-0.373,0.805-0.373,1.275
				c0,1.309,1.06,2.37,2.37,2.37c0.47,0,0.906-0.137,1.275-0.371c0.234-0.368,0.37-0.804,0.37-1.274
				C40.98,7.244,39.916,6.183,38.608,6.183z"/>
		</g>
		<g>
			<path fill="#B7B284" d="M74.059,34.354c0,2.388-1.935,4.328-4.323,4.328c-2.39,0-4.325-1.94-4.325-4.328
				c0-2.386,1.935-4.323,4.325-4.323C72.124,30.031,74.059,31.968,74.059,34.354z"/>
			<path fill="#C1BE99" d="M69.736,30.031c-0.857,0-1.654,0.246-2.323,0.679c-0.429,0.668-0.674,1.462-0.674,2.32
				c0,2.387,1.936,4.323,4.322,4.323c0.855,0,1.651-0.248,2.322-0.675c0.432-0.673,0.677-1.468,0.677-2.325
				C74.059,31.968,72.124,30.031,69.736,30.031z"/>
		</g>
		<g>
			<circle fill="#B7B284" cx="56.491" cy="52.094" r="3.727"/>
			<path fill="#C1BE99" d="M56.49,48.367c-0.736,0-1.421,0.216-2.001,0.584c-0.37,0.578-0.584,1.266-0.584,2.002
				c0,2.058,1.669,3.727,3.728,3.727c0.736,0,1.421-0.214,2-0.583c0.371-0.579,0.585-1.266,0.585-2.002
				C60.218,50.037,58.55,48.367,56.49,48.367z"/>
		</g>
	</g>
	<g>
		<path fill="#FFFFFF" d="M46.205,16.009c-8.925,0-16.48,5.822-19.101,13.87c-5.019,1.116-9.111,4.659-10.987,9.342
			C9.332,39.452,3.899,45.009,3.899,51.848c0,6.831,5.414,12.378,12.182,12.629V64.5h30.36V16.02
			C46.363,16.017,46.285,16.009,46.205,16.009z"/>
		<path fill="#F2F4F9" d="M66.138,33.64c-1.209-9.856-9.542-17.503-19.697-17.62V64.5h19.136v-0.036
			C73.8,64.107,80.36,57.348,80.36,49.038C80.36,40.918,74.095,34.273,66.138,33.64z"/>
		<path fill="#00E1FF" d="M45.795,81.354l-1.497-0.865L45.6,80.14c0.071-0.019,0.113-0.091,0.095-0.162l-0.211-0.784
			c-0.018-0.07-0.091-0.112-0.162-0.093l-2.341,0.627l-1.911-1.103l1.911-1.104l2.341,0.628c0.071,0.019,0.144-0.023,0.162-0.093
			l0.211-0.784c0.018-0.07-0.024-0.142-0.095-0.162l-1.303-0.348l1.497-0.865c0.064-0.036,0.086-0.117,0.049-0.18l-0.408-0.704
			c-0.035-0.062-0.116-0.083-0.178-0.047L43.76,75.83l0.35-1.302c0.018-0.07-0.023-0.143-0.093-0.162l-0.785-0.209
			c-0.068-0.02-0.142,0.022-0.161,0.092l-0.627,2.342l-1.911,1.103v-2.106l1.714-1.715c0.05-0.051,0.05-0.134,0-0.185l-0.574-0.574
			c-0.051-0.051-0.136-0.051-0.187,0l-0.953,0.953v-1.83c0-0.072-0.058-0.132-0.133-0.132h-0.812c-0.072,0-0.132,0.06-0.132,0.132
			v1.83l-0.953-0.953c-0.051-0.051-0.135-0.051-0.185,0l-0.576,0.574c-0.051,0.051-0.051,0.135,0,0.185l1.714,1.715v2.106
			l-1.823-1.053L37.006,74.3c-0.018-0.07-0.091-0.112-0.162-0.093l-0.784,0.21c-0.07,0.019-0.111,0.091-0.093,0.161l0.35,1.303
			l-1.585-0.914c-0.063-0.036-0.144-0.015-0.18,0.047l-0.408,0.704c-0.034,0.063-0.013,0.144,0.049,0.18l1.586,0.915l-1.304,0.349
			c-0.071,0.019-0.111,0.092-0.094,0.161l0.212,0.784c0.018,0.07,0.091,0.112,0.161,0.093l2.343-0.628l1.824,1.053l-1.824,1.053
			l-2.343-0.628c-0.069-0.02-0.142,0.023-0.161,0.093l-0.212,0.784c-0.017,0.07,0.023,0.142,0.094,0.161l1.304,0.349l-1.586,0.916
			c-0.063,0.036-0.083,0.116-0.049,0.179l0.408,0.703c0.036,0.063,0.118,0.084,0.18,0.048l1.585-0.914l-0.35,1.302
			c-0.018,0.07,0.023,0.143,0.093,0.162l0.784,0.21c0.072,0.019,0.144-0.023,0.162-0.093l0.627-2.342l1.823-1.053v2.207
			l-1.714,1.714c-0.051,0.051-0.051,0.134,0,0.186l0.576,0.574c0.05,0.052,0.134,0.052,0.185,0l0.953-0.954v1.729
			c0,0.072,0.06,0.132,0.132,0.132H40.4c0.074,0,0.133-0.06,0.133-0.132v-1.729l0.953,0.954c0.051,0.052,0.136,0.052,0.187,0
			l0.574-0.574c0.05-0.051,0.05-0.135,0-0.186l-1.714-1.714v-2.207l1.911,1.104l0.627,2.341c0.018,0.07,0.092,0.113,0.161,0.094
			l0.785-0.21c0.07-0.019,0.111-0.092,0.093-0.162l-0.35-1.303l1.498,0.864c0.062,0.036,0.142,0.015,0.178-0.048l0.408-0.703
			C45.88,81.47,45.859,81.39,45.795,81.354z"/>
		<g>
			<path fill="#00E1FF" d="M32.438,71.001l-2.939-1.697l2.559-0.686c0.137-0.036,0.219-0.179,0.183-0.317l-0.414-1.54
				c-0.035-0.137-0.178-0.22-0.315-0.184l-4.598,1.233l-3.752-2.166l3.752-2.168l4.598,1.233c0.138,0.038,0.28-0.045,0.315-0.182
				l0.414-1.541c0.036-0.137-0.046-0.279-0.183-0.317l-2.559-0.685l2.939-1.697c0.125-0.071,0.165-0.23,0.096-0.353l-0.799-1.382
				c-0.071-0.123-0.229-0.165-0.352-0.094l-2.942,1.696l0.687-2.557c0.036-0.138-0.045-0.281-0.184-0.317l-1.541-0.412
				c-0.138-0.038-0.28,0.044-0.317,0.182l-1.232,4.6l-3.753,2.166v-4.135l3.366-3.367c0.102-0.1,0.102-0.265,0-0.365l-1.126-1.128
				c-0.102-0.1-0.267-0.1-0.366,0l-1.873,1.873V53.1c0-0.142-0.116-0.259-0.259-0.259H20.25c-0.142,0-0.259,0.116-0.259,0.259v3.593
				l-1.873-1.873c-0.1-0.1-0.265-0.1-0.365,0l-1.129,1.128c-0.1,0.1-0.1,0.265,0,0.365l3.367,3.367v4.135l-3.581-2.068l-1.232-4.598
				c-0.036-0.138-0.179-0.221-0.318-0.182l-1.539,0.413c-0.138,0.036-0.221,0.178-0.184,0.316l0.686,2.558l-3.111-1.796
				c-0.123-0.071-0.283-0.03-0.353,0.094l-0.799,1.382c-0.07,0.124-0.027,0.282,0.095,0.353l3.112,1.796l-2.559,0.685
				c-0.138,0.037-0.219,0.18-0.181,0.317l0.412,1.54c0.038,0.137,0.18,0.22,0.316,0.183l4.599-1.233l3.58,2.068l-3.58,2.068
				l-4.599-1.233c-0.136-0.037-0.278,0.046-0.316,0.183l-0.412,1.541c-0.038,0.138,0.044,0.28,0.181,0.316l2.561,0.686l-3.114,1.797
				c-0.122,0.07-0.165,0.229-0.095,0.352l0.799,1.382c0.07,0.124,0.231,0.166,0.353,0.095l3.111-1.796l-0.686,2.558
				c-0.038,0.138,0.046,0.28,0.184,0.317l1.539,0.414c0.139,0.036,0.282-0.046,0.318-0.183l1.232-4.598l3.581-2.067v4.333
				l-3.367,3.367c-0.1,0.1-0.1,0.264,0,0.365l1.129,1.128c0.1,0.102,0.265,0.102,0.365,0l1.873-1.873v3.395
				c0,0.141,0.116,0.258,0.259,0.258h1.595c0.142,0,0.259-0.117,0.259-0.258v-3.395l1.873,1.873c0.1,0.102,0.264,0.102,0.366,0
				l1.126-1.128c0.102-0.101,0.102-0.265,0-0.365l-3.366-3.367v-4.333l3.753,2.168l1.232,4.596c0.037,0.138,0.18,0.221,0.317,0.184
				l1.541-0.413c0.138-0.036,0.22-0.179,0.184-0.316l-0.687-2.559l2.942,1.697c0.123,0.071,0.281,0.029,0.352-0.095l0.799-1.382
				C32.603,71.23,32.563,71.071,32.438,71.001z"/>
			<path opacity="0.2" fill="#122C3D" d="M26.971,57.485l-1.447-1.447L25.5,56.023c0.048,0.097,0.049,0.21-0.031,0.289l-3.366,3.367
				v4.135l3.753-2.166L26.971,57.485z M13.435,64.09c0.852,0.217,1.736,0.354,2.646,0.387V64.5h0.874l-1.601-0.924L13.435,64.09z
				 M16.41,61.747l3.581,2.068v-1.819l-4.799-4.799L16.41,61.747z M22.103,56.693l1.816-1.815l-1.842-1.841
				c0.007,0.022,0.026,0.039,0.026,0.063V56.693z M37.684,64.5l-5.95-5.949l0.799,1.382c0.07,0.124,0.03,0.282-0.096,0.353
				l-2.939,1.697l2.559,0.685c0.137,0.038,0.219,0.18,0.183,0.317L31.834,64.5H37.684z M30.613,58.902l-1.529-1.529l-0.011,0.003
				c0.049,0.061,0.078,0.138,0.057,0.22l-0.687,2.557L30.613,58.902z M25.14,64.5h5.592l-3.82-1.024L25.14,64.5z"/>
		</g>
		<path fill="#00E1FF" d="M71.665,71.001l-2.94-1.697l2.558-0.686c0.138-0.036,0.219-0.179,0.184-0.317l-0.414-1.54
			c-0.036-0.137-0.178-0.22-0.315-0.184l-4.598,1.233l-3.753-2.166l3.753-2.168l4.598,1.233c0.137,0.038,0.279-0.045,0.315-0.182
			l0.414-1.541c0.035-0.137-0.045-0.279-0.184-0.317l-2.558-0.685l2.94-1.697c0.124-0.071,0.165-0.23,0.094-0.353l-0.798-1.382
			c-0.07-0.123-0.229-0.165-0.352-0.094l-2.941,1.696l0.687-2.557c0.036-0.138-0.046-0.281-0.183-0.317l-1.541-0.412
			c-0.138-0.038-0.28,0.044-0.318,0.182l-1.232,4.6l-3.752,2.166v-4.135l3.367-3.367c0.101-0.1,0.101-0.265,0-0.365l-1.127-1.128
			c-0.101-0.1-0.267-0.1-0.366,0l-1.873,1.873V53.1c0-0.142-0.116-0.259-0.258-0.259h-1.595c-0.142,0-0.258,0.116-0.258,0.259v3.593
			l-1.873-1.873c-0.1-0.1-0.265-0.1-0.365,0l-1.129,1.128c-0.1,0.1-0.1,0.265,0,0.365l3.367,3.367v4.135l-3.581-2.068l-1.232-4.598
			c-0.036-0.138-0.179-0.221-0.317-0.182l-1.54,0.413c-0.138,0.036-0.221,0.178-0.183,0.316l0.685,2.558l-3.111-1.796
			c-0.123-0.071-0.283-0.03-0.353,0.094l-0.799,1.382c-0.07,0.124-0.028,0.282,0.096,0.353l3.111,1.796l-2.558,0.685
			c-0.138,0.037-0.219,0.18-0.182,0.317l0.413,1.54c0.038,0.137,0.18,0.22,0.315,0.183l4.601-1.233l3.578,2.068l-3.578,2.068
			l-4.601-1.233c-0.135-0.037-0.277,0.046-0.315,0.183l-0.413,1.541c-0.037,0.138,0.044,0.28,0.182,0.316l2.56,0.686l-3.112,1.797
			c-0.124,0.07-0.166,0.229-0.096,0.352l0.799,1.382c0.07,0.124,0.231,0.166,0.353,0.095l3.111-1.796l-0.685,2.558
			c-0.038,0.138,0.045,0.28,0.183,0.317l1.54,0.414c0.138,0.036,0.281-0.046,0.317-0.183l1.232-4.598l3.581-2.067v4.333
			l-3.367,3.367c-0.1,0.1-0.1,0.264,0,0.365l1.129,1.128c0.1,0.102,0.265,0.102,0.365,0l1.873-1.873v3.395
			c0,0.141,0.116,0.258,0.258,0.258h1.595c0.142,0,0.258-0.117,0.258-0.258v-3.395l1.873,1.873c0.1,0.102,0.265,0.102,0.366,0
			l1.127-1.128c0.101-0.101,0.101-0.265,0-0.365l-3.367-3.367v-4.333l3.752,2.168l1.232,4.596c0.038,0.138,0.18,0.221,0.318,0.184
			l1.541-0.413c0.137-0.036,0.219-0.179,0.183-0.316l-0.687-2.559l2.941,1.697c0.123,0.071,0.282,0.029,0.352-0.095l0.798-1.382
			C71.829,71.23,71.788,71.071,71.665,71.001z"/>
		<path opacity="0.2" fill="#122C3D" d="M64.365,64.5h1.212v-0.036c0.483-0.021,0.959-0.067,1.429-0.132
			c0.455-0.064,0.905-0.148,1.346-0.249c0.01-0.003,0.02-0.003,0.028-0.006l-2.241-0.601L64.365,64.5z M69.838,58.902l-1.53-1.529
			l-0.012,0.003c0.049,0.062,0.079,0.138,0.058,0.22l-0.687,2.557L69.838,58.902z M66.198,57.485l-1.448-1.447l-0.022-0.015
			c0.022,0.047,0.037,0.092,0.029,0.142c-0.002,0.054-0.017,0.105-0.06,0.147l-3.367,3.367v4.135l3.752-2.166L66.198,57.485z
			 M51.132,64.5h5.048l-1.599-0.924L51.132,64.5z M70.961,58.551l0.798,1.382c0.071,0.124,0.03,0.282-0.094,0.353l-2.94,1.697
			l2.558,0.685c0.138,0.038,0.219,0.18,0.184,0.317l-0.01,0.035c0.442-0.207,0.87-0.433,1.287-0.679
			c0.003-0.002,0.005-0.003,0.008-0.004c0.414-0.245,0.817-0.509,1.206-0.79L70.961,58.551z M61.329,56.693l1.816-1.815
			l-1.842-1.841c0.007,0.022,0.026,0.039,0.026,0.063V56.693z M55.636,61.747l3.581,2.068v-1.819l-4.799-4.799L55.636,61.747z"/>
	</g>
</g>
</svg>
