<?xml version="1.0" encoding="utf-8"?>
<!-- Generator: Adobe Illustrator 17.0.0, SVG Export Plug-In . SVG Version: 6.00 Build 0)  -->
<!DOCTYPE svg PUBLIC "-//W3C//DTD SVG 1.1//EN" "http://www.w3.org/Graphics/SVG/1.1/DTD/svg11.dtd">
<svg version="1.1" id="Calque_1" xmlns="http://www.w3.org/2000/svg" xmlns:xlink="http://www.w3.org/1999/xlink" x="0px" y="0px"
	 width="85.68px" height="85.68px" viewBox="0 0 85.68 85.68" enable-background="new 0 0 85.68 85.68" xml:space="preserve">
<g>
	<g>
		<circle fill="#C6C5A3" cx="49.257" cy="30.978" r="30.63"/>
		<path fill="#D1D1B0" d="M49.257,0.346c-6.056,0-11.695,1.767-16.449,4.797c-3.032,4.752-4.793,10.393-4.793,16.449
			c0,16.915,13.711,30.628,30.63,30.628c6.054,0,11.694-1.763,16.448-4.794c3.031-4.753,4.794-10.391,4.794-16.448
			C79.886,14.06,66.173,0.346,49.257,0.346z"/>
		<g>
			<circle fill="#B7B284" cx="29.5" cy="27.2" r="5.742"/>
			<path fill="#C1BE99" d="M29.5,21.459c-1.134,0-2.193,0.33-3.084,0.898c-0.567,0.891-0.899,1.948-0.899,3.082
				c0,3.173,2.57,5.743,5.743,5.743c1.134,0,2.191-0.331,3.082-0.9c0.569-0.89,0.899-1.948,0.899-3.082
				C35.242,24.029,32.672,21.459,29.5,21.459z"/>
		</g>
		<g>
			<path fill="#B7B284" d="M58.699,29.672c0,4.444-3.604,8.044-8.048,8.044c-4.445,0-8.047-3.6-8.047-8.044
				c0-4.447,3.602-8.049,8.047-8.049C55.095,21.623,58.699,25.224,58.699,29.672z"/>
			<path fill="#C1BE99" d="M50.652,21.623c-1.591,0-3.072,0.465-4.32,1.261c-0.796,1.247-1.261,2.728-1.261,4.318
				c0,4.445,3.604,8.048,8.048,8.048c1.591,0,3.071-0.462,4.32-1.258c0.798-1.251,1.261-2.732,1.261-4.321
				C58.699,25.224,55.095,21.623,50.652,21.623z"/>
		</g>
		<g>
			<circle fill="#B7B284" cx="36.5" cy="46.869" r="3.363"/>
			<path fill="#C1BE99" d="M36.5,43.504c-0.664,0-1.283,0.195-1.807,0.529c-0.332,0.522-0.525,1.141-0.525,1.805
				c0,1.859,1.504,3.363,3.363,3.363c0.664,0,1.281-0.193,1.805-0.527c0.332-0.522,0.527-1.141,0.527-1.805
				C39.863,45.012,38.355,43.504,36.5,43.504z"/>
		</g>
		<g>
			<circle fill="#B7B284" cx="63.628" cy="13.306" r="4.123"/>
			<path fill="#C1BE99" d="M63.629,9.181c-0.817,0-1.576,0.237-2.214,0.645c-0.41,0.639-0.647,1.4-0.647,2.217
				c0,2.275,1.847,4.121,4.123,4.121c0.817,0,1.573-0.235,2.215-0.644c0.408-0.64,0.645-1.399,0.645-2.214
				C67.752,11.029,65.908,9.181,63.629,9.181z"/>
		</g>
		<g>
			<circle fill="#B7B284" cx="40.731" cy="8.565" r="2.348"/>
			<path fill="#C1BE99" d="M40.731,6.218c-0.465,0-0.896,0.134-1.259,0.367c-0.233,0.367-0.368,0.798-0.368,1.261
				c0,1.297,1.05,2.35,2.347,2.35c0.465,0,0.898-0.136,1.262-0.37c0.232-0.363,0.366-0.796,0.366-1.261
				C43.079,7.269,42.027,6.218,40.731,6.218z"/>
		</g>
		<g>
			<path fill="#B7B284" d="M75.85,34.125c0,2.365-1.917,4.288-4.283,4.288c-2.367,0-4.285-1.923-4.285-4.288
				c0-2.363,1.917-4.281,4.285-4.281C73.933,29.844,75.85,31.762,75.85,34.125z"/>
			<path fill="#C1BE99" d="M71.567,29.844c-0.849,0-1.637,0.243-2.301,0.67c-0.425,0.663-0.668,1.449-0.668,2.298
				c0,2.366,1.917,4.286,4.282,4.286c0.846,0,1.635-0.246,2.299-0.67c0.428-0.666,0.671-1.453,0.671-2.303
				C75.85,31.762,73.933,29.844,71.567,29.844z"/>
		</g>
		<g>
			<circle fill="#B7B284" cx="58.446" cy="51.699" r="3.693"/>
			<path fill="#C1BE99" d="M58.447,48.006c-0.731,0-1.41,0.215-1.984,0.581c-0.366,0.57-0.577,1.253-0.577,1.982
				c0,2.038,1.653,3.692,3.692,3.692c0.729,0,1.41-0.213,1.982-0.577c0.367-0.573,0.579-1.255,0.579-1.984
				C62.138,49.661,60.485,48.006,58.447,48.006z"/>
		</g>
	</g>
	<g>
		<g>
			<path fill="#FFFFFF" d="M46.422,16.072c-8.842,0-16.325,5.766-18.925,13.739c-4.972,1.105-9.025,4.615-10.883,9.257
				C9.893,39.295,4.512,44.801,4.512,51.575c0,6.767,5.363,12.263,12.068,12.51v0.023h30.074V16.082
				C46.576,16.078,46.5,16.072,46.422,16.072z"/>
			<path fill="#F2F4F9" d="M66.167,33.539c-1.196-9.766-9.451-17.34-19.513-17.457v48.026h18.959v-0.035
				c8.145-0.354,14.643-7.05,14.643-15.282C80.256,40.747,74.049,34.164,66.167,33.539z"/>
		</g>
		<g>
			<path fill="#00E1FF" d="M30.261,54.502l-12.104,3.25l-1.028,0.276c-1.201,0.396-2.332,1.063-3.286,2.015
				c-3.261,3.261-3.261,8.547,0,11.808l17.217-17.217C30.891,54.466,30.61,54.407,30.261,54.502z"/>
			<path fill="#00C6F4" d="M27.666,68.571l0.276-1.038l3.251-12.102c0.094-0.347,0.035-0.629-0.133-0.798L13.843,71.851
				c3.259,3.258,8.547,3.258,11.807,0C26.601,70.898,27.269,69.77,27.666,68.571z"/>
		</g>
		<g>
			<path fill="#00E1FF" d="M68.783,57.007L56.68,60.258l-1.027,0.275c-1.203,0.396-2.334,1.064-3.287,2.016
				c-3.261,3.26-3.261,8.547,0,11.808L69.583,57.14C69.414,56.971,69.136,56.913,68.783,57.007z"/>
			<path fill="#00C6F4" d="M66.19,71.076l0.275-1.037l3.251-12.099c0.094-0.351,0.036-0.632-0.133-0.801L52.366,74.357
				c3.261,3.26,8.547,3.26,11.808,0C65.126,73.403,65.791,72.276,66.19,71.076z"/>
		</g>
		<path opacity="0.2" fill="#122C3D" d="M31.192,55.432l-2.33,8.676h11.671l-9.474-9.474C31.228,54.803,31.286,55.085,31.192,55.432
			z"/>
		<path opacity="0.2" fill="#122C3D" d="M69.716,57.941l-1.559,5.798c2.042-0.437,3.938-1.273,5.587-2.434l-4.161-4.165
			C69.752,57.309,69.81,57.59,69.716,57.941z"/>
		<g>
			<path fill="#83BA36" d="M42.504,77.601c0.113,5.157-5.555,6.106-6.158,6.233c-1.906,0.295-9.973,1.303-10.712,1.501
				c0,0,6.44-7.011,16.053-10.864C42.455,76.071,42.481,77.07,42.504,77.601z"/>
			<path fill="#98D24D" d="M48.027,73.196c-3.073-0.311-6.096,1.186-6.339,1.274c-9.613,3.853-16.053,10.864-16.053,10.864
				c0.447-0.875,0.603-1.967,0.878-3.993c0.535-3.848,2.113-5.948,2.661-6.603c5.963-6.021,11.671-1.092,12.368-0.608
				c4.019-1.706,6.673-1.271,6.673-1.271s0.175,0.007,0.143,0.168C48.315,73.212,48.182,73.206,48.027,73.196z"/>
		</g>
	</g>
</g>
</svg>
