<?xml version="1.0" encoding="utf-8"?>
<!-- Generator: Adobe Illustrator 17.0.0, SVG Export Plug-In . SVG Version: 6.00 Build 0)  -->
<!DOCTYPE svg PUBLIC "-//W3C//DTD SVG 1.1//EN" "http://www.w3.org/Graphics/SVG/1.1/DTD/svg11.dtd">
<svg version="1.1" id="Calque_1" xmlns="http://www.w3.org/2000/svg" xmlns:xlink="http://www.w3.org/1999/xlink" x="0px" y="0px"
	 width="85.68px" height="85.68px" viewBox="0 0 85.68 85.68" enable-background="new 0 0 85.68 85.68" xml:space="preserve">
<g>
	<path fill="#FFFFFF" d="M47.512,5.973c-9.925,0-18.326,6.474-21.242,15.424c-5.581,1.242-10.13,5.181-12.217,10.39
		C6.507,32.043,0.466,38.222,0.466,45.828c0,7.597,6.021,13.765,13.547,14.044v0.026h33.761V5.985
		C47.687,5.982,47.601,5.973,47.512,5.973z"/>
	<path fill="#F2F4F9" d="M69.678,25.579C68.334,14.62,59.067,6.115,47.774,5.985v53.912h21.28v-0.04
		c9.145-0.396,16.44-7.914,16.44-17.154C85.494,33.673,78.526,26.283,69.678,25.579z"/>
	<g>
		<path fill="#00E1FF" d="M32.202,67.126l-3.269-1.888l2.845-0.763c0.153-0.039,0.244-0.198,0.204-0.351l-0.46-1.714
			c-0.04-0.152-0.198-0.244-0.351-0.203l-5.113,1.372l-4.173-2.41l4.173-2.411l5.113,1.372c0.153,0.04,0.311-0.051,0.351-0.204
			l0.46-1.713c0.04-0.153-0.051-0.309-0.204-0.352l-2.845-0.761l3.269-1.888c0.138-0.081,0.184-0.255,0.105-0.393l-0.887-1.535
			c-0.078-0.138-0.255-0.186-0.391-0.105l-3.271,1.886l0.764-2.844c0.04-0.154-0.051-0.312-0.204-0.352l-1.713-0.459
			c-0.153-0.043-0.311,0.049-0.353,0.202l-1.37,5.116l-4.173,2.408v-4.598l3.744-3.744c0.113-0.111,0.113-0.295,0-0.406
			l-1.253-1.255c-0.113-0.111-0.297-0.111-0.407,0l-2.083,2.085V47.22c0-0.158-0.129-0.287-0.287-0.287h-1.774
			c-0.158,0-0.287,0.129-0.287,0.287v3.997l-2.083-2.085c-0.111-0.111-0.295-0.111-0.406,0l-1.255,1.255
			c-0.111,0.111-0.111,0.295,0,0.406l3.744,3.744v4.598l-3.982-2.299l-1.37-5.114c-0.04-0.153-0.198-0.245-0.353-0.203l-1.712,0.46
			c-0.153,0.04-0.245,0.199-0.204,0.352l0.762,2.845l-3.46-1.997c-0.136-0.081-0.315-0.033-0.393,0.105l-0.888,1.535
			c-0.078,0.138-0.031,0.312,0.105,0.393l3.46,1.997l-2.845,0.763c-0.153,0.041-0.244,0.2-0.202,0.353l0.459,1.712
			c0.042,0.153,0.2,0.245,0.351,0.203l5.115-1.37l3.98,2.3l-3.98,2.299L8.09,62.097c-0.151-0.042-0.309,0.05-0.351,0.203
			L7.28,64.014c-0.042,0.153,0.049,0.31,0.202,0.351l2.847,0.765l-3.462,1.997c-0.136,0.079-0.184,0.255-0.105,0.393l0.888,1.535
			c0.078,0.138,0.256,0.186,0.393,0.105l3.46-1.997l-0.762,2.845c-0.042,0.153,0.051,0.311,0.204,0.352l1.712,0.46
			c0.155,0.04,0.313-0.05,0.353-0.203l1.37-5.114l3.982-2.299v4.819l-3.744,3.743c-0.111,0.112-0.111,0.295,0,0.407l1.255,1.253
			c0.111,0.114,0.294,0.114,0.406,0l2.083-2.08v3.774c0,0.158,0.129,0.287,0.287,0.287h1.774c0.158,0,0.287-0.129,0.287-0.287
			v-3.774l2.083,2.08c0.111,0.114,0.295,0.114,0.407,0l1.253-1.253c0.113-0.112,0.113-0.295,0-0.407l-3.744-3.743v-4.819l4.173,2.41
			l1.37,5.112c0.042,0.153,0.2,0.245,0.353,0.203l1.713-0.458c0.153-0.04,0.244-0.201,0.204-0.353l-0.764-2.845l3.271,1.888
			c0.136,0.081,0.313,0.033,0.391-0.105l0.887-1.535C32.386,67.381,32.34,67.205,32.202,67.126z"/>
		<path opacity="0.2" fill="#122C3D" d="M26.123,52.096l-1.61-1.61l-0.026-0.017c0.053,0.107,0.055,0.233-0.034,0.322l-3.744,3.744
			v4.598l4.173-2.408L26.123,52.096z M11.069,59.442c0.948,0.24,1.93,0.393,2.943,0.429v0.026h0.971l-1.779-1.028L11.069,59.442z
			 M14.378,56.836l3.982,2.299v-2.023l-5.337-5.335L14.378,56.836z M20.709,51.217l2.019-2.02l-2.048-2.048
			c0.007,0.026,0.029,0.044,0.029,0.071V51.217z M38.036,59.897l-6.616-6.614l0.887,1.535c0.079,0.138,0.033,0.312-0.105,0.393
			l-3.269,1.888l2.845,0.761c0.153,0.043,0.244,0.2,0.204,0.352l-0.451,1.685H38.036z M30.172,53.672l-1.701-1.701l-0.013,0.004
			c0.055,0.068,0.087,0.153,0.064,0.245l-0.764,2.844L30.172,53.672z M24.085,59.897h6.22l-4.248-1.139L24.085,59.897z"/>
	</g>
	<path fill="#00E1FF" d="M75.823,67.126l-3.269-1.888l2.845-0.763c0.153-0.039,0.244-0.198,0.204-0.351l-0.46-1.714
		c-0.04-0.152-0.198-0.244-0.351-0.203l-5.113,1.372l-4.173-2.41l4.173-2.411l5.113,1.372c0.153,0.04,0.311-0.051,0.351-0.204
		l0.46-1.713c0.04-0.153-0.051-0.309-0.204-0.352l-2.845-0.761l3.269-1.888c0.138-0.081,0.184-0.255,0.105-0.393l-0.887-1.535
		c-0.079-0.138-0.255-0.186-0.391-0.105l-3.271,1.886l0.764-2.844c0.04-0.154-0.051-0.312-0.204-0.352l-1.713-0.459
		c-0.153-0.043-0.311,0.049-0.353,0.202l-1.37,5.116l-4.173,2.408v-4.598l3.744-3.744c0.113-0.111,0.113-0.295,0-0.406l-1.253-1.255
		c-0.113-0.111-0.297-0.111-0.407,0l-2.083,2.085V47.22c0-0.158-0.129-0.287-0.288-0.287h-1.774c-0.158,0-0.287,0.129-0.287,0.287
		v3.997l-2.083-2.085c-0.111-0.111-0.295-0.111-0.406,0l-1.255,1.255c-0.111,0.111-0.111,0.295,0,0.406l3.743,3.744v4.598
		l-3.982-2.299l-1.37-5.114c-0.04-0.153-0.198-0.245-0.353-0.203l-1.712,0.46c-0.153,0.04-0.245,0.199-0.204,0.352l0.762,2.845
		l-3.46-1.997c-0.136-0.081-0.315-0.033-0.393,0.105l-0.888,1.535c-0.078,0.138-0.031,0.312,0.105,0.393l3.46,1.997l-2.845,0.763
		c-0.153,0.041-0.244,0.2-0.202,0.353l0.459,1.712c0.042,0.153,0.2,0.245,0.351,0.203l5.115-1.37l3.98,2.3l-3.98,2.299l-5.115-1.372
		c-0.151-0.042-0.309,0.05-0.351,0.203l-0.459,1.714c-0.042,0.153,0.049,0.31,0.202,0.351l2.847,0.765l-3.462,1.997
		c-0.136,0.079-0.184,0.255-0.105,0.393l0.888,1.535c0.078,0.138,0.256,0.186,0.393,0.105l3.46-1.997l-0.762,2.845
		c-0.042,0.153,0.051,0.311,0.204,0.352l1.712,0.46c0.155,0.04,0.313-0.05,0.353-0.203l1.37-5.114l3.982-2.299v4.819l-3.743,3.743
		c-0.111,0.112-0.111,0.295,0,0.407l1.255,1.253c0.111,0.114,0.294,0.114,0.406,0l2.083-2.08v3.774c0,0.158,0.13,0.287,0.287,0.287
		h1.774c0.158,0,0.288-0.129,0.288-0.287v-3.774l2.083,2.08c0.111,0.114,0.294,0.114,0.407,0l1.253-1.253
		c0.113-0.112,0.113-0.295,0-0.407l-3.744-3.743v-4.819l4.173,2.41l1.37,5.112c0.042,0.153,0.2,0.245,0.353,0.203l1.713-0.458
		c0.153-0.04,0.244-0.201,0.204-0.353l-0.764-2.845l3.271,1.888c0.136,0.081,0.313,0.033,0.391-0.105l0.887-1.535
		C76.007,67.381,75.961,67.205,75.823,67.126z"/>
	<path opacity="0.2" fill="#122C3D" d="M67.706,59.897h1.348v-0.04c0.537-0.024,1.066-0.076,1.589-0.147
		c0.505-0.071,1.006-0.166,1.497-0.276c0.011-0.002,0.022-0.004,0.031-0.006l-2.492-0.669L67.706,59.897z M73.793,53.672
		l-1.701-1.701l-0.013,0.004c0.055,0.07,0.087,0.153,0.064,0.245l-0.764,2.844L73.793,53.672z M69.743,52.096l-1.61-1.61
		l-0.026-0.017c0.026,0.053,0.042,0.102,0.033,0.158c-0.002,0.06-0.02,0.116-0.067,0.164l-3.744,3.744v4.598l4.173-2.408
		L69.743,52.096z M52.991,59.897h5.614l-1.779-1.028L52.991,59.897z M75.041,53.283l0.887,1.535
		c0.079,0.138,0.033,0.312-0.105,0.393l-3.269,1.888l2.845,0.761c0.153,0.043,0.244,0.2,0.204,0.352l-0.011,0.04
		c0.491-0.232,0.968-0.482,1.432-0.757c0.003,0,0.005-0.004,0.009-0.004c0.461-0.273,0.908-0.566,1.341-0.879L75.041,53.283z
		 M64.33,51.217l2.019-2.02l-2.048-2.048c0.007,0.026,0.029,0.044,0.029,0.071V51.217z M57.999,56.836l3.982,2.299v-2.023
		l-5.337-5.335L57.999,56.836z"/>
	<g>
		<path fill="#00E1FF" d="M52.691,78.205c0,0.531-0.434,0.964-0.968,0.964H31.256c-0.529,0-0.966-0.433-0.966-0.964v-2.096
			c0-0.531,0.437-0.966,0.966-0.966h20.467c0.533,0,0.968,0.435,0.968,0.966V78.205z"/>
	</g>
</g>
</svg>
