<?xml version="1.0" encoding="utf-8"?>
<!-- Generator: Adobe Illustrator 17.0.0, SVG Export Plug-In . SVG Version: 6.00 Build 0)  -->
<!DOCTYPE svg PUBLIC "-//W3C//DTD SVG 1.1//EN" "http://www.w3.org/Graphics/SVG/1.1/DTD/svg11.dtd">
<svg version="1.1" id="Calque_1" xmlns="http://www.w3.org/2000/svg" xmlns:xlink="http://www.w3.org/1999/xlink" x="0px" y="0px"
	 width="85.68px" height="85.68px" viewBox="0 0 85.68 85.68" enable-background="new 0 0 85.68 85.68" xml:space="preserve">
<g>
	<g>
		<circle fill="#C6C5A3" cx="50.406" cy="34.146" r="33.599"/>
		<path fill="#D1D1B0" d="M50.405,0.546c-6.643,0-12.829,1.936-18.043,5.262c-3.326,5.212-5.258,11.398-5.258,18.041
			c0,18.556,15.04,33.598,33.598,33.598c6.641,0,12.827-1.934,18.042-5.258c3.324-5.215,5.26-11.399,5.26-18.043
			C84.005,15.588,68.961,0.546,50.405,0.546z"/>
		<g>
			<circle fill="#B7B284" cx="28.734" cy="30.001" r="6.299"/>
			<path fill="#C1BE99" d="M28.735,23.703c-1.244,0-2.405,0.362-3.382,0.986c-0.622,0.978-0.987,2.137-0.987,3.381
				c0,3.481,2.819,6.298,6.3,6.298c1.245,0,2.404-0.361,3.381-0.986c0.624-0.976,0.987-2.137,0.987-3.381
				C35.033,26.524,32.214,23.703,28.735,23.703z"/>
		</g>
		<g>
			<circle fill="#B7B284" cx="51.936" cy="32.712" r="8.827"/>
			<path fill="#C1BE99" d="M51.935,23.882c-1.746,0-3.37,0.511-4.739,1.383c-0.872,1.369-1.383,2.994-1.383,4.739
				c0,4.874,3.953,8.827,8.827,8.827c1.746,0,3.369-0.508,4.739-1.38c0.875-1.371,1.383-2.996,1.383-4.739
				C60.763,27.836,56.812,23.882,51.935,23.882z"/>
		</g>
		<g>
			<path fill="#B7B284" d="M40.1,51.574c0,2.037-1.651,3.689-3.688,3.689c-2.037,0-3.688-1.652-3.688-3.689
				c0-2.035,1.651-3.688,3.688-3.688C38.449,47.887,40.1,49.54,40.1,51.574z"/>
			<path fill="#C1BE99" d="M36.412,47.887c-0.729,0-1.408,0.213-1.982,0.578c-0.364,0.572-0.576,1.251-0.576,1.982
				c0,2.037,1.649,3.687,3.688,3.687c0.729,0,1.408-0.212,1.98-0.576c0.366-0.574,0.577-1.252,0.577-1.983
				C40.1,49.54,38.449,47.887,36.412,47.887z"/>
		</g>
		<g>
			<path fill="#B7B284" d="M70.694,14.759c0,2.5-2.023,4.525-4.524,4.525c-2.499,0-4.524-2.025-4.524-4.525
				c0-2.495,2.025-4.522,4.524-4.522C68.671,10.238,70.694,12.264,70.694,14.759z"/>
			<path fill="#C1BE99" d="M66.17,10.238c-0.894,0-1.726,0.259-2.428,0.708c-0.45,0.701-0.709,1.533-0.709,2.43
				c0,2.495,2.026,4.52,4.522,4.52c0.896,0,1.726-0.258,2.432-0.708c0.446-0.7,0.707-1.532,0.707-2.428
				C70.694,12.264,68.671,10.238,66.17,10.238z"/>
		</g>
		<g>
			<circle fill="#B7B284" cx="41.053" cy="9.562" r="2.576"/>
			<path fill="#C1BE99" d="M41.053,6.985c-0.51,0-0.983,0.149-1.381,0.403c-0.256,0.402-0.404,0.875-0.404,1.385
				c0,1.422,1.152,2.576,2.574,2.576c0.51,0,0.985-0.148,1.385-0.403c0.254-0.4,0.402-0.875,0.402-1.383
				C43.629,8.139,42.475,6.985,41.053,6.985z"/>
		</g>
		<g>
			<path fill="#B7B284" d="M79.575,37.597c0,2.594-2.103,4.703-4.696,4.703c-2.599,0-4.702-2.109-4.702-4.703
				c0-2.593,2.103-4.698,4.702-4.698C77.472,32.899,79.575,35.005,79.575,37.597z"/>
			<path fill="#C1BE99" d="M74.879,32.899c-0.932,0-1.797,0.268-2.524,0.738c-0.467,0.725-0.734,1.589-0.734,2.52
				c0,2.596,2.103,4.698,4.696,4.698c0.928,0,1.794-0.268,2.523-0.734c0.469-0.729,0.736-1.594,0.736-2.525
				C79.575,35.005,77.472,32.899,74.879,32.899z"/>
		</g>
		<g>
			<circle fill="#B7B284" cx="60.485" cy="56.874" r="4.05"/>
			<path fill="#C1BE99" d="M60.486,52.824c-0.802,0-1.546,0.235-2.174,0.634c-0.402,0.628-0.635,1.374-0.635,2.174
				c0,2.237,1.814,4.049,4.049,4.049c0.8,0,1.547-0.231,2.174-0.633c0.402-0.629,0.634-1.376,0.634-2.176
				C64.535,54.638,62.724,52.824,60.486,52.824z"/>
		</g>
	</g>
	<g>
		<path fill="#FFFFFF" d="M47.564,18.909c-9.697,0-17.905,6.326-20.757,15.071c-5.454,1.212-9.899,5.063-11.938,10.152
			C7.498,44.383,1.595,50.421,1.595,57.853c0,7.423,5.882,13.451,13.238,13.723v0.025H47.82V18.921
			C47.735,18.917,47.652,18.909,47.564,18.909z"/>
		<path fill="#F2F4F9" d="M69.226,38.067c-1.316-10.709-10.37-19.02-21.406-19.146v52.681h20.794v-0.039
			c8.938-0.387,16.066-7.733,16.066-16.763C84.68,45.976,77.872,38.755,69.226,38.067z"/>
		<g>
			<g>
				<path fill="#00E1FF" d="M41.384,61.465c0,0.519-0.425,0.942-0.944,0.942H9.969c-0.517,0-0.944-0.423-0.944-0.942v-2.048
					c0-0.519,0.427-0.946,0.944-0.946H40.44c0.519,0,0.944,0.427,0.944,0.946V61.465z"/>
			</g>
			<g>
				<path fill="#00E1FF" d="M13.144,82.493c0-0.519,0.427-0.945,0.946-0.945H44.56c0.517,0,0.942,0.426,0.942,0.945v2.044
					c0,0.52-0.425,0.949-0.942,0.949H14.089c-0.519,0-0.946-0.429-0.946-0.949V82.493z"/>
			</g>
			<g>
				<path fill="#00E1FF" d="M64.686,72.767c0,0.519-0.423,0.942-0.946,0.942H43.743c-0.519,0-0.944-0.423-0.944-0.942v-2.048
					c0-0.519,0.425-0.944,0.944-0.944H63.74c0.523,0,0.946,0.425,0.946,0.944V72.767z"/>
			</g>
			<g>
				<path fill="#00E1FF" d="M53.059,82.493c0-0.519,0.423-0.941,0.946-0.941h19.998c0.519,0,0.944,0.422,0.944,0.941v2.048
					c0,0.52-0.425,0.944-0.944,0.944H54.004c-0.522,0-0.946-0.424-0.946-0.944V82.493z"/>
			</g>
			<g>
				<path fill="#00E1FF" d="M19.269,72.799c0,0.501,0.411,0.91,0.91,0.91h12.059c0.502,0,0.91-0.409,0.91-0.91v-2.112
					c0-0.501-0.409-0.91-0.91-0.91H20.179c-0.499,0-0.91,0.409-0.91,0.91V72.799z"/>
			</g>
			<g>
				<path fill="#00E1FF" d="M64.775,61.499c0,0.501,0.409,0.91,0.91,0.91h12.059c0.502,0,0.91-0.409,0.91-0.91v-2.114
					c0-0.501-0.408-0.91-0.91-0.91H65.685c-0.502,0-0.91,0.409-0.91,0.91V61.499z"/>
			</g>
			<g>
				<path fill="#00E1FF" d="M49.53,61.499c0,0.501,0.409,0.91,0.91,0.91h3.413c0.501,0,0.91-0.409,0.91-0.91v-2.114
					c0-0.501-0.409-0.91-0.91-0.91H50.44c-0.501,0-0.91,0.409-0.91,0.91V61.499z"/>
			</g>
		</g>
		<path opacity="0.2" fill="#122C3D" d="M54.764,59.385v2.114c0,0.501-0.409,0.91-0.91,0.91H50.44c-0.249,0-0.476-0.101-0.64-0.265
			l7.631,7.631h6.309c0.523,0,0.946,0.425,0.946,0.944v0.882h2.621L54.598,58.893C54.694,59.037,54.764,59.201,54.764,59.385z
			 M41.384,59.417v2.048c0,0.519-0.425,0.942-0.944,0.942H9.969c-0.249,0-0.473-0.101-0.642-0.261l-0.013,0.013l9.443,9.443h0.512
			v-0.914c0-0.501,0.411-0.91,0.91-0.91h12.059c0.502,0,0.91,0.409,0.91,0.91v0.914h9.65v-0.882c0-0.519,0.425-0.944,0.944-0.944
			h8.342l-10.88-10.88C41.309,59.048,41.384,59.221,41.384,59.417z M49.765,62.093l-0.007,0.009l0.038,0.038
			C49.783,62.127,49.777,62.107,49.765,62.093z M78.512,58.888l-0.025,0.004c0.096,0.144,0.167,0.308,0.167,0.494v2.114
			c0,0.501-0.408,0.91-0.91,0.91H65.685c-0.213,0-0.402-0.085-0.558-0.209l-0.011,0.015l8.392,8.392
			c3.874-1.374,7.082-4.129,9.053-7.67L78.512,58.888z"/>
	</g>
</g>
</svg>
