<?xml version="1.0" encoding="utf-8"?>
<!-- Generator: Adobe Illustrator 17.0.0, SVG Export Plug-In . SVG Version: 6.00 Build 0)  -->
<!DOCTYPE svg PUBLIC "-//W3C//DTD SVG 1.1//EN" "http://www.w3.org/Graphics/SVG/1.1/DTD/svg11.dtd">
<svg version="1.1" id="Calque_1" xmlns="http://www.w3.org/2000/svg" xmlns:xlink="http://www.w3.org/1999/xlink" x="0px" y="0px"
	 width="85.68px" height="85.68px" viewBox="0 0 85.68 85.68" enable-background="new 0 0 85.68 85.68" xml:space="preserve">
<g>
	<path fill="#F2F4F9" d="M40.317,48.159c3.646,0,7.031,1.079,9.885,2.915V7.564c0-3.823-3.127-6.95-6.951-6.95h-5.87
		c-3.822,0-6.95,3.127-6.95,6.95v43.512C33.283,49.238,36.671,48.159,40.317,48.159z"/>
	<circle fill="#F2F4F9" cx="40.316" cy="66.464" r="18.303"/>
	<circle fill="#00E1FF" cx="40.316" cy="66.464" r="14.132"/>
	<g>
		<path fill="#98D24D" d="M32.748,33.563v16.248c2.309-1.05,4.866-1.652,7.569-1.652c2.702,0,5.259,0.602,7.567,1.652V33.563H32.748
			z"/>
		<path fill="#D1D1B0" d="M47.884,7.564c0-2.55-2.083-4.634-4.633-4.634h-5.87c-2.549,0-4.633,2.084-4.633,4.634v25.999h15.136
			V7.564z"/>
	</g>
	<path opacity="0.2" fill="#122C3D" d="M40.317,45.567c-3.576,0-6.942,0.902-9.886,2.485v3.023c2.853-1.838,6.24-2.917,9.886-2.917
		c3.646,0,7.031,1.079,9.885,2.915v-3.022C47.258,46.47,43.892,45.567,40.317,45.567z"/>
	<g>
		<g>
			<path fill="#00E1FF" d="M64.464,9.846c0,0.335-0.273,0.61-0.609,0.61h-9.001c-0.336,0-0.61-0.275-0.61-0.61V6.338
				c0-0.336,0.273-0.611,0.61-0.611h9.001c0.335,0,0.609,0.275,0.609,0.611V9.846z"/>
		</g>
		<g>
			<path fill="#00E1FF" d="M60.041,22.404c0,0.335-0.273,0.609-0.609,0.609h-4.577c-0.336,0-0.61-0.273-0.61-0.609v-3.507
				c0-0.336,0.273-0.611,0.61-0.611h4.577c0.336,0,0.609,0.275,0.609,0.611V22.404z"/>
		</g>
		<g>
			<path fill="#00E1FF" d="M60.041,34.96c0,0.335-0.273,0.61-0.609,0.61h-4.577c-0.336,0-0.61-0.275-0.61-0.61v-3.507
				c0-0.336,0.273-0.609,0.61-0.609h4.577c0.336,0,0.609,0.273,0.609,0.609V34.96z"/>
		</g>
		<g>
			<path fill="#00E1FF" d="M64.464,47.519c0,0.335-0.273,0.61-0.609,0.61h-9.001c-0.336,0-0.61-0.275-0.61-0.61v-3.507
				c0-0.336,0.273-0.611,0.61-0.611h9.001c0.335,0,0.609,0.275,0.609,0.611V47.519z"/>
		</g>
	</g>
</g>
</svg>
