<?xml version="1.0" encoding="utf-8"?>
<!-- Generator: Adobe Illustrator 17.0.0, SVG Export Plug-In . SVG Version: 6.00 Build 0)  -->
<!DOCTYPE svg PUBLIC "-//W3C//DTD SVG 1.1//EN" "http://www.w3.org/Graphics/SVG/1.1/DTD/svg11.dtd">
<svg version="1.1" id="Calque_1" xmlns="http://www.w3.org/2000/svg" xmlns:xlink="http://www.w3.org/1999/xlink" x="0px" y="0px"
	 width="85.68px" height="85.68px" viewBox="0 0 85.68 85.68" enable-background="new 0 0 85.68 85.68" xml:space="preserve">
<g>
	<path fill="#FFFFFF" d="M44.824,2.336V2.182h-0.03c-0.084-0.766-0.711-1.374-1.502-1.374c-0.79,0-1.418,0.607-1.505,1.374h-0.031
		v0.154c0,0.004,0,0.006,0,0.006s0,0.004,0,0.006v68.977h3.067V2.347c0-0.002,0-0.004,0-0.004
		C44.824,2.342,44.824,2.34,44.824,2.336z"/>
	<path fill="#98D24D" d="M41.757,71.324V76.6c-0.008,2.539-1.955,4.501-4.245,4.509c-2.288-0.008-4.235-1.97-4.242-4.509
		c-0.004-0.849-0.688-1.535-1.535-1.535c-0.845,0-1.533,0.686-1.533,1.535h-0.004c0.008,4.13,3.22,7.564,7.315,7.574
		c4.094-0.009,7.304-3.444,7.312-7.574v-5.276H41.757z"/>
	<path fill="#00C6F4" d="M82.316,37.852C80.078,19.179,63.398,4.664,43.13,4.643c17.546,5.484,19.694,33.849,19.705,34.045h0.103
		c0.915-4.586,4.924-8.055,9.776-8.055C77.272,30.633,81.11,33.682,82.316,37.852z"/>
	<path fill="#00E1FF" d="M23.37,38.688c0.011-0.196,2.158-28.566,19.715-34.047c-20.459,0-37.268,14.76-39.293,33.663
		c1.054-4.398,5-7.672,9.722-7.672c4.85,0,8.861,3.469,9.773,8.055H23.37z"/>
	<path fill="#00E1FF" d="M43.13,4.643c-0.015,0-0.03-0.002-0.045-0.002h-0.011v34.047h0.132c0.911-4.586,4.92-8.055,9.776-8.055
		c4.85,0,8.861,3.469,9.773,8.055h0.079C62.824,38.492,60.676,10.13,43.13,4.643z"/>
	<path fill="#00C6F4" d="M23.37,38.688h0.101c0.913-4.586,4.922-8.055,9.772-8.055c4.855,0,8.865,3.469,9.777,8.055h0.053V4.645
		C25.526,10.13,23.381,38.492,23.37,38.688z"/>
	<path opacity="0.2" fill="#122C3D" d="M43.134,3.48c-0.015,0-0.034-0.002-0.049-0.002h-0.008c-0.443,0-0.881,0.017-1.32,0.03v1.194
		c0.443-0.015,0.874-0.061,1.316-0.061h0.011c0.014,0,0.03,0.002,0.045,0.002c0.571,0.002,1.127,0.055,1.694,0.08V3.518
		C44.264,3.499,43.701,3.48,43.134,3.48z"/>
	<path opacity="0.2" fill="#122C3D" d="M44.824,44.085v-9.134c-0.767,1.113-1.346,2.362-1.618,3.737H43.02
		c-0.227-1.161-0.669-2.235-1.263-3.207v5.539L44.824,44.085z"/>
</g>
</svg>
