<svg xmlns="http://www.w3.org/2000/svg" width="1920" height="1080"><path d="M-236-189l322 13 158-11z" fill="#fff1ac" stroke="#fff1ac" stroke-width="1.51"/><path d="M243 1252l-168 5 333-3z" fill="#d07e50" stroke="#d07e50" stroke-width="1.51"/><path d="M400-178l167 5 145-2z" fill="#ffd988" stroke="#ffd988" stroke-width="1.51"/><path d="M244-187l156 9 312 3z" fill="#ffe090" stroke="#ffe090" stroke-width="1.51"/><path d="M559 1258l-151-4 319 14z" fill="#cc6b3d" stroke="#cc6b3d" stroke-width="1.51"/><path d="M408 1254l-333 3 652 11z" fill="#ce7647" stroke="#ce7647" stroke-width="1.51"/><path d="M75 1257l-310 8 962 3z" fill="#cf7e54" stroke="#cf7e54" stroke-width="1.51"/><path d="M-236-189l480 2 800-1z" fill="#ffe697" stroke="#ffe697" stroke-width="1.51"/><path d="M712-175l174-2 158-11z" fill="#ffc77d" stroke="#ffc77d" stroke-width="1.51"/><path d="M244-187l468 12 332-13z" fill="#ffd383" stroke="#ffd383" stroke-width="1.51"/><path d="M885 1266l-158 2 624-1z" fill="#c94f31" stroke="#c94f31" stroke-width="1.51"/><path d="M1192 1262l-307 4 466 1z" fill="#c93f2d" stroke="#c93f2d" stroke-width="1.51"/><path d="M1044-188l155 14 160-3z" fill="#ffb072" stroke="#ffb072" stroke-width="1.51"/><path d="M1359-177h166l151-5z" fill="#fe9e69" stroke="#fe9e69" stroke-width="1.51"/><path d="M1044-188l315 11 317-5z" fill="#ffa66e" stroke="#ffa66e" stroke-width="1.51"/><path d="M1680 1264h-165l330 4z" fill="#b70923" stroke="#b70923" stroke-width="1.51"/><path d="M1515 1264l-164 3 494 1z" fill="#bd1123" stroke="#bd1123" stroke-width="1.51"/><path d="M1044-188l632 6 323-5z" fill="#fd9b69" stroke="#fd9b69" stroke-width="1.51"/><path d="M1676-182l156 9 167-14z" fill="#ec936b" stroke="#ec936b" stroke-width="1.51"/><path d="M2008 1105l-9 158 153-9z" fill="#a50026" stroke="#a50026" stroke-width="1.51"/><path d="M2005-28l-5 162 154-157z" fill="#d68257" stroke="#d68257" stroke-width="1.51"/><path d="M2000 455l-7 160 162-152z" fill="#d15732" stroke="#d15732" stroke-width="1.51"/><path d="M1998 940l10 165 149-171z" fill="#be0923" stroke="#be0923" stroke-width="1.51"/><path d="M1044-188l955 1 159-2z" fill="#f3966a" stroke="#f3966a" stroke-width="1.51"/><path d="M2005-28l149 5 4-166z" fill="#d18661" stroke="#d18661" stroke-width="1.51"/><path d="M1999-187l6 159 153-161z" fill="#d88a66" stroke="#d88a66" stroke-width="1.51"/><path d="M1993 615l-2 159 167 2z" fill="#cf322a" stroke="#cf322a" stroke-width="1.51"/><path d="M1998 940l159-6 1-158z" fill="#c11924" stroke="#c11924" stroke-width="1.51"/><path d="M1991 774l7 166 160-164z" fill="#ca2226" stroke="#ca2226" stroke-width="1.51"/><path d="M2000 455l155 8 5-156z" fill="#cc6036" stroke="#cc6036" stroke-width="1.51"/><path d="M2005 302l-5 153 160-148z" fill="#d26638" stroke="#d26638" stroke-width="1.51"/><path d="M1993 615l165 161 6-160z" fill="#ca3c2c" stroke="#ca3c2c" stroke-width="1.51"/><path d="M2155 463l-162 152 171 1z" fill="#cb4e31" stroke="#cb4e31" stroke-width="1.51"/><path d="M2160 307l-5 156 9 153z" fill="#c65935" stroke="#c65935" stroke-width="1.51"/><path d="M2154-23l-154 157 166 13z" fill="#d07d51" stroke="#d07d51" stroke-width="1.51"/><path d="M2005 302l155 5 6-160z" fill="#cd6f41" stroke="#cd6f41" stroke-width="1.51"/><path d="M2000 134l5 168 161-155z" fill="#d37747" stroke="#d37747" stroke-width="1.51"/><path d="M2158-189l-4 166 12 170z" fill="#cb815b" stroke="#cb815b" stroke-width="1.51"/><path d="M2160 307l4 309 2-469z" fill="#c66339" stroke="#c66339" stroke-width="1.51"/><path d="M2157 934l-149 171 160-9z" fill="#b30624" stroke="#b30624" stroke-width="1.51"/><path d="M2008 1105l144 149 16-158z" fill="#a80026" stroke="#a80026" stroke-width="1.51"/><path d="M2164 616l-6 160 10 320z" fill="#be2127" stroke="#be2127" stroke-width="1.51"/><path d="M2158 776l-1 158 11 162z" fill="#b90d23" stroke="#b90d23" stroke-width="1.51"/><path d="M-236-189l147 12 175 1z" fill="#fff4b3" stroke="#fff4b3" stroke-width="1.51"/><path d="M1031 1252l-146 14 307-4z" fill="#ca4b30" stroke="#ca4b30" stroke-width="1.51"/><path d="M1833 620l7 155 151-1z" fill="#de3628" stroke="#de3628" stroke-width="1.51"/><path d="M1840 775l4 170 147-171z" fill="#d82425" stroke="#d82425" stroke-width="1.51"/><path d="M1833 620l158 154 2-159z" fill="#db402b" stroke="#db402b" stroke-width="1.51"/><path d="M1833 456v164l160-5z" fill="#e0542f" stroke="#e0542f" stroke-width="1.51"/><path d="M1991 774l-147 171 154-5z" fill="#d11a24" stroke="#d11a24" stroke-width="1.51"/><path d="M1844 945l3 159 151-164z" fill="#cc0c22" stroke="#cc0c22" stroke-width="1.51"/><path d="M1832-173l14 152 153-166z" fill="#e88f65" stroke="#e88f65" stroke-width="1.51"/><path d="M1847 1104l-2 164 154-5z" fill="#b30126" stroke="#b30126" stroke-width="1.51"/><path d="M1833 456l160 159 7-160z" fill="#dc5a32" stroke="#dc5a32" stroke-width="1.51"/><path d="M1842 303l-9 153 167-1z" fill="#e16635" stroke="#e16635" stroke-width="1.51"/><path d="M1846-21l1 167 153-12z" fill="#e58450" stroke="#e58450" stroke-width="1.51"/><path d="M1846-21l154 155 5-162z" fill="#e18657" stroke="#e18657" stroke-width="1.51"/><path d="M1999-187L1846-21l159-7z" fill="#e28b61" stroke="#e28b61" stroke-width="1.51"/><path d="M1842 303l158 152 5-153z" fill="#dc6a38" stroke="#dc6a38" stroke-width="1.51"/><path d="M2000 134l-153 12 158 156z" fill="#df7b46" stroke="#df7b46" stroke-width="1.51"/><path d="M1847 146l-5 157 163-1z" fill="#e37740" stroke="#e37740" stroke-width="1.51"/><path d="M1847 1104l152 159 9-158z" fill="#b70026" stroke="#b70026" stroke-width="1.51"/><path d="M1998 940l-151 164 161 1z" fill="#c20624" stroke="#c20624" stroke-width="1.51"/><path d="M1676-182l1 153 155-144z" fill="#f39464" stroke="#f39464" stroke-width="1.51"/><path d="M1679 296l-7 164 161-4z" fill="#eb6a33" stroke="#eb6a33" stroke-width="1.51"/><path d="M1833 456l-161 4 161 160z" fill="#e75e2f" stroke="#e75e2f" stroke-width="1.51"/><path d="M1672 460l2 164 159-4z" fill="#e9572c" stroke="#e9572c" stroke-width="1.51"/><path d="M1833 620l-159 4 166 151z" fill="#e54329" stroke="#e54329" stroke-width="1.51"/><path d="M1674 624l-2 154 168-3z" fill="#e83926" stroke="#e83926" stroke-width="1.51"/><path d="M1679 296l154 160 9-153z" fill="#e86f35" stroke="#e86f35" stroke-width="1.51"/><path d="M1686 144l-7 152 163 7z" fill="#ed7b3e" stroke="#ed7b3e" stroke-width="1.51"/><path d="M1840 775l-168 3 172 167z" fill="#de2723" stroke="#de2723" stroke-width="1.51"/><path d="M1672 778l1 169 171-2z" fill="#de2020" stroke="#de2020" stroke-width="1.51"/><path d="M1673 947l1 153 170-155z" fill="#d51320" stroke="#d51320" stroke-width="1.51"/><path d="M1832-173L1677-29l169 8z" fill="#ee905e" stroke="#ee905e" stroke-width="1.51"/><path d="M1677-29l9 173 160-165z" fill="#f08c54" stroke="#f08c54" stroke-width="1.51"/><path d="M1846-21l-160 165 161 2z" fill="#eb874f" stroke="#eb874f" stroke-width="1.51"/><path d="M1686 144l156 159 5-157z" fill="#ea7f44" stroke="#ea7f44" stroke-width="1.51"/><path d="M1844 945l-170 155 173 4z" fill="#ce0d23" stroke="#ce0d23" stroke-width="1.51"/><path d="M1680 1264l165 4 2-164z" fill="#b90525" stroke="#b90525" stroke-width="1.51"/><path d="M1674 1100l6 164 167-160z" fill="#c50824" stroke="#c50824" stroke-width="1.51"/><path d="M1516 624l12 164 144-10z" fill="#f13d24" stroke="#f13d24" stroke-width="1.51"/><path d="M1520 308l-1 148 153 4z" fill="#f46f30" stroke="#f46f30" stroke-width="1.51"/><path d="M1519 456l-3 168 156-164z" fill="#f2642d" stroke="#f2642d" stroke-width="1.51"/><path d="M1672 778l-144 10 145 159z" fill="#e82b20" stroke="#e82b20" stroke-width="1.51"/><path d="M1528 788l-3 151 148 8z" fill="#e7261e" stroke="#e7261e" stroke-width="1.51"/><path d="M1525 939v154l148-146z" fill="#df1a1e" stroke="#df1a1e" stroke-width="1.51"/><path d="M1672 460l-156 164h158z" fill="#f05a2a" stroke="#f05a2a" stroke-width="1.51"/><path d="M1516 624l156 154 2-154z" fill="#ef4626" stroke="#ef4626" stroke-width="1.51"/><path d="M1673 947l-148 146 149 7z" fill="#d71320" stroke="#d71320" stroke-width="1.51"/><path d="M1525 1093l-10 171 159-164z" fill="#cf1322" stroke="#cf1322" stroke-width="1.51"/><path d="M1676-182l-151 5 152 148z" fill="#f99662" stroke="#f99662" stroke-width="1.51"/><path d="M1525-177v161l152-13z" fill="#fb965d" stroke="#fb965d" stroke-width="1.51"/><path d="M1520 308l152 152 7-164z" fill="#f17232" stroke="#f17232" stroke-width="1.51"/><path d="M1524 141l-4 167 159-12z" fill="#f6803c" stroke="#f6803c" stroke-width="1.51"/><path d="M1674 1100l-159 164h165z" fill="#c30c22" stroke="#c30c22" stroke-width="1.51"/><path d="M1677-29l-152 13 161 160z" fill="#f68f52" stroke="#f68f52" stroke-width="1.51"/><path d="M1525-16l-1 157 162 3z" fill="#f88e4c" stroke="#f88e4c" stroke-width="1.51"/><path d="M1524 141l155 155 7-152z" fill="#f48442" stroke="#f48442" stroke-width="1.51"/><path d="M1363 1100l-12 167 164-3z" fill="#cc2426" stroke="#cc2426" stroke-width="1.51"/><path d="M1362 613l-7 170 161-159z" fill="#f8532a" stroke="#f8532a" stroke-width="1.51"/><path d="M1362 613l154 11 3-168z" fill="#f6622d" stroke="#f6622d" stroke-width="1.51"/><path d="M1358 453l4 160 157-157z" fill="#f86d31" stroke="#f86d31" stroke-width="1.51"/><path d="M1361 140l-4 168h163z" fill="#fc8740" stroke="#fc8740" stroke-width="1.51"/><path d="M1358 453l161 3 1-148z" fill="#f87533" stroke="#f87533" stroke-width="1.51"/><path d="M1357 308l1 145 162-145z" fill="#fa7c36" stroke="#fa7c36" stroke-width="1.51"/><path d="M1361 140l159 168 4-167z" fill="#fa8b44" stroke="#fa8b44" stroke-width="1.51"/><path d="M1361 140l163 1 1-157z" fill="#fc934f" stroke="#fc934f" stroke-width="1.51"/><path d="M1353-26l8 166 164-156z" fill="#ff9956" stroke="#ff9956" stroke-width="1.51"/><path d="M1353-26l172 10v-161z" fill="#fe9b60" stroke="#fe9b60" stroke-width="1.51"/><path d="M1359-177l-6 151 172-151z" fill="#ffa067" stroke="#ffa067" stroke-width="1.51"/><path d="M1363 1100l152 164 10-171z" fill="#d31f25" stroke="#d31f25" stroke-width="1.51"/><path d="M1364 946l-1 154 162-7z" fill="#e02823" stroke="#e02823" stroke-width="1.51"/><path d="M1364 946l161 147V939z" fill="#e32620" stroke="#e32620" stroke-width="1.51"/><path d="M1516 624l-161 159 173 5z" fill="#f54326" stroke="#f54326" stroke-width="1.51"/><path d="M1364 946l161-7 3-151z" fill="#eb2f20" stroke="#eb2f20" stroke-width="1.51"/><path d="M1355 783l9 163 164-158z" fill="#f13a23" stroke="#f13a23" stroke-width="1.51"/><path d="M-85 1253l-150 12 310-8z" fill="#d18764" stroke="#d18764" stroke-width="1.51"/><path d="M1203 1106l-11 156 159 5z" fill="#d1332a" stroke="#d1332a" stroke-width="1.51"/><path d="M1198-20l7 151 148-157z" fill="#ffa25b" stroke="#ffa25b" stroke-width="1.51"/><path d="M1199-174l-1 154 155-6z" fill="#ffa766" stroke="#ffa766" stroke-width="1.51"/><path d="M1192 614l8 173 155-4z" fill="#fc542b" stroke="#fc542b" stroke-width="1.51"/><path d="M1200 787v146l155-150z" fill="#f64827" stroke="#f64827" stroke-width="1.51"/><path d="M1195 306l11 150 151-148z" fill="#ff863a" stroke="#ff863a" stroke-width="1.51"/><path d="M1205 131l-10 175 162 2z" fill="#ff9144" stroke="#ff9144" stroke-width="1.51"/><path d="M1357 308l-151 148 152-3z" fill="#fd7d37" stroke="#fd7d37" stroke-width="1.51"/><path d="M1199-174l154 148 6-151z" fill="#ffa669" stroke="#ffa669" stroke-width="1.51"/><path d="M1205 131l152 177 4-168z" fill="#ff9349" stroke="#ff9349" stroke-width="1.51"/><path d="M1353-26l-148 157 156 9z" fill="#ff9c54" stroke="#ff9c54" stroke-width="1.51"/><path d="M1192 614l163 169 7-170z" fill="#fc5a2c" stroke="#fc5a2c" stroke-width="1.51"/><path d="M1358 453l-152 3 156 157z" fill="#fc7234" stroke="#fc7234" stroke-width="1.51"/><path d="M1206 456l-14 158 170-1z" fill="#fd6f32" stroke="#fd6f32" stroke-width="1.51"/><path d="M1203 1106l148 161 12-167z" fill="#d82e28" stroke="#d82e28" stroke-width="1.51"/><path d="M1355 783l-155 150 164 13z" fill="#f23d24" stroke="#f23d24" stroke-width="1.51"/><path d="M1203 1106l160-6 1-154z" fill="#e43126" stroke="#e43126" stroke-width="1.51"/><path d="M1200 933l3 173 161-160z" fill="#ea3a25" stroke="#ea3a25" stroke-width="1.51"/><path d="M1037 1104l-6 148 161 10z" fill="#d2472e" stroke="#d2472e" stroke-width="1.51"/><path d="M1047 617l-4 164 149-167z" fill="#fd6e32" stroke="#fd6e32" stroke-width="1.51"/><path d="M1043 465l4 152 145-3z" fill="#fd7e37" stroke="#fd7e37" stroke-width="1.51"/><path d="M1045 135l3 165 147 6z" fill="#ff9e4a" stroke="#ff9e4a" stroke-width="1.51"/><path d="M1048 300l-5 165 152-159z" fill="#fe933f" stroke="#fe933f" stroke-width="1.51"/><path d="M1031-13l14 148 153-155z" fill="#ffaf5f" stroke="#ffaf5f" stroke-width="1.51"/><path d="M1044-188l-13 175 167-7z" fill="#ffb46b" stroke="#ffb46b" stroke-width="1.51"/><path d="M1044-188l154 168 1-154z" fill="#ffb26f" stroke="#ffb26f" stroke-width="1.51"/><path d="M1043 781l2 166 155-14z" fill="#f4552a" stroke="#f4552a" stroke-width="1.51"/><path d="M1043 781l157 152V787z" fill="#f7552a" stroke="#f7552a" stroke-width="1.51"/><path d="M1192 614l-149 167 157 6z" fill="#fd602e" stroke="#fd602e" stroke-width="1.51"/><path d="M1037 1104l155 158 11-156z" fill="#da432c" stroke="#da432c" stroke-width="1.51"/><path d="M1200 933l-155 14 158 159z" fill="#eb4828" stroke="#eb4828" stroke-width="1.51"/><path d="M1045 947l-8 157 166 2z" fill="#e64c2b" stroke="#e64c2b" stroke-width="1.51"/><path d="M1198-20l-153 155 160-4z" fill="#ffa859" stroke="#ffa859" stroke-width="1.51"/><path d="M1045 135l150 171 10-175z" fill="#ffa04d" stroke="#ffa04d" stroke-width="1.51"/><path d="M1195 306l-152 159 163-9z" fill="#fe8a3b" stroke="#fe8a3b" stroke-width="1.51"/><path d="M1043 465l149 149 14-158z" fill="#fd7f37" stroke="#fd7f37" stroke-width="1.51"/><path d="M885 1101v165l146-14z" fill="#d35632" stroke="#d35632" stroke-width="1.51"/><path d="M888-22l-15 159 158-150z" fill="#ffbb64" stroke="#ffbb64" stroke-width="1.51"/><path d="M886-177l2 155 143 9z" fill="#ffc06f" stroke="#ffc06f" stroke-width="1.51"/><path d="M885 1101l146 151 6-148z" fill="#db5431" stroke="#db5431" stroke-width="1.51"/><path d="M877 620l10 165 156-4z" fill="#fd7434" stroke="#fd7434" stroke-width="1.51"/><path d="M871 455l6 165 166-155z" fill="#fd923e" stroke="#fd923e" stroke-width="1.51"/><path d="M886-177l145 164 13-175z" fill="#ffbe74" stroke="#ffbe74" stroke-width="1.51"/><path d="M1031-13L873 137l172-2z" fill="#ffb45e" stroke="#ffb45e" stroke-width="1.51"/><path d="M873 137l4 160 168-162z" fill="#ffb054" stroke="#ffb054" stroke-width="1.51"/><path d="M885 1101l152 3 8-157z" fill="#e6582d" stroke="#e6582d" stroke-width="1.51"/><path d="M882 945l3 156 160-154z" fill="#ec5f2d" stroke="#ec5f2d" stroke-width="1.51"/><path d="M1043 781l-156 4 158 162z" fill="#f7652e" stroke="#f7652e" stroke-width="1.51"/><path d="M887 785l-5 160 163 2z" fill="#f4652d" stroke="#f4652d" stroke-width="1.51"/><path d="M1043 465L877 620l170-3z" fill="#fd8739" stroke="#fd8739" stroke-width="1.51"/><path d="M877 620l166 161 4-164z" fill="#fd7835" stroke="#fd7835" stroke-width="1.51"/><path d="M871 455l172 10 5-165z" fill="#fe9740" stroke="#fe9740" stroke-width="1.51"/><path d="M877 297l-6 158 177-155z" fill="#fea044" stroke="#fea044" stroke-width="1.51"/><path d="M1045 135L877 297l171 3z" fill="#ffa74d" stroke="#ffa74d" stroke-width="1.51"/><path d="M716 452l-2 175 157-172z" fill="#fe9b42" stroke="#fe9b42" stroke-width="1.51"/><path d="M722-21l6 154 145 4z" fill="#ffc164" stroke="#ffc164" stroke-width="1.51"/><path d="M716 452l155 3 6-158z" fill="#fea245" stroke="#fea245" stroke-width="1.51"/><path d="M711 295l5 157 161-155z" fill="#feab48" stroke="#feab48" stroke-width="1.51"/><path d="M873 137l-145-4 149 164z" fill="#ffb757" stroke="#ffb757" stroke-width="1.51"/><path d="M728 133l-17 162 166 2z" fill="#ffb453" stroke="#ffb453" stroke-width="1.51"/><path d="M871 455L714 627l163-7z" fill="#fe913e" stroke="#fe913e" stroke-width="1.51"/><path d="M714 627l3 147 160-154z" fill="#fe863a" stroke="#fe863a" stroke-width="1.51"/><path d="M723 938l-6 160 165-153z" fill="#ed6a31" stroke="#ed6a31" stroke-width="1.51"/><path d="M882 945l-165 153 168 3z" fill="#e76431" stroke="#e76431" stroke-width="1.51"/><path d="M717 1098l10 170 158-167z" fill="#dc6335" stroke="#dc6335" stroke-width="1.51"/><path d="M885 1101l-158 167 158-2z" fill="#d35d34" stroke="#d35d34" stroke-width="1.51"/><path d="M712-175l10 154 164-156z" fill="#ffcb7a" stroke="#ffcb7a" stroke-width="1.51"/><path d="M877 620L717 774l170 11z" fill="#fe7b37" stroke="#fe7b37" stroke-width="1.51"/><path d="M723 938l159 7 5-160z" fill="#f56c30" stroke="#f56c30" stroke-width="1.51"/><path d="M717 774l6 164 164-153z" fill="#f97533" stroke="#f97533" stroke-width="1.51"/><path d="M886-177L722-21l166-1z" fill="#ffc573" stroke="#ffc573" stroke-width="1.51"/><path d="M722-21l151 158 15-159z" fill="#ffc168" stroke="#ffc168" stroke-width="1.51"/><path d="M564 146l-3 149h150z" fill="#ffbd58" stroke="#ffbd58" stroke-width="1.51"/><path d="M551 611l16 176 147-160z" fill="#ff903f" stroke="#ff903f" stroke-width="1.51"/><path d="M711 295H561l155 157z" fill="#feb04b" stroke="#feb04b" stroke-width="1.51"/><path d="M561 295l-8 160 163-3z" fill="#feaf4b" stroke="#feaf4b" stroke-width="1.51"/><path d="M551 611l163 16 2-175z" fill="#fe9c42" stroke="#fe9c42" stroke-width="1.51"/><path d="M553 455l-2 156 165-159z" fill="#fea547" stroke="#fea547" stroke-width="1.51"/><path d="M714 627L567 787l150-13z" fill="#ff853a" stroke="#ff853a" stroke-width="1.51"/><path d="M567 934l-6 174 156-10z" fill="#e97237" stroke="#e97237" stroke-width="1.51"/><path d="M561 1108l-2 150 158-160z" fill="#dd6d3a" stroke="#dd6d3a" stroke-width="1.51"/><path d="M712-175l-145 2L722-21z" fill="#ffd17d" stroke="#ffd17d" stroke-width="1.51"/><path d="M567-173l-4 157 159-5z" fill="#ffd179" stroke="#ffd179" stroke-width="1.51"/><path d="M717 774l-150 13 156 151z" fill="#f97c36" stroke="#f97c36" stroke-width="1.51"/><path d="M567 787v147l156 4z" fill="#f77b36" stroke="#f77b36" stroke-width="1.51"/><path d="M567 934l150 164 6-160z" fill="#ee7133" stroke="#ee7133" stroke-width="1.51"/><path d="M717 1098l-158 160 168 10z" fill="#d46738" stroke="#d46738" stroke-width="1.51"/><path d="M564 146l147 149 17-162z" fill="#febf5b" stroke="#febf5b" stroke-width="1.51"/><path d="M722-21l-159 5 165 149z" fill="#ffca6c" stroke="#ffca6c" stroke-width="1.51"/><path d="M563-16l1 162 164-13z" fill="#ffca68" stroke="#ffca68" stroke-width="1.51"/><path d="M393 454l4 167 154-10z" fill="#ffa94f" stroke="#ffa94f" stroke-width="1.51"/><path d="M397 621v153l154-163z" fill="#ff9b4a" stroke="#ff9b4a" stroke-width="1.51"/><path d="M393 454l158 157 2-156z" fill="#ffab4f" stroke="#ffab4f" stroke-width="1.51"/><path d="M392 297l1 157 160 1z" fill="#ffb957" stroke="#ffb957" stroke-width="1.51"/><path d="M392 297l161 158 8-160z" fill="#ffba55" stroke="#ffba55" stroke-width="1.51"/><path d="M408 1254l151 4 2-150z" fill="#d67140" stroke="#d67140" stroke-width="1.51"/><path d="M393 1102l15 152 153-146z" fill="#df7844" stroke="#df7844" stroke-width="1.51"/><path d="M393 937v165l168 6z" fill="#ea7d41" stroke="#ea7d41" stroke-width="1.51"/><path d="M400-178l-7 165 170-3z" fill="#ffdb84" stroke="#ffdb84" stroke-width="1.51"/><path d="M393-13l-2 144L563-16z" fill="#ffd679" stroke="#ffd679" stroke-width="1.51"/><path d="M392 297l169-2 3-149z" fill="#ffc35f" stroke="#ffc35f" stroke-width="1.51"/><path d="M391 131l1 166 172-151z" fill="#ffcc68" stroke="#ffcc68" stroke-width="1.51"/><path d="M563-16L391 131l173 15z" fill="#ffd070" stroke="#ffd070" stroke-width="1.51"/><path d="M551 611L397 774l170 13z" fill="#ff9044" stroke="#ff9044" stroke-width="1.51"/><path d="M397 774l-4 163 174-150z" fill="#fb8a42" stroke="#fb8a42" stroke-width="1.51"/><path d="M567 787L393 937l174-3z" fill="#f8823d" stroke="#f8823d" stroke-width="1.51"/><path d="M393 937l168 171 6-174z" fill="#f07b3c" stroke="#f07b3c" stroke-width="1.51"/><path d="M400-178L563-16l4-157z" fill="#ffda86" stroke="#ffda86" stroke-width="1.51"/><path d="M238-15l-7 153 160-7z" fill="#ffdd7e" stroke="#ffdd7e" stroke-width="1.51"/><path d="M391 131l-160 7 161 159z" fill="#fed470" stroke="#fed470" stroke-width="1.51"/><path d="M231 138l5 168 156-9z" fill="#ffd06d" stroke="#ffd06d" stroke-width="1.51"/><path d="M238-15l153 146 2-144z" fill="#ffdd80" stroke="#ffdd80" stroke-width="1.51"/><path d="M244-187l-6 172 155 2z" fill="#ffe48f" stroke="#ffe48f" stroke-width="1.51"/><path d="M392 297l-156 9 157 148z" fill="#ffc45f" stroke="#ffc45f" stroke-width="1.51"/><path d="M236 306l8 158 149-10z" fill="#ffc160" stroke="#ffc160" stroke-width="1.51"/><path d="M244 773l1 166 148-2z" fill="#fa904a" stroke="#fa904a" stroke-width="1.51"/><path d="M393 937l-148 2 148 163z" fill="#f18646" stroke="#f18646" stroke-width="1.51"/><path d="M245 939l-4 163h152z" fill="#eb864b" stroke="#eb864b" stroke-width="1.51"/><path d="M241 1102l2 150 150-150z" fill="#e0824d" stroke="#e0824d" stroke-width="1.51"/><path d="M236 619l8 154 153-152z" fill="#ffa454" stroke="#ffa454" stroke-width="1.51"/><path d="M393 454l-149 10 153 157z" fill="#ffb558" stroke="#ffb558" stroke-width="1.51"/><path d="M244 464l-8 155 161 2z" fill="#ffb159" stroke="#ffb159" stroke-width="1.51"/><path d="M397 621L244 773l153 1z" fill="#ff9b4e" stroke="#ff9b4e" stroke-width="1.51"/><path d="M244 773l149 164 4-163z" fill="#fc914a" stroke="#fc914a" stroke-width="1.51"/><path d="M244-187L393-13l7-165z" fill="#ffe491" stroke="#ffe491" stroke-width="1.51"/><path d="M393 1102l-150 150 165 2z" fill="#d77c4a" stroke="#d77c4a" stroke-width="1.51"/><path d="M81-16l-5 152 155 2z" fill="#ffe188" stroke="#ffe188" stroke-width="1.51"/><path d="M76 136l4 168 151-166z" fill="#ffda7d" stroke="#ffda7d" stroke-width="1.51"/><path d="M75 612l11 161 150-154z" fill="#ffa95f" stroke="#ffa95f" stroke-width="1.51"/><path d="M231 138L80 304l156 2z" fill="#ffd374" stroke="#ffd374" stroke-width="1.51"/><path d="M80 304l-3 152 159-150z" fill="#ffca6d" stroke="#ffca6d" stroke-width="1.51"/><path d="M81-16l150 154 7-153z" fill="#ffe28a" stroke="#ffe28a" stroke-width="1.51"/><path d="M86-176L81-16l157 1z" fill="#ffe998" stroke="#ffe998" stroke-width="1.51"/><path d="M241 1102l-153-3 155 153z" fill="#e28553" stroke="#e28553" stroke-width="1.51"/><path d="M88 1099l-13 158 168-5z" fill="#d98457" stroke="#d98457" stroke-width="1.51"/><path d="M86-176L238-15l6-172z" fill="#ffea9b" stroke="#ffea9b" stroke-width="1.51"/><path d="M75 612l161 7 8-155z" fill="#ffb561" stroke="#ffb561" stroke-width="1.51"/><path d="M77 456l-2 156 169-148z" fill="#ffbd66" stroke="#ffbd66" stroke-width="1.51"/><path d="M236 306L77 456l167 8z" fill="#ffc467" stroke="#ffc467" stroke-width="1.51"/><path d="M236 619L86 773h158z" fill="#ffa058" stroke="#ffa058" stroke-width="1.51"/><path d="M86 773l-2 163 160-163z" fill="#fe9957" stroke="#fe9957" stroke-width="1.51"/><path d="M88 1099l153 3 4-163z" fill="#ed8951" stroke="#ed8951" stroke-width="1.51"/><path d="M84 936l4 163 157-160z" fill="#f38d53" stroke="#f38d53" stroke-width="1.51"/><path d="M244 773L84 936l161 3z" fill="#fb9351" stroke="#fb9351" stroke-width="1.51"/><path d="M-76 1098l-9 155 160 4z" fill="#da8961" stroke="#da8961" stroke-width="1.51"/><path d="M-79 462l-3 162 157-12z" fill="#ffbc6f" stroke="#ffbc6f" stroke-width="1.51"/><path d="M-77 133l-10 158L76 136z" fill="#ffdf88" stroke="#ffdf88" stroke-width="1.51"/><path d="M-79 462L75 612l2-156z" fill="#ffc06d" stroke="#ffc06d" stroke-width="1.51"/><path d="M76 136L-87 291l167 13z" fill="#ffd87f" stroke="#ffd87f" stroke-width="1.51"/><path d="M-79 462l156-6 3-152z" fill="#ffc972" stroke="#ffc972" stroke-width="1.51"/><path d="M-87 291l8 171L80 304z" fill="#ffd078" stroke="#ffd078" stroke-width="1.51"/><path d="M-77 133l153 3 5-152z" fill="#ffe590" stroke="#ffe590" stroke-width="1.51"/><path d="M-76-27l-1 160L81-16z" fill="#ffe998" stroke="#ffe998" stroke-width="1.51"/><path d="M-77 932l1 166L84 936z" fill="#f5935d" stroke="#f5935d" stroke-width="1.51"/><path d="M-82 785l5 147 161 4z" fill="#fd995f" stroke="#fd995f" stroke-width="1.51"/><path d="M75 612l-157 12L86 773z" fill="#ffac65" stroke="#ffac65" stroke-width="1.51"/><path d="M-82 624v161l168-12z" fill="#ffa666" stroke="#ffa666" stroke-width="1.51"/><path d="M-82 785L84 936l2-163z" fill="#ff9c5d" stroke="#ff9c5d" stroke-width="1.51"/><path d="M-76-27L81-16l5-160z" fill="#ffeca0" stroke="#ffeca0" stroke-width="1.51"/><path d="M-89-177l13 150L86-176z" fill="#fff0aa" stroke="#fff0aa" stroke-width="1.51"/><path d="M84 936l-160 162 164 1z" fill="#ef8f5b" stroke="#ef8f5b" stroke-width="1.51"/><path d="M-76 1098l151 159 13-158z" fill="#e38a5d" stroke="#e38a5d" stroke-width="1.51"/><path d="M-236-189l-2 169 149-157z" fill="#fff5b4" stroke="#fff5b4" stroke-width="1.51"/><path d="M-247 293l13 168 147-170z" fill="#ffd483" stroke="#ffd483" stroke-width="1.51"/><path d="M-246 148l-1 145 160-2z" fill="#ffde8e" stroke="#ffde8e" stroke-width="1.51"/><path d="M-247 1108l12 157 150-12z" fill="#db8d6b" stroke="#db8d6b" stroke-width="1.51"/><path d="M-234 461l-2 167 154-4z" fill="#ffbf78" stroke="#ffbf78" stroke-width="1.51"/><path d="M-82 624l-154 4 154 157z" fill="#ffb06f" stroke="#ffb06f" stroke-width="1.51"/><path d="M-236 628l-3 151 157 6z" fill="#ffaa70" stroke="#ffaa70" stroke-width="1.51"/><path d="M-234 461l152 163 3-162z" fill="#ffc478" stroke="#ffc478" stroke-width="1.51"/><path d="M-87 291l-147 170 155 1z" fill="#ffcd7d" stroke="#ffcd7d" stroke-width="1.51"/><path d="M-246 148l159 143 10-158z" fill="#ffe28f" stroke="#ffe28f" stroke-width="1.51"/><path d="M-238-20l-8 168 169-15z" fill="#ffea9e" stroke="#ffea9e" stroke-width="1.51"/><path d="M-82 785l-157-6 162 153z" fill="#ffa068" stroke="#ffa068" stroke-width="1.51"/><path d="M-239 779l-2 164 164-11z" fill="#ff9e6a" stroke="#ff9e6a" stroke-width="1.51"/><path d="M-247 1108l162 145 9-155z" fill="#e48f68" stroke="#e48f68" stroke-width="1.51"/><path d="M-77 932l-164 11 165 155z" fill="#f69564" stroke="#f69564" stroke-width="1.51"/><path d="M-241 943l-6 165 171-10z" fill="#f09569" stroke="#f09569" stroke-width="1.51"/><path d="M-238-20l161 153 1-160z" fill="#ffeca0" stroke="#ffeca0" stroke-width="1.51"/><path d="M-89-177L-238-20l162-7z" fill="#fff1aa" stroke="#fff1aa" stroke-width="1.51"/><path d="M-247 293l11 335 2-167z" fill="#ffcb82" stroke="#ffcb82" stroke-width="1.51"/><path d="M-247 293l8 486 3-151z" fill="#ffc17c" stroke="#ffc17c" stroke-width="1.51"/><path d="M-246 148l8-168 2-169z" fill="#fff1ad" stroke="#fff1ad" stroke-width="1.51"/><path d="M-247 1108l6-165 2-164z" fill="#fc9b6b" stroke="#fc9b6b" stroke-width="1.51"/><path d="M-247 293v815l8-329z" fill="#ffad74" stroke="#ffad74" stroke-width="1.51"/></svg>